<?xml version="1.0" encoding="UTF-8"?><svg id="Layer_2" xmlns="http://www.w3.org/2000/svg" viewBox="0 0 504.51 539.12"><g id="Layer_1-2"><path d="M282.32,0V.96c-3.04,.64-4.8,5.36-8.24,14.96l-15.52,43.28h-1.76l-17.6-48.96c-2.32-6.56-3.92-8.96-7.28-9.28V0h20.48V.96c-4.48,.32-6,2.48-4.4,7.12l12.88,36.96,10.48-29.6c3.36-9.44,2.64-13.84-2.48-14.48V0h13.44Z"/><path d="M286.95,9.44V1.12h6.8V9.44h-6.8Zm6.8,7.44V58.24h-6.8V16.88h6.8Z"/><path d="M309.51,49c.64,1.04,1.48,1.87,2.52,2.48,1.04,.61,2.21,1.05,3.52,1.32,1.31,.27,2.65,.4,4.04,.4,1.07,0,2.19-.08,3.36-.24,1.17-.16,2.25-.45,3.24-.88,.99-.43,1.8-1.05,2.44-1.88,.64-.83,.96-1.88,.96-3.16,0-1.76-.67-3.09-2-4-1.33-.91-3-1.64-5-2.2s-4.17-1.07-6.52-1.52c-2.35-.45-4.52-1.09-6.52-1.92-2-.83-3.67-1.99-5-3.48-1.33-1.49-2-3.57-2-6.24,0-2.08,.47-3.87,1.4-5.36,.93-1.49,2.13-2.71,3.6-3.64,1.47-.93,3.12-1.63,4.96-2.08,1.84-.45,3.67-.68,5.48-.68,2.35,0,4.51,.2,6.48,.6,1.97,.4,3.72,1.09,5.24,2.08,1.52,.99,2.73,2.32,3.64,4,.91,1.68,1.44,3.77,1.6,6.28h-6.8c-.11-1.33-.45-2.44-1.04-3.32-.59-.88-1.33-1.59-2.24-2.12-.91-.53-1.91-.92-3-1.16-1.09-.24-2.2-.36-3.32-.36-1.01,0-2.04,.08-3.08,.24s-1.99,.44-2.84,.84c-.85,.4-1.55,.93-2.08,1.6-.53,.67-.8,1.53-.8,2.6,0,1.17,.41,2.15,1.24,2.92,.83,.77,1.88,1.41,3.16,1.92,1.28,.51,2.72,.93,4.32,1.28,1.6,.35,3.2,.71,4.8,1.08,1.71,.37,3.37,.83,5,1.36,1.63,.53,3.07,1.24,4.32,2.12,1.25,.88,2.27,1.99,3.04,3.32,.77,1.33,1.16,2.99,1.16,4.96,0,2.51-.52,4.59-1.56,6.24-1.04,1.65-2.4,2.99-4.08,4-1.68,1.01-3.57,1.72-5.68,2.12-2.11,.4-4.2,.6-6.28,.6-2.29,0-4.48-.24-6.56-.72-2.08-.48-3.92-1.27-5.52-2.36-1.6-1.09-2.88-2.53-3.84-4.32-.96-1.79-1.49-3.96-1.6-6.52h6.8c.05,1.49,.4,2.76,1.04,3.8Z"/><path d="M372.15,58.24v-6.56h-.16c-1.44,2.56-3.28,4.44-5.52,5.64-2.24,1.2-4.88,1.8-7.92,1.8-2.72,0-4.99-.36-6.8-1.08-1.81-.72-3.28-1.75-4.4-3.08-1.12-1.33-1.91-2.92-2.36-4.76s-.68-3.88-.68-6.12V16.88h6.8v28c0,2.56,.75,4.59,2.24,6.08,1.49,1.49,3.55,2.24,6.16,2.24,2.08,0,3.88-.32,5.4-.96,1.52-.64,2.79-1.55,3.8-2.72,1.01-1.17,1.77-2.55,2.28-4.12,.51-1.57,.76-3.29,.76-5.16V16.88h6.8V58.24h-6.4Z"/><path d="M425.43,58.08c-1.17,.69-2.8,1.04-4.88,1.04-1.76,0-3.16-.49-4.2-1.48s-1.56-2.6-1.56-4.84c-1.87,2.24-4.04,3.85-6.52,4.84-2.48,.99-5.16,1.48-8.04,1.48-1.87,0-3.64-.21-5.32-.64-1.68-.43-3.13-1.09-4.36-2-1.23-.91-2.2-2.09-2.92-3.56-.72-1.47-1.08-3.24-1.08-5.32,0-2.35,.4-4.27,1.2-5.76,.8-1.49,1.85-2.71,3.16-3.64,1.31-.93,2.8-1.64,4.48-2.12,1.68-.48,3.4-.88,5.16-1.2,1.87-.37,3.64-.65,5.32-.84,1.68-.19,3.16-.45,4.44-.8,1.28-.35,2.29-.85,3.04-1.52,.75-.67,1.12-1.64,1.12-2.92,0-1.49-.28-2.69-.84-3.6-.56-.91-1.28-1.6-2.16-2.08s-1.87-.8-2.96-.96c-1.09-.16-2.17-.24-3.24-.24-2.88,0-5.28,.55-7.2,1.64-1.92,1.09-2.96,3.16-3.12,6.2h-6.8c.11-2.56,.64-4.72,1.6-6.48,.96-1.76,2.24-3.19,3.84-4.28,1.6-1.09,3.43-1.88,5.48-2.36,2.05-.48,4.25-.72,6.6-.72,1.87,0,3.72,.13,5.56,.4,1.84,.27,3.51,.81,5,1.64,1.49,.82,2.69,1.98,3.6,3.47,.91,1.49,1.36,3.43,1.36,5.83v21.23c0,1.6,.09,2.77,.28,3.51,.19,.74,.81,1.12,1.88,1.12,.59,0,1.28-.11,2.08-.32v5.28Zm-11.04-21.2c-.85,.64-1.97,1.1-3.36,1.39-1.39,.29-2.84,.53-4.36,.72-1.52,.19-3.05,.4-4.6,.64-1.55,.24-2.93,.62-4.16,1.15-1.23,.53-2.23,1.29-3,2.27-.77,.98-1.16,2.32-1.16,4.02,0,1.11,.23,2.06,.68,2.83s1.04,1.39,1.76,1.87c.72,.48,1.56,.82,2.52,1.04s1.97,.32,3.04,.32c2.24,0,4.16-.3,5.76-.92,1.6-.61,2.91-1.38,3.92-2.31,1.01-.93,1.76-1.94,2.24-3.02s.72-2.11,.72-3.06v-6.93Z"/><path d="M438.95,1.12V58.24h-6.8V1.12h6.8Z"/><path d="M445.87,153.12c-2.96,1.33-6.01,2-9.16,2-3.84,0-6.93-.59-9.28-1.76-2.35-1.17-4.16-2.59-5.44-4.24-1.28-1.65-2.12-3.36-2.52-5.12-.4-1.76-.6-3.23-.6-4.4,0-2.24,.36-4.21,1.08-5.92,.72-1.71,1.68-3.24,2.88-4.6,1.2-1.36,2.61-2.59,4.24-3.68,1.63-1.09,3.35-2.12,5.16-3.08-.8-1.12-1.57-2.19-2.32-3.2-.75-1.01-1.43-2.04-2.04-3.08s-1.09-2.13-1.44-3.28c-.35-1.15-.52-2.44-.52-3.88,0-1.55,.28-3.03,.84-4.44,.56-1.41,1.39-2.67,2.48-3.76,1.09-1.09,2.44-1.96,4.04-2.6,1.6-.64,3.44-.96,5.52-.96,1.76,0,3.48,.24,5.16,.72,1.68,.48,3.16,1.21,4.44,2.2,1.28,.99,2.31,2.21,3.08,3.68,.77,1.47,1.16,3.16,1.16,5.08,0,1.71-.29,3.29-.88,4.76-.59,1.47-1.39,2.81-2.4,4.04-1.01,1.23-2.16,2.33-3.44,3.32-1.28,.99-2.61,1.88-4,2.68l10.32,12.56c1.07-2.99,1.68-5.95,1.84-8.88h6.48c-.16,1.71-.33,3.16-.52,4.36-.19,1.2-.43,2.31-.72,3.32-.29,1.01-.65,2.01-1.08,3-.43,.99-.93,2.12-1.52,3.4l11.12,12.88h-8.88l-6.08-7.12c-1.71,2.67-4.04,4.67-7,6Zm-13.68-24.16c-1.2,.8-2.25,1.71-3.16,2.72-.91,1.01-1.63,2.15-2.16,3.4-.53,1.25-.8,2.73-.8,4.44,0,1.44,.31,2.76,.92,3.96,.61,1.2,1.43,2.21,2.44,3.04,1.01,.83,2.17,1.48,3.48,1.96,1.31,.48,2.65,.72,4.04,.72,2.61,0,4.95-.61,7-1.84,2.05-1.23,3.77-2.88,5.16-4.96l-13.12-15.76c-1.33,.75-2.6,1.52-3.8,2.32Zm8.6-11.6c.91-.64,1.73-1.36,2.48-2.16,.75-.8,1.36-1.69,1.84-2.68,.48-.99,.72-2.09,.72-3.32,0-1.65-.59-3.08-1.76-4.28-1.17-1.2-2.77-1.8-4.8-1.8-1.6,0-3.09,.49-4.48,1.48-1.39,.99-2.08,2.52-2.08,4.6,0,.85,.17,1.71,.52,2.56,.35,.85,.79,1.69,1.32,2.52,.53,.83,1.12,1.64,1.76,2.44s1.28,1.6,1.92,2.4c.8-.53,1.65-1.12,2.56-1.76Z"/><path d="M40.08,246.04c-3.89,3.65-9.44,5.48-16.64,5.48s-13.11-1.75-17.24-5.24c-4.13-3.49-6.2-9.05-6.2-16.68v-36.48H7.6v36.48c0,5.12,1.36,9,4.08,11.64,2.72,2.64,6.64,3.96,11.76,3.96,4.85,0,8.55-1.32,11.08-3.96s3.8-6.52,3.8-11.64v-36.48h7.6v36.48c0,7.31-1.95,12.79-5.84,16.44Z"/><path d="M52.88,193.12h9.12l14.24,22.32,14.88-22.32h8.48l-18.88,27.76,20.08,29.36h-9.28l-15.36-23.6-15.84,23.6h-8.48l19.84-29.36-18.8-27.76Z"/><path d="M128.8,191.76l-23.68,59.76h-5.76l23.6-59.76h5.84Z"/><path d="M173.36,246.04c-3.89,3.65-9.44,5.48-16.64,5.48s-13.11-1.75-17.24-5.24c-4.13-3.49-6.2-9.05-6.2-16.68v-36.48h7.6v36.48c0,5.12,1.36,9,4.08,11.64,2.72,2.64,6.64,3.96,11.76,3.96,4.85,0,8.55-1.32,11.08-3.96,2.53-2.64,3.8-6.52,3.8-11.64v-36.48h7.6v36.48c0,7.31-1.95,12.79-5.84,16.44Z"/><path d="M199.28,193.12v57.12h-7.6v-57.12h7.6Z"/><path d="M263.36,250.24v-5.6h-.16c-1.12,2.29-2.88,3.95-5.28,4.96-2.4,1.01-5.04,1.52-7.92,1.52-3.2,0-5.99-.59-8.36-1.76-2.37-1.17-4.35-2.75-5.92-4.72-1.57-1.97-2.76-4.27-3.56-6.88-.8-2.61-1.2-5.39-1.2-8.32s.39-5.71,1.16-8.32c.77-2.61,1.95-4.89,3.52-6.84,1.57-1.95,3.55-3.49,5.92-4.64,2.37-1.15,5.13-1.72,8.28-1.72,1.07,0,2.21,.11,3.44,.32,1.23,.21,2.45,.57,3.68,1.08,1.23,.51,2.39,1.17,3.48,2,1.09,.83,2.01,1.85,2.76,3.08h.16v-21.28h6.8v57.12h-6.8Zm-24.44-14.68c.51,1.84,1.28,3.48,2.32,4.92,1.04,1.44,2.37,2.59,4,3.44,1.63,.85,3.53,1.28,5.72,1.28s4.24-.45,5.84-1.36c1.6-.91,2.91-2.09,3.92-3.56,1.01-1.47,1.75-3.13,2.2-5,.45-1.87,.68-3.76,.68-5.68,0-2.03-.24-3.99-.72-5.88-.48-1.89-1.24-3.56-2.28-5-1.04-1.44-2.39-2.6-4.04-3.48-1.65-.88-3.65-1.32-6-1.32s-4.24,.45-5.84,1.36c-1.6,.91-2.88,2.11-3.84,3.6-.96,1.49-1.65,3.2-2.08,5.12-.43,1.92-.64,3.89-.64,5.92,0,1.92,.25,3.8,.76,5.64Z"/><path d="M309.92,247.6c-3.09,2.35-6.99,3.52-11.68,3.52-3.31,0-6.17-.53-8.6-1.6-2.43-1.07-4.47-2.56-6.12-4.48-1.65-1.92-2.89-4.21-3.72-6.88-.83-2.67-1.29-5.57-1.4-8.72,0-3.15,.48-6.03,1.44-8.64,.96-2.61,2.31-4.88,4.04-6.8,1.73-1.92,3.79-3.41,6.16-4.48,2.37-1.07,4.97-1.6,7.8-1.6,3.68,0,6.73,.76,9.16,2.28,2.43,1.52,4.37,3.45,5.84,5.8,1.47,2.35,2.48,4.91,3.04,7.68,.56,2.77,.79,5.41,.68,7.92h-30.96c-.05,1.81,.16,3.53,.64,5.16,.48,1.63,1.25,3.07,2.32,4.32,1.07,1.25,2.43,2.25,4.08,3,1.65,.75,3.6,1.12,5.84,1.12,2.88,0,5.24-.67,7.08-2,1.84-1.33,3.05-3.36,3.64-6.08h6.72c-.91,4.64-2.91,8.13-6,10.48Zm-1.64-26.56c-.61-1.44-1.44-2.68-2.48-3.72s-2.27-1.87-3.68-2.48c-1.41-.61-2.97-.92-4.68-.92s-3.35,.31-4.76,.92c-1.41,.61-2.63,1.45-3.64,2.52-1.01,1.07-1.81,2.31-2.4,3.72-.59,1.41-.93,2.92-1.04,4.52h23.76c-.11-1.6-.47-3.12-1.08-4.56Z"/><path d="M328.79,241c.64,1.04,1.48,1.87,2.52,2.48,1.04,.61,2.21,1.05,3.52,1.32,1.31,.27,2.65,.4,4.04,.4,1.07,0,2.19-.08,3.36-.24,1.17-.16,2.25-.45,3.24-.88,.99-.43,1.8-1.05,2.44-1.88,.64-.83,.96-1.88,.96-3.16,0-1.76-.67-3.09-2-4-1.33-.91-3-1.64-5-2.2s-4.17-1.07-6.52-1.52c-2.35-.45-4.52-1.09-6.52-1.92-2-.83-3.67-1.99-5-3.48-1.33-1.49-2-3.57-2-6.24,0-2.08,.47-3.87,1.4-5.36,.93-1.49,2.13-2.71,3.6-3.64,1.47-.93,3.12-1.63,4.96-2.08,1.84-.45,3.67-.68,5.48-.68,2.35,0,4.51,.2,6.48,.6,1.97,.4,3.72,1.09,5.24,2.08,1.52,.99,2.73,2.32,3.64,4,.91,1.68,1.44,3.77,1.6,6.28h-6.8c-.11-1.33-.45-2.44-1.04-3.32-.59-.88-1.33-1.59-2.24-2.12-.91-.53-1.91-.92-3-1.16-1.09-.24-2.2-.36-3.32-.36-1.01,0-2.04,.08-3.08,.24s-1.99,.44-2.84,.84c-.85,.4-1.55,.93-2.08,1.6-.53,.67-.8,1.53-.8,2.6,0,1.17,.41,2.15,1.24,2.92,.83,.77,1.88,1.41,3.16,1.92,1.28,.51,2.72,.93,4.32,1.28,1.6,.35,3.2,.71,4.8,1.08,1.71,.37,3.37,.83,5,1.36,1.63,.53,3.07,1.24,4.32,2.12,1.25,.88,2.27,1.99,3.04,3.32,.77,1.33,1.16,2.99,1.16,4.96,0,2.51-.52,4.59-1.56,6.24-1.04,1.65-2.4,2.99-4.08,4-1.68,1.01-3.57,1.72-5.68,2.12-2.11,.4-4.2,.6-6.28,.6-2.29,0-4.48-.24-6.56-.72-2.08-.48-3.92-1.27-5.52-2.36-1.6-1.09-2.88-2.53-3.84-4.32-.96-1.79-1.49-3.96-1.6-6.52h6.8c.05,1.49,.4,2.76,1.04,3.8Z"/><path d="M363.99,201.44v-8.32h6.8v8.32h-6.8Zm6.8,7.44v41.36h-6.8v-41.36h6.8Z"/><path d="M412.39,261.92c-3.09,3.36-7.95,5.04-14.56,5.04-1.92,0-3.88-.21-5.88-.64-2-.43-3.81-1.12-5.44-2.08-1.63-.96-2.97-2.21-4.04-3.76-1.07-1.55-1.65-3.44-1.76-5.68h6.8c.05,1.23,.44,2.27,1.16,3.12,.72,.85,1.6,1.55,2.64,2.08,1.04,.53,2.17,.92,3.4,1.16,1.23,.24,2.4,.36,3.52,.36,2.24,0,4.13-.39,5.68-1.16,1.55-.77,2.83-1.84,3.84-3.2,1.01-1.36,1.75-3,2.2-4.92s.68-4.03,.68-6.32v-2.72h-.16c-1.17,2.56-2.95,4.44-5.32,5.64-2.37,1.2-4.89,1.8-7.56,1.8-3.09,0-5.79-.56-8.08-1.68-2.29-1.12-4.21-2.63-5.76-4.52-1.55-1.89-2.71-4.11-3.48-6.64-.77-2.53-1.16-5.21-1.16-8.04,0-2.45,.32-4.97,.96-7.56,.64-2.59,1.71-4.93,3.2-7.04,1.49-2.11,3.47-3.84,5.92-5.2,2.45-1.36,5.47-2.04,9.04-2.04,2.61,0,5.01,.57,7.2,1.72,2.19,1.15,3.89,2.87,5.12,5.16h.08v-5.92h6.4v37.84c0,6.77-1.55,11.84-4.64,15.2Zm-8.68-18.6c1.57-.93,2.84-2.16,3.8-3.68s1.67-3.24,2.12-5.16c.45-1.92,.68-3.84,.68-5.76,0-1.81-.21-3.6-.64-5.36-.43-1.76-1.11-3.35-2.04-4.76-.93-1.41-2.15-2.55-3.64-3.4-1.49-.85-3.31-1.28-5.44-1.28s-4.05,.41-5.6,1.24c-1.55,.83-2.81,1.93-3.8,3.32-.99,1.39-1.71,2.99-2.16,4.8-.45,1.81-.68,3.71-.68,5.68,0,1.87,.19,3.73,.56,5.6,.37,1.87,1.01,3.56,1.92,5.08,.91,1.52,2.11,2.75,3.6,3.68,1.49,.93,3.36,1.4,5.6,1.4s4.15-.47,5.72-1.4Z"/><path d="M433.67,208.88v6.56h.16c2.83-5.01,7.31-7.52,13.44-7.52,2.72,0,4.99,.37,6.8,1.12,1.81,.75,3.28,1.79,4.4,3.12,1.12,1.33,1.91,2.92,2.36,4.76,.45,1.84,.68,3.88,.68,6.12v27.2h-6.8v-28c0-2.56-.75-4.59-2.24-6.08-1.49-1.49-3.55-2.24-6.16-2.24-2.08,0-3.88,.32-5.4,.96-1.52,.64-2.79,1.55-3.8,2.72-1.01,1.17-1.77,2.55-2.28,4.12-.51,1.57-.76,3.29-.76,5.16v23.36h-6.8v-41.36h6.4Z"/><path d="M210.2,337c.64,1.04,1.48,1.87,2.52,2.48,1.04,.61,2.21,1.05,3.52,1.32,1.31,.27,2.65,.4,4.04,.4,1.07,0,2.19-.08,3.36-.24,1.17-.16,2.25-.45,3.24-.88,.99-.43,1.8-1.05,2.44-1.88,.64-.83,.96-1.88,.96-3.16,0-1.76-.67-3.09-2-4-1.33-.91-3-1.64-5-2.2-2-.56-4.17-1.07-6.52-1.52-2.35-.45-4.52-1.09-6.52-1.92-2-.83-3.67-1.99-5-3.48-1.33-1.49-2-3.57-2-6.24,0-2.08,.47-3.87,1.4-5.36,.93-1.49,2.13-2.71,3.6-3.64,1.47-.93,3.12-1.63,4.96-2.08s3.67-.68,5.48-.68c2.35,0,4.51,.2,6.48,.6,1.97,.4,3.72,1.09,5.24,2.08,1.52,.99,2.73,2.32,3.64,4,.91,1.68,1.44,3.77,1.6,6.28h-6.8c-.11-1.33-.45-2.44-1.04-3.32-.59-.88-1.33-1.59-2.24-2.12-.91-.53-1.91-.92-3-1.16-1.09-.24-2.2-.36-3.32-.36-1.01,0-2.04,.08-3.08,.24s-1.99,.44-2.84,.84c-.85,.4-1.55,.93-2.08,1.6-.53,.67-.8,1.53-.8,2.6,0,1.17,.41,2.15,1.24,2.92,.83,.77,1.88,1.41,3.16,1.92,1.28,.51,2.72,.93,4.32,1.28,1.6,.35,3.2,.71,4.8,1.08,1.71,.37,3.37,.83,5,1.36,1.63,.53,3.07,1.24,4.32,2.12,1.25,.88,2.27,1.99,3.04,3.32,.77,1.33,1.16,2.99,1.16,4.96,0,2.51-.52,4.59-1.56,6.24-1.04,1.65-2.4,2.99-4.08,4-1.68,1.01-3.57,1.72-5.68,2.12-2.11,.4-4.2,.6-6.28,.6-2.29,0-4.48-.24-6.56-.72-2.08-.48-3.92-1.27-5.52-2.36-1.6-1.09-2.88-2.53-3.84-4.32s-1.49-3.96-1.6-6.52h6.8c.05,1.49,.4,2.76,1.04,3.8Z"/><path d="M262.68,304.88v6h-8.24v25.68c0,.8,.07,1.44,.2,1.92,.13,.48,.39,.85,.76,1.12,.37,.27,.89,.44,1.56,.52,.67,.08,1.53,.12,2.6,.12h3.12v6h-5.2c-1.76,0-3.27-.12-4.52-.36-1.25-.24-2.27-.68-3.04-1.32-.77-.64-1.35-1.55-1.72-2.72-.37-1.17-.56-2.72-.56-4.64v-26.32h-7.04v-6h7.04v-12.4h6.8v12.4h8.24Z"/><path d="M298.04,346.24v-6.56h-.16c-1.44,2.56-3.28,4.44-5.52,5.64-2.24,1.2-4.88,1.8-7.92,1.8-2.72,0-4.99-.36-6.8-1.08-1.81-.72-3.28-1.75-4.4-3.08-1.12-1.33-1.91-2.92-2.36-4.76s-.68-3.88-.68-6.12v-27.2h6.8v28c0,2.56,.75,4.59,2.24,6.08,1.49,1.49,3.55,2.24,6.16,2.24,2.08,0,3.88-.32,5.4-.96,1.52-.64,2.79-1.55,3.8-2.72,1.01-1.17,1.77-2.55,2.28-4.12,.51-1.57,.76-3.29,.76-5.16v-23.36h6.8v41.36h-6.4Z"/><path d="M344.83,346.24v-5.6h-.16c-1.12,2.29-2.88,3.95-5.28,4.96-2.4,1.01-5.04,1.52-7.92,1.52-3.2,0-5.99-.59-8.36-1.76s-4.35-2.75-5.92-4.72c-1.57-1.97-2.76-4.27-3.56-6.88-.8-2.61-1.2-5.39-1.2-8.32s.39-5.71,1.16-8.32c.77-2.61,1.95-4.89,3.52-6.84,1.57-1.95,3.55-3.49,5.92-4.64,2.37-1.15,5.13-1.72,8.28-1.72,1.07,0,2.21,.11,3.44,.32,1.23,.21,2.45,.57,3.68,1.08,1.23,.51,2.39,1.17,3.48,2,1.09,.83,2.01,1.85,2.76,3.08h.16v-21.28h6.8v57.12h-6.8Zm-24.44-14.68c.51,1.84,1.28,3.48,2.32,4.92,1.04,1.44,2.37,2.59,4,3.44,1.63,.85,3.53,1.28,5.72,1.28s4.24-.45,5.84-1.36c1.6-.91,2.91-2.09,3.92-3.56,1.01-1.47,1.75-3.13,2.2-5,.45-1.87,.68-3.76,.68-5.68,0-2.03-.24-3.99-.72-5.88-.48-1.89-1.24-3.56-2.28-5-1.04-1.44-2.39-2.6-4.04-3.48-1.65-.88-3.65-1.32-6-1.32s-4.24,.45-5.84,1.36c-1.6,.91-2.88,2.11-3.84,3.6-.96,1.49-1.65,3.2-2.08,5.12s-.64,3.89-.64,5.92c0,1.92,.25,3.8,.76,5.64Z"/><path d="M391.39,343.6c-3.09,2.35-6.99,3.52-11.68,3.52-3.31,0-6.17-.53-8.6-1.6-2.43-1.07-4.47-2.56-6.12-4.48-1.65-1.92-2.89-4.21-3.72-6.88-.83-2.67-1.29-5.57-1.4-8.72,0-3.15,.48-6.03,1.44-8.64,.96-2.61,2.31-4.88,4.04-6.8,1.73-1.92,3.79-3.41,6.16-4.48,2.37-1.07,4.97-1.6,7.8-1.6,3.68,0,6.73,.76,9.16,2.28,2.43,1.52,4.37,3.45,5.84,5.8,1.47,2.35,2.48,4.91,3.04,7.68,.56,2.77,.79,5.41,.68,7.92h-30.96c-.05,1.81,.16,3.53,.64,5.16,.48,1.63,1.25,3.07,2.32,4.32,1.07,1.25,2.43,2.25,4.08,3,1.65,.75,3.6,1.12,5.84,1.12,2.88,0,5.24-.67,7.08-2,1.84-1.33,3.05-3.36,3.64-6.08h6.72c-.91,4.64-2.91,8.13-6,10.48Zm-1.64-26.56c-.61-1.44-1.44-2.68-2.48-3.72s-2.27-1.87-3.68-2.48c-1.41-.61-2.97-.92-4.68-.92s-3.35,.31-4.76,.92c-1.41,.61-2.63,1.45-3.64,2.52-1.01,1.07-1.81,2.31-2.4,3.72-.59,1.41-.93,2.92-1.04,4.52h23.76c-.11-1.6-.47-3.12-1.08-4.56Z"/><path d="M411.47,304.88v6.56h.16c2.83-5.01,7.31-7.52,13.44-7.52,2.72,0,4.99,.37,6.8,1.12,1.81,.75,3.28,1.79,4.4,3.12,1.12,1.33,1.91,2.92,2.36,4.76s.68,3.88,.68,6.12v27.2h-6.8v-28c0-2.56-.75-4.59-2.24-6.08-1.49-1.49-3.55-2.24-6.16-2.24-2.08,0-3.88,.32-5.4,.96-1.52,.64-2.79,1.55-3.8,2.72-1.01,1.17-1.77,2.55-2.28,4.12s-.76,3.29-.76,5.16v23.36h-6.8v-41.36h6.4Z"/><path d="M467.23,304.88v6h-8.24v25.68c0,.8,.07,1.44,.2,1.92,.13,.48,.39,.85,.76,1.12,.37,.27,.89,.44,1.56,.52,.67,.08,1.53,.12,2.6,.12h3.12v6h-5.2c-1.76,0-3.27-.12-4.52-.36-1.25-.24-2.27-.68-3.04-1.32-.77-.64-1.35-1.55-1.72-2.72-.37-1.17-.56-2.72-.56-4.64v-26.32h-7.04v-6h7.04v-12.4h6.8v12.4h8.24Z"/><path d="M315.31,406.88v-6h6.96v-6.16c0-3.36,.97-5.91,2.92-7.64,1.95-1.73,4.79-2.6,8.52-2.6,.64,0,1.37,.05,2.2,.16,.83,.11,1.56,.27,2.2,.48v5.92c-.59-.21-1.23-.36-1.92-.44-.69-.08-1.33-.12-1.92-.12-1.65,0-2.93,.32-3.84,.96-.91,.64-1.36,1.87-1.36,3.68v5.76h8v6h-8v35.36h-6.8v-35.36h-6.96Z"/><path d="M349.31,400.88v8.72h.16c1.65-3.36,3.68-5.84,6.08-7.44,2.4-1.6,5.44-2.35,9.12-2.24v7.2c-2.72,0-5.04,.37-6.96,1.12-1.92,.75-3.47,1.84-4.64,3.28-1.17,1.44-2.03,3.19-2.56,5.24-.53,2.05-.8,4.41-.8,7.08v18.4h-6.8v-41.36h6.4Z"/><path d="M367.39,413.08c.85-2.64,2.13-4.93,3.84-6.88,1.71-1.95,3.81-3.48,6.32-4.6,2.51-1.12,5.39-1.68,8.64-1.68s6.2,.56,8.68,1.68c2.48,1.12,4.57,2.65,6.28,4.6,1.71,1.95,2.99,4.24,3.84,6.88,.85,2.64,1.28,5.48,1.28,8.52s-.43,5.87-1.28,8.48c-.85,2.61-2.13,4.89-3.84,6.84-1.71,1.95-3.8,3.47-6.28,4.56-2.48,1.09-5.37,1.64-8.68,1.64s-6.13-.55-8.64-1.64c-2.51-1.09-4.61-2.61-6.32-4.56-1.71-1.95-2.99-4.23-3.84-6.84-.85-2.61-1.28-5.44-1.28-8.48s.43-5.88,1.28-8.52Zm6.92,15.2c.67,1.95,1.59,3.57,2.76,4.88,1.17,1.31,2.55,2.31,4.12,3,1.57,.69,3.24,1.04,5,1.04s3.43-.35,5-1.04c1.57-.69,2.95-1.69,4.12-3,1.17-1.31,2.09-2.93,2.76-4.88,.67-1.95,1-4.17,1-6.68s-.33-4.73-1-6.68c-.67-1.95-1.59-3.59-2.76-4.92-1.17-1.33-2.55-2.35-4.12-3.04-1.57-.69-3.24-1.04-5-1.04s-3.43,.35-5,1.04c-1.57,.69-2.95,1.71-4.12,3.04-1.17,1.33-2.09,2.97-2.76,4.92-.67,1.95-1,4.17-1,6.68s.33,4.73,1,6.68Z"/><path d="M420.67,400.88v6.08h.16c3.09-4.69,7.55-7.04,13.36-7.04,2.56,0,4.88,.53,6.96,1.6,2.08,1.07,3.55,2.88,4.4,5.44,1.39-2.24,3.21-3.97,5.48-5.2,2.27-1.23,4.76-1.84,7.48-1.84,2.08,0,3.96,.23,5.64,.68s3.12,1.16,4.32,2.12c1.2,.96,2.13,2.2,2.8,3.72,.67,1.52,1,3.35,1,5.48v30.32h-6.8v-27.12c0-1.28-.11-2.48-.32-3.6-.21-1.12-.61-2.09-1.2-2.92-.59-.83-1.4-1.48-2.44-1.96-1.04-.48-2.39-.72-4.04-.72-3.36,0-6,.96-7.92,2.88-1.92,1.92-2.88,4.48-2.88,7.68v25.76h-6.8v-27.12c0-1.33-.12-2.56-.36-3.68-.24-1.12-.65-2.09-1.24-2.92-.59-.83-1.37-1.47-2.36-1.92-.99-.45-2.25-.68-3.8-.68-1.97,0-3.67,.4-5.08,1.2-1.41,.8-2.56,1.76-3.44,2.88-.88,1.12-1.52,2.28-1.92,3.48-.4,1.2-.6,2.2-.6,3v25.76h-6.8v-41.36h6.4Z"/><path d="M127.72,481.12l22.32,57.12h-8.4l-6.24-17.2h-24.16l-6.4,17.2h-7.76l22.24-57.12h8.4Zm5.28,33.52l-9.52-26.64h-.16l-9.68,26.64h19.36Z"/><path d="M160.92,496.88v6.08h.16c3.09-4.69,7.55-7.04,13.36-7.04,2.56,0,4.88,.53,6.96,1.6,2.08,1.07,3.55,2.88,4.4,5.44,1.39-2.24,3.21-3.97,5.48-5.2,2.27-1.23,4.76-1.84,7.48-1.84,2.08,0,3.96,.23,5.64,.68s3.12,1.16,4.32,2.12c1.2,.96,2.13,2.2,2.8,3.72,.67,1.52,1,3.35,1,5.48v30.32h-6.8v-27.12c0-1.28-.11-2.48-.32-3.6-.21-1.12-.61-2.09-1.2-2.92-.59-.83-1.4-1.48-2.44-1.96-1.04-.48-2.39-.72-4.04-.72-3.36,0-6,.96-7.92,2.88-1.92,1.92-2.88,4.48-2.88,7.68v25.76h-6.8v-27.12c0-1.33-.12-2.56-.36-3.68-.24-1.12-.65-2.09-1.24-2.92-.59-.83-1.37-1.47-2.36-1.92-.99-.45-2.25-.68-3.8-.68-1.97,0-3.67,.4-5.08,1.2-1.41,.8-2.56,1.76-3.44,2.88-.88,1.12-1.52,2.28-1.92,3.48-.4,1.2-.6,2.2-.6,3v25.76h-6.8v-41.36h6.4Z"/><path d="M227.96,529c.64,1.04,1.48,1.87,2.52,2.48,1.04,.61,2.21,1.05,3.52,1.32,1.31,.27,2.65,.4,4.04,.4,1.07,0,2.19-.08,3.36-.24,1.17-.16,2.25-.45,3.24-.88,.99-.43,1.8-1.05,2.44-1.88,.64-.83,.96-1.88,.96-3.16,0-1.76-.67-3.09-2-4-1.33-.91-3-1.64-5-2.2-2-.56-4.17-1.07-6.52-1.52-2.35-.45-4.52-1.09-6.52-1.92-2-.83-3.67-1.99-5-3.48-1.33-1.49-2-3.57-2-6.24,0-2.08,.47-3.87,1.4-5.36,.93-1.49,2.13-2.71,3.6-3.64,1.47-.93,3.12-1.63,4.96-2.08s3.67-.68,5.48-.68c2.35,0,4.51,.2,6.48,.6,1.97,.4,3.72,1.09,5.24,2.08,1.52,.99,2.73,2.32,3.64,4,.91,1.68,1.44,3.77,1.6,6.28h-6.8c-.11-1.33-.45-2.44-1.04-3.32-.59-.88-1.33-1.59-2.24-2.12-.91-.53-1.91-.92-3-1.16-1.09-.24-2.2-.36-3.32-.36-1.01,0-2.04,.08-3.08,.24s-1.99,.44-2.84,.84c-.85,.4-1.55,.93-2.08,1.6-.53,.67-.8,1.53-.8,2.6,0,1.17,.41,2.15,1.24,2.92,.83,.77,1.88,1.41,3.16,1.92,1.28,.51,2.72,.93,4.32,1.28,1.6,.35,3.2,.71,4.8,1.08,1.71,.37,3.37,.83,5,1.36,1.63,.53,3.07,1.24,4.32,2.12,1.25,.88,2.27,1.99,3.04,3.32,.77,1.33,1.16,2.99,1.16,4.96,0,2.51-.52,4.59-1.56,6.24-1.04,1.65-2.4,2.99-4.08,4-1.68,1.01-3.57,1.72-5.68,2.12-2.11,.4-4.2,.6-6.28,.6-2.29,0-4.48-.24-6.56-.72-2.08-.48-3.92-1.27-5.52-2.36-1.6-1.09-2.88-2.53-3.84-4.32s-1.49-3.96-1.6-6.52h6.8c.05,1.49,.4,2.76,1.04,3.8Z"/><path d="M280.44,496.88v6h-8.24v25.68c0,.8,.07,1.44,.2,1.92,.13,.48,.39,.85,.76,1.12,.37,.27,.89,.44,1.56,.52,.67,.08,1.53,.12,2.6,.12h3.12v6h-5.2c-1.76,0-3.27-.12-4.52-.36-1.25-.24-2.27-.68-3.04-1.32-.77-.64-1.35-1.55-1.72-2.72-.37-1.17-.56-2.72-.56-4.64v-26.32h-7.04v-6h7.04v-12.4h6.8v12.4h8.24Z"/><path d="M317.24,535.6c-3.09,2.35-6.99,3.52-11.68,3.52-3.31,0-6.17-.53-8.6-1.6-2.43-1.07-4.47-2.56-6.12-4.48-1.65-1.92-2.89-4.21-3.72-6.88-.83-2.67-1.29-5.57-1.4-8.72,0-3.15,.48-6.03,1.44-8.64,.96-2.61,2.31-4.88,4.04-6.8,1.73-1.92,3.79-3.41,6.16-4.48,2.37-1.07,4.97-1.6,7.8-1.6,3.68,0,6.73,.76,9.16,2.28,2.43,1.52,4.37,3.45,5.84,5.8,1.47,2.35,2.48,4.91,3.04,7.68,.56,2.77,.79,5.41,.68,7.92h-30.96c-.05,1.81,.16,3.53,.64,5.16,.48,1.63,1.25,3.07,2.32,4.32,1.07,1.25,2.43,2.25,4.08,3,1.65,.75,3.6,1.12,5.84,1.12,2.88,0,5.24-.67,7.08-2,1.84-1.33,3.05-3.36,3.64-6.08h6.72c-.91,4.64-2.91,8.13-6,10.48Zm-1.64-26.56c-.61-1.44-1.44-2.68-2.48-3.72s-2.27-1.87-3.68-2.48c-1.41-.61-2.97-.92-4.68-.92s-3.35,.31-4.76,.92c-1.41,.61-2.63,1.45-3.64,2.52-1.01,1.07-1.81,2.31-2.4,3.72-.59,1.41-.93,2.92-1.04,4.52h23.76c-.11-1.6-.47-3.12-1.08-4.56Z"/><path d="M337.07,496.88v8.72h.16c1.65-3.36,3.68-5.84,6.08-7.44,2.4-1.6,5.44-2.35,9.12-2.24v7.2c-2.72,0-5.04,.37-6.96,1.12-1.92,.75-3.47,1.84-4.64,3.28-1.17,1.44-2.03,3.19-2.56,5.24-.53,2.05-.8,4.41-.8,7.08v18.4h-6.8v-41.36h6.4Z"/><path d="M386.27,538.24v-5.6h-.16c-1.12,2.29-2.88,3.95-5.28,4.96-2.4,1.01-5.04,1.52-7.92,1.52-3.2,0-5.99-.59-8.36-1.76s-4.35-2.75-5.92-4.72c-1.57-1.97-2.76-4.27-3.56-6.88-.8-2.61-1.2-5.39-1.2-8.32s.39-5.71,1.16-8.32c.77-2.61,1.95-4.89,3.52-6.84,1.57-1.95,3.55-3.49,5.92-4.64,2.37-1.15,5.13-1.72,8.28-1.72,1.07,0,2.21,.11,3.44,.32,1.23,.21,2.45,.57,3.68,1.08,1.23,.51,2.39,1.17,3.48,2,1.09,.83,2.01,1.85,2.76,3.08h.16v-21.28h6.8v57.12h-6.8Zm-24.44-14.68c.51,1.84,1.28,3.48,2.32,4.92,1.04,1.44,2.37,2.59,4,3.44,1.63,.85,3.53,1.28,5.72,1.28s4.24-.45,5.84-1.36c1.6-.91,2.91-2.09,3.92-3.56,1.01-1.47,1.75-3.13,2.2-5,.45-1.87,.68-3.76,.68-5.68,0-2.03-.24-3.99-.72-5.88-.48-1.89-1.24-3.56-2.28-5-1.04-1.44-2.39-2.6-4.04-3.48-1.65-.88-3.65-1.32-6-1.32s-4.24,.45-5.84,1.36c-1.6,.91-2.88,2.11-3.84,3.6-.96,1.49-1.65,3.2-2.08,5.12s-.64,3.89-.64,5.92c0,1.92,.25,3.8,.76,5.64Z"/><path d="M440.19,538.08c-1.17,.69-2.8,1.04-4.88,1.04-1.76,0-3.16-.49-4.2-1.48s-1.56-2.6-1.56-4.84c-1.87,2.24-4.04,3.85-6.52,4.84-2.48,.99-5.16,1.48-8.04,1.48-1.87,0-3.64-.21-5.32-.64-1.68-.43-3.13-1.09-4.36-2-1.23-.91-2.2-2.09-2.92-3.56-.72-1.47-1.08-3.24-1.08-5.32,0-2.35,.4-4.27,1.2-5.76,.8-1.49,1.85-2.71,3.16-3.64,1.31-.93,2.8-1.64,4.48-2.12,1.68-.48,3.4-.88,5.16-1.2,1.87-.37,3.64-.65,5.32-.84,1.68-.19,3.16-.45,4.44-.8,1.28-.35,2.29-.85,3.04-1.52,.75-.67,1.12-1.64,1.12-2.92,0-1.49-.28-2.69-.84-3.6-.56-.91-1.28-1.6-2.16-2.08-.88-.48-1.87-.8-2.96-.96-1.09-.16-2.17-.24-3.24-.24-2.88,0-5.28,.55-7.2,1.64-1.92,1.09-2.96,3.16-3.12,6.2h-6.8c.11-2.56,.64-4.72,1.6-6.48s2.24-3.19,3.84-4.28c1.6-1.09,3.43-1.88,5.48-2.36,2.05-.48,4.25-.72,6.6-.72,1.87,0,3.72,.13,5.56,.4,1.84,.27,3.51,.81,5,1.64,1.49,.83,2.69,1.98,3.6,3.47,.91,1.49,1.36,3.43,1.36,5.83v21.24c0,1.6,.09,2.77,.28,3.51,.19,.75,.81,1.12,1.88,1.12,.59,0,1.28-.11,2.08-.32v5.28Zm-11.04-21.2c-.85,.64-1.97,1.1-3.36,1.39-1.39,.29-2.84,.53-4.36,.72-1.52,.19-3.05,.4-4.6,.64-1.55,.24-2.93,.62-4.16,1.15-1.23,.53-2.23,1.29-3,2.27-.77,.98-1.16,2.32-1.16,4.02,0,1.12,.23,2.06,.68,2.83s1.04,1.39,1.76,1.87c.72,.48,1.56,.82,2.52,1.04s1.97,.32,3.04,.32c2.24,0,4.16-.3,5.76-.92,1.6-.61,2.91-1.38,3.92-2.31,1.01-.93,1.76-1.94,2.24-3.03,.48-1.09,.72-2.11,.72-3.06v-6.93Z"/><path d="M452.91,496.88v6.08h.16c3.09-4.69,7.55-7.04,13.36-7.04,2.56,0,4.88,.53,6.96,1.6,2.08,1.07,3.55,2.88,4.4,5.44,1.39-2.24,3.21-3.97,5.48-5.2,2.27-1.23,4.76-1.84,7.48-1.84,2.08,0,3.96,.23,5.64,.68s3.12,1.16,4.32,2.12c1.2,.96,2.13,2.2,2.8,3.72,.67,1.52,1,3.35,1,5.48v30.32h-6.8v-27.12c0-1.28-.11-2.48-.32-3.6-.21-1.12-.61-2.09-1.2-2.92-.59-.83-1.4-1.48-2.44-1.96-1.04-.48-2.39-.72-4.04-.72-3.36,0-6,.96-7.92,2.88-1.92,1.92-2.88,4.48-2.88,7.68v25.76h-6.8v-27.12c0-1.33-.12-2.56-.36-3.68-.24-1.12-.65-2.09-1.24-2.92-.59-.83-1.37-1.47-2.36-1.92-.99-.45-2.25-.68-3.8-.68-1.97,0-3.67,.4-5.08,1.2-1.41,.8-2.56,1.76-3.44,2.88-.88,1.12-1.52,2.28-1.92,3.48-.4,1.2-.6,2.2-.6,3v25.76h-6.8v-41.36h6.4Z"/></g></svg>