<?xml version="1.0" encoding="UTF-8"?><svg id="Layer_2" xmlns="http://www.w3.org/2000/svg" viewBox="0 0 489.53 538.2"><g id="Layer_1-2"><g><path d="M251.25,57.27L229.06,0h8.2l14.88,41.6c1.2,3.33,2.2,6.46,3.01,9.38,.88-3.12,1.91-6.25,3.09-9.38L273.71,0h7.73l-22.42,57.27h-7.77Z"/><path d="M285.94,8.09V0h7.03V8.09h-7.03Zm0,49.18V15.78h7.03V57.27h-7.03Z"/><path d="M300.86,44.88l6.95-1.09c.39,2.79,1.48,4.92,3.26,6.41s4.28,2.23,7.48,2.23,5.62-.66,7.19-1.97c1.56-1.31,2.34-2.86,2.34-4.63,0-1.59-.69-2.84-2.07-3.75-.96-.62-3.36-1.42-7.19-2.38-5.16-1.3-8.73-2.43-10.72-3.38-1.99-.95-3.5-2.27-4.53-3.95s-1.54-3.54-1.54-5.57c0-1.85,.42-3.56,1.27-5.14,.85-1.58,2-2.88,3.46-3.93,1.09-.81,2.58-1.49,4.47-2.05,1.89-.56,3.91-.84,6.07-.84,3.26,0,6.11,.47,8.57,1.41s4.28,2.21,5.45,3.81,1.98,3.74,2.42,6.43l-6.88,.94c-.31-2.13-1.22-3.8-2.71-5-1.5-1.2-3.61-1.8-6.35-1.8-3.23,0-5.53,.53-6.91,1.6-1.38,1.07-2.07,2.32-2.07,3.75,0,.91,.29,1.73,.86,2.46,.57,.76,1.47,1.38,2.7,1.88,.7,.26,2.77,.86,6.21,1.8,4.97,1.33,8.44,2.42,10.41,3.26,1.97,.85,3.51,2.08,4.63,3.69,1.12,1.62,1.68,3.62,1.68,6.02s-.68,4.55-2.05,6.62-3.34,3.67-5.92,4.8-5.49,1.7-8.75,1.7c-5.39,0-9.5-1.12-12.32-3.36-2.83-2.24-4.63-5.56-5.41-9.96Z"/><path d="M370.86,57.27v-6.09c-3.23,4.69-7.62,7.03-13.16,7.03-2.45,0-4.73-.47-6.86-1.41s-3.7-2.12-4.73-3.54c-1.03-1.42-1.75-3.16-2.17-5.21-.29-1.38-.43-3.57-.43-6.56V15.78h7.03v23.01c0,3.67,.14,6.15,.43,7.42,.44,1.85,1.38,3.3,2.81,4.36s3.2,1.58,5.31,1.58,4.09-.54,5.94-1.62c1.85-1.08,3.16-2.55,3.93-4.41,.77-1.86,1.15-4.56,1.15-8.11V15.78h7.03V57.27h-6.29Z"/><path d="M415.23,52.15c-2.6,2.21-5.11,3.78-7.52,4.69s-4.99,1.37-7.75,1.37c-4.56,0-8.06-1.11-10.51-3.34s-3.67-5.07-3.67-8.54c0-2.03,.46-3.89,1.39-5.57s2.13-3.03,3.63-4.04,3.18-1.78,5.06-2.3c1.38-.36,3.46-.72,6.25-1.05,5.68-.68,9.86-1.48,12.54-2.42,.03-.96,.04-1.58,.04-1.84,0-2.86-.66-4.88-1.99-6.05-1.8-1.59-4.47-2.38-8.01-2.38-3.31,0-5.75,.58-7.32,1.74-1.58,1.16-2.74,3.21-3.5,6.15l-6.88-.94c.62-2.94,1.65-5.32,3.09-7.13,1.43-1.81,3.5-3.2,6.21-4.18s5.85-1.46,9.41-1.46,6.42,.42,8.63,1.25c2.21,.83,3.84,1.88,4.88,3.14,1.04,1.26,1.77,2.86,2.19,4.79,.23,1.2,.35,3.36,.35,6.48v9.38c0,6.54,.15,10.67,.45,12.4,.3,1.73,.89,3.39,1.78,4.98h-7.34c-.73-1.46-1.2-3.16-1.41-5.12Zm-.59-15.7c-2.55,1.04-6.38,1.93-11.48,2.66-2.89,.42-4.94,.89-6.13,1.41-1.2,.52-2.12,1.28-2.77,2.29-.65,1-.98,2.12-.98,3.34,0,1.88,.71,3.44,2.13,4.69s3.5,1.88,6.23,1.88,5.12-.59,7.23-1.78c2.11-1.18,3.66-2.81,4.65-4.86,.76-1.59,1.13-3.93,1.13-7.03v-2.58Z"/><path d="M432.5,57.27V0h7.03V57.27h-7.03Z"/></g><path d="M403.79,135.34c-2.58-2.32-4.51-4.84-5.8-7.58s-1.93-5.69-1.93-8.87c0-5.86,1.98-10.51,5.94-13.95,3.23-2.79,6.84-4.18,10.82-4.18,3.54,0,6.74,1.14,9.59,3.42s5.36,5.68,7.52,10.21c2.97-2.58,5.38-4.3,7.23-5.16,1.85-.86,3.63-1.29,5.35-1.29,3.44,0,6.43,1.35,8.96,4.04s3.81,6.09,3.81,10.18-1.2,7.1-3.59,9.59c-2.4,2.49-5.27,3.73-8.63,3.73-5.44,0-10.09-3.61-13.95-10.82l-13.09,10.27c2.29,1.17,4.95,2.08,7.97,2.73l-1.56,7.3c-5-1.25-9.12-2.94-12.34-5.08-3.49,2.63-6.42,5.61-8.79,8.95l-5.59-4.73c1.82-2.84,4.52-5.77,8.09-8.79Zm5.55-4.41l15.98-12.89c-2.27-3.8-4.37-6.37-6.31-7.7-1.94-1.33-3.86-1.99-5.76-1.99-2.32,0-4.73,.92-7.23,2.77s-3.75,4.47-3.75,7.85c0,2.11,.66,4.29,1.97,6.54,1.31,2.25,3.01,4.06,5.1,5.41Zm24.3-9.88c1.8,3.05,3.37,5.02,4.73,5.92,1.35,.9,2.85,1.35,4.49,1.35,1.95,0,3.55-.62,4.79-1.86,1.24-1.24,1.86-2.78,1.86-4.63s-.61-3.48-1.84-4.75c-1.22-1.26-2.72-1.89-4.49-1.89-.89,0-1.82,.23-2.79,.68s-2.01,1.14-3.11,2.05l-3.63,3.12Z"/><g><path d="M37.46,192h7.58v33.09c0,5.76-.65,10.33-1.95,13.71-1.3,3.39-3.65,6.14-7.05,8.26-3.4,2.12-7.86,3.18-13.38,3.18s-9.75-.92-13.16-2.77-5.85-4.52-7.3-8.03c-1.46-3.5-2.19-8.29-2.19-14.36v-33.09H7.58v33.05c0,4.97,.46,8.64,1.39,11,.92,2.36,2.51,4.17,4.77,5.45,2.25,1.28,5.01,1.91,8.26,1.91,5.57,0,9.54-1.26,11.91-3.79,2.37-2.53,3.55-7.38,3.55-14.57v-33.05Z"/><path d="M51.84,249.27l22.15-29.84-19.53-27.42h9.02l10.39,14.69c2.16,3.05,3.7,5.39,4.61,7.03,1.28-2.08,2.79-4.26,4.53-6.52l11.52-15.2h8.24l-20.12,26.99,21.68,30.27h-9.38l-14.41-20.43c-.81-1.17-1.64-2.45-2.5-3.83-1.28,2.08-2.19,3.52-2.73,4.3l-14.38,19.96h-9.1Z"/><path d="M104.84,250.24l16.6-59.22h5.62l-16.56,59.22h-5.66Z"/><path d="M170.82,192h7.58v33.09c0,5.76-.65,10.33-1.95,13.71-1.3,3.39-3.65,6.14-7.05,8.26-3.4,2.12-7.86,3.18-13.38,3.18s-9.75-.92-13.16-2.77-5.85-4.52-7.3-8.03c-1.46-3.5-2.19-8.29-2.19-14.36v-33.09h7.58v33.05c0,4.97,.46,8.64,1.39,11,.92,2.36,2.51,4.17,4.77,5.45,2.25,1.28,5.01,1.91,8.26,1.91,5.57,0,9.54-1.26,11.91-3.79,2.37-2.53,3.55-7.38,3.55-14.57v-33.05Z"/><path d="M192.3,249.27v-57.27h7.58v57.27h-7.58Z"/><path d="M261.48,249.27v-5.23c-2.63,4.12-6.5,6.17-11.6,6.17-3.31,0-6.35-.91-9.12-2.73s-4.92-4.37-6.45-7.64c-1.52-3.27-2.29-7.02-2.29-11.27s.69-7.9,2.07-11.27c1.38-3.37,3.45-5.96,6.21-7.75s5.85-2.7,9.26-2.7c2.5,0,4.73,.53,6.68,1.58s3.54,2.43,4.77,4.12v-20.55h6.99v57.27h-6.52Zm-22.23-20.7c0,5.31,1.12,9.28,3.36,11.91,2.24,2.63,4.88,3.95,7.93,3.95s5.68-1.26,7.83-3.77c2.15-2.51,3.22-6.35,3.22-11.5,0-5.68-1.09-9.84-3.28-12.5s-4.88-3.98-8.09-3.98-5.74,1.28-7.83,3.83c-2.1,2.55-3.14,6.58-3.14,12.07Z"/><path d="M307.46,235.91l7.27,.9c-1.15,4.25-3.27,7.54-6.37,9.88s-7.06,3.52-11.88,3.52c-6.07,0-10.88-1.87-14.43-5.61-3.55-3.74-5.33-8.98-5.33-15.72s1.8-12.4,5.39-16.25c3.59-3.85,8.26-5.78,13.98-5.78s10.08,1.89,13.59,5.66c3.52,3.78,5.27,9.09,5.27,15.94,0,.42-.01,1.04-.04,1.88h-30.94c.26,4.56,1.55,8.05,3.87,10.47s5.21,3.63,8.67,3.63c2.58,0,4.78-.68,6.6-2.03,1.82-1.35,3.27-3.52,4.34-6.48Zm-23.09-11.37h23.16c-.31-3.49-1.2-6.11-2.66-7.85-2.24-2.71-5.14-4.06-8.71-4.06-3.23,0-5.94,1.08-8.14,3.24-2.2,2.16-3.42,5.05-3.65,8.67Z"/><path d="M320.74,236.88l6.95-1.09c.39,2.79,1.48,4.92,3.26,6.41s4.28,2.23,7.48,2.23,5.62-.66,7.19-1.97c1.56-1.31,2.34-2.86,2.34-4.63,0-1.59-.69-2.84-2.07-3.75-.96-.62-3.36-1.42-7.19-2.38-5.16-1.3-8.73-2.43-10.72-3.38-1.99-.95-3.5-2.27-4.53-3.95s-1.54-3.54-1.54-5.57c0-1.85,.42-3.56,1.27-5.14,.85-1.58,2-2.88,3.46-3.93,1.09-.81,2.58-1.49,4.47-2.05,1.89-.56,3.91-.84,6.07-.84,3.26,0,6.11,.47,8.57,1.41s4.28,2.21,5.45,3.81,1.98,3.74,2.42,6.43l-6.88,.94c-.31-2.13-1.22-3.8-2.71-5-1.5-1.2-3.61-1.8-6.35-1.8-3.23,0-5.53,.53-6.91,1.6-1.38,1.07-2.07,2.32-2.07,3.75,0,.91,.29,1.73,.86,2.46,.57,.76,1.47,1.38,2.7,1.88,.7,.26,2.77,.86,6.21,1.8,4.97,1.33,8.44,2.42,10.41,3.26,1.97,.85,3.51,2.08,4.63,3.69,1.12,1.62,1.68,3.62,1.68,6.02s-.68,4.55-2.05,6.62-3.34,3.67-5.92,4.8-5.49,1.7-8.75,1.7c-5.39,0-9.5-1.12-12.32-3.36-2.83-2.24-4.63-5.56-5.41-9.96Z"/><path d="M363.59,200.09v-8.09h7.03v8.09h-7.03Zm0,49.18v-41.48h7.03v41.48h-7.03Z"/><path d="M380.04,252.7l6.84,1.02c.29,2.11,1.08,3.65,2.38,4.61,1.74,1.3,4.13,1.95,7.15,1.95,3.26,0,5.77-.65,7.54-1.95,1.77-1.3,2.97-3.12,3.59-5.47,.37-1.43,.53-4.44,.51-9.02-3.07,3.62-6.9,5.43-11.48,5.43-5.7,0-10.12-2.06-13.24-6.17-3.12-4.11-4.69-9.05-4.69-14.8,0-3.96,.72-7.61,2.15-10.96,1.43-3.35,3.51-5.93,6.23-7.75,2.72-1.82,5.92-2.73,9.59-2.73,4.9,0,8.93,1.98,12.11,5.94v-5h6.48v35.86c0,6.46-.66,11.04-1.97,13.73s-3.4,4.82-6.25,6.39-6.36,2.34-10.53,2.34c-4.95,0-8.95-1.11-11.99-3.34-3.05-2.23-4.52-5.58-4.41-10.06Zm5.82-24.92c0,5.44,1.08,9.41,3.24,11.91s4.87,3.75,8.12,3.75,5.94-1.24,8.12-3.73c2.19-2.49,3.28-6.39,3.28-11.7s-1.13-8.91-3.38-11.48-4.97-3.87-8.14-3.87-5.78,1.27-7.97,3.81-3.28,6.31-3.28,11.31Z"/><path d="M425.82,249.27v-41.48h6.33v5.9c3.05-4.56,7.45-6.84,13.2-6.84,2.5,0,4.8,.45,6.89,1.35s3.67,2.08,4.71,3.54c1.04,1.46,1.77,3.19,2.19,5.2,.26,1.3,.39,3.58,.39,6.84v25.51h-7.03v-25.23c0-2.86-.27-5.01-.82-6.43-.55-1.42-1.52-2.55-2.91-3.4-1.39-.85-3.03-1.27-4.9-1.27-2.99,0-5.58,.95-7.75,2.85-2.17,1.9-3.26,5.51-3.26,10.82v22.66h-7.03Z"/></g><g><path d="M210.16,332.88l6.95-1.09c.39,2.79,1.48,4.92,3.26,6.41s4.28,2.23,7.48,2.23,5.62-.66,7.19-1.97c1.56-1.31,2.34-2.86,2.34-4.63,0-1.59-.69-2.84-2.07-3.75-.96-.62-3.36-1.42-7.19-2.38-5.16-1.3-8.73-2.43-10.72-3.38-1.99-.95-3.5-2.27-4.53-3.95s-1.54-3.54-1.54-5.57c0-1.85,.42-3.56,1.27-5.14,.85-1.58,2-2.88,3.46-3.93,1.09-.81,2.58-1.49,4.47-2.05,1.89-.56,3.91-.84,6.07-.84,3.26,0,6.11,.47,8.57,1.41s4.28,2.21,5.45,3.81,1.98,3.74,2.42,6.43l-6.88,.94c-.31-2.13-1.22-3.8-2.71-5-1.5-1.2-3.61-1.8-6.35-1.8-3.23,0-5.53,.53-6.91,1.6-1.38,1.07-2.07,2.32-2.07,3.75,0,.91,.29,1.73,.86,2.46,.57,.76,1.47,1.38,2.7,1.88,.7,.26,2.77,.86,6.21,1.8,4.97,1.33,8.44,2.42,10.41,3.26,1.97,.85,3.51,2.08,4.63,3.69,1.12,1.62,1.68,3.62,1.68,6.02s-.68,4.55-2.05,6.62-3.34,3.67-5.92,4.8-5.49,1.7-8.75,1.7c-5.39,0-9.5-1.12-12.32-3.36-2.83-2.24-4.63-5.56-5.41-9.96Z"/><path d="M268.32,338.98l1.02,6.21c-1.98,.42-3.75,.62-5.31,.62-2.55,0-4.53-.4-5.94-1.21s-2.4-1.87-2.97-3.18c-.57-1.31-.86-4.08-.86-8.3v-23.87h-5.16v-5.47h5.16v-10.27l6.99-4.22v14.49h7.07v5.47h-7.07v24.26c0,2.01,.12,3.29,.37,3.87,.25,.57,.65,1.03,1.21,1.37,.56,.34,1.36,.51,2.4,.51,.78,0,1.81-.09,3.09-.27Z"/><path d="M302.38,345.27v-6.09c-3.23,4.69-7.62,7.03-13.16,7.03-2.45,0-4.73-.47-6.86-1.41s-3.7-2.12-4.73-3.54c-1.03-1.42-1.75-3.16-2.17-5.21-.29-1.38-.43-3.57-.43-6.56v-25.7h7.03v23.01c0,3.67,.14,6.15,.43,7.42,.44,1.85,1.38,3.3,2.81,4.36s3.2,1.58,5.31,1.58,4.09-.54,5.94-1.62c1.85-1.08,3.16-2.55,3.93-4.41,.77-1.86,1.15-4.56,1.15-8.11v-22.23h7.03v41.48h-6.29Z"/><path d="M346.6,345.27v-5.23c-2.63,4.12-6.5,6.17-11.6,6.17-3.31,0-6.35-.91-9.12-2.73s-4.92-4.37-6.45-7.64c-1.52-3.27-2.29-7.02-2.29-11.27s.69-7.9,2.07-11.27c1.38-3.37,3.45-5.96,6.21-7.75s5.85-2.7,9.26-2.7c2.5,0,4.73,.53,6.68,1.58s3.54,2.43,4.77,4.12v-20.55h6.99v57.27h-6.52Zm-22.23-20.7c0,5.31,1.12,9.28,3.36,11.91,2.24,2.63,4.88,3.95,7.93,3.95s5.68-1.26,7.83-3.77c2.15-2.51,3.22-6.35,3.22-11.5,0-5.68-1.09-9.84-3.28-12.5s-4.88-3.98-8.09-3.98-5.74,1.28-7.83,3.83c-2.1,2.55-3.14,6.58-3.14,12.07Z"/><path d="M392.58,331.91l7.27,.9c-1.15,4.25-3.27,7.54-6.37,9.88s-7.06,3.52-11.88,3.52c-6.07,0-10.88-1.87-14.43-5.61-3.55-3.74-5.33-8.98-5.33-15.72s1.8-12.4,5.39-16.25c3.59-3.85,8.26-5.78,13.98-5.78s10.08,1.89,13.59,5.66c3.52,3.78,5.27,9.09,5.27,15.94,0,.42-.01,1.04-.04,1.88h-30.94c.26,4.56,1.55,8.05,3.87,10.47s5.21,3.63,8.67,3.63c2.58,0,4.78-.68,6.6-2.03,1.82-1.35,3.27-3.52,4.34-6.48Zm-23.09-11.37h23.16c-.31-3.49-1.2-6.11-2.66-7.85-2.24-2.71-5.14-4.06-8.71-4.06-3.23,0-5.94,1.08-8.14,3.24-2.2,2.16-3.42,5.05-3.65,8.67Z"/><path d="M408.67,345.27v-41.48h6.33v5.9c3.05-4.56,7.45-6.84,13.2-6.84,2.5,0,4.8,.45,6.89,1.35s3.67,2.08,4.71,3.54c1.04,1.46,1.77,3.19,2.19,5.2,.26,1.3,.39,3.58,.39,6.84v25.51h-7.03v-25.23c0-2.86-.27-5.01-.82-6.43-.55-1.42-1.52-2.55-2.91-3.4-1.39-.85-3.03-1.27-4.9-1.27-2.99,0-5.58,.95-7.75,2.85-2.17,1.9-3.26,5.51-3.26,10.82v22.66h-7.03Z"/><path d="M468.52,338.98l1.02,6.21c-1.98,.42-3.75,.62-5.31,.62-2.55,0-4.53-.4-5.94-1.21s-2.4-1.87-2.97-3.18c-.57-1.31-.86-4.08-.86-8.3v-23.87h-5.16v-5.47h5.16v-10.27l6.99-4.22v14.49h7.07v5.47h-7.07v24.26c0,2.01,.12,3.29,.37,3.87,.25,.57,.65,1.03,1.21,1.37,.56,.34,1.36,.51,2.4,.51,.78,0,1.81-.09,3.09-.27Z"/></g><g><path d="M331.64,441.27v-36.02h-6.21v-5.47h6.21v-4.41c0-2.79,.25-4.86,.74-6.21,.68-1.82,1.87-3.3,3.57-4.43s4.1-1.7,7.17-1.7c1.98,0,4.17,.23,6.56,.7l-1.05,6.13c-1.46-.26-2.84-.39-4.14-.39-2.13,0-3.65,.46-4.53,1.37-.88,.91-1.33,2.62-1.33,5.12v3.83h8.09v5.47h-8.09v36.02h-6.99Z"/><path d="M352.11,441.27v-41.48h6.33v6.29c1.62-2.94,3.11-4.88,4.47-5.82s2.87-1.41,4.51-1.41c2.37,0,4.78,.76,7.23,2.27l-2.42,6.52c-1.72-1.02-3.44-1.52-5.16-1.52-1.54,0-2.92,.46-4.14,1.39-1.22,.92-2.1,2.21-2.62,3.85-.78,2.5-1.17,5.23-1.17,8.2v21.72h-7.03Z"/><path d="M376.21,420.52c0-7.68,2.13-13.37,6.41-17.07,3.57-3.07,7.92-4.61,13.05-4.61,5.7,0,10.37,1.87,13.98,5.61,3.62,3.74,5.43,8.9,5.43,15.49,0,5.34-.8,9.54-2.4,12.6-1.6,3.06-3.93,5.44-6.99,7.13s-6.4,2.54-10.02,2.54c-5.81,0-10.5-1.86-14.08-5.59-3.58-3.72-5.37-9.09-5.37-16.09Zm7.23,0c0,5.31,1.16,9.29,3.48,11.93,2.32,2.64,5.23,3.96,8.75,3.96s6.39-1.33,8.71-3.98,3.48-6.71,3.48-12.15c0-5.13-1.17-9.02-3.5-11.66-2.33-2.64-5.23-3.96-8.69-3.96s-6.43,1.32-8.75,3.95c-2.32,2.63-3.48,6.6-3.48,11.91Z"/><path d="M423.32,441.27v-41.48h6.29v5.82c1.3-2.03,3.03-3.67,5.2-4.9,2.16-1.24,4.62-1.86,7.38-1.86,3.07,0,5.59,.64,7.56,1.91,1.97,1.28,3.35,3.06,4.16,5.35,3.28-4.84,7.55-7.27,12.81-7.27,4.12,0,7.28,1.14,9.49,3.42,2.21,2.28,3.32,5.79,3.32,10.53v28.48h-6.99v-26.13c0-2.81-.23-4.84-.68-6.07-.46-1.24-1.28-2.23-2.48-2.99-1.2-.75-2.6-1.13-4.22-1.13-2.92,0-5.34,.97-7.27,2.91-1.93,1.94-2.89,5.05-2.89,9.32v24.1h-7.03v-26.95c0-3.12-.57-5.47-1.72-7.03s-3.02-2.34-5.62-2.34c-1.98,0-3.81,.52-5.49,1.56-1.68,1.04-2.9,2.57-3.65,4.57-.76,2.01-1.13,4.9-1.13,8.67v21.52h-7.03Z"/></g><g><path d="M85.59,537.27l21.99-57.27h8.16l23.44,57.27h-8.63l-6.68-17.34h-23.95l-6.29,17.34h-8.05Zm16.52-23.52h19.41l-5.98-15.86c-1.82-4.82-3.18-8.78-4.06-11.88-.73,3.67-1.76,7.32-3.09,10.94l-6.29,16.8Z"/><path d="M144.34,537.27v-41.48h6.29v5.82c1.3-2.03,3.03-3.67,5.2-4.9,2.16-1.24,4.62-1.86,7.38-1.86,3.07,0,5.59,.64,7.56,1.91,1.97,1.28,3.35,3.06,4.16,5.35,3.28-4.84,7.55-7.27,12.81-7.27,4.12,0,7.28,1.14,9.49,3.42,2.21,2.28,3.32,5.79,3.32,10.53v28.48h-6.99v-26.13c0-2.81-.23-4.84-.68-6.07-.46-1.24-1.28-2.23-2.48-2.99-1.2-.75-2.6-1.13-4.22-1.13-2.92,0-5.34,.97-7.27,2.91-1.93,1.94-2.89,5.05-2.89,9.32v24.1h-7.03v-26.95c0-3.12-.57-5.47-1.72-7.03s-3.02-2.34-5.62-2.34c-1.98,0-3.81,.52-5.49,1.56-1.68,1.04-2.9,2.57-3.65,4.57-.76,2.01-1.13,4.9-1.13,8.67v21.52h-7.03Z"/><path d="M208.16,524.88l6.95-1.09c.39,2.79,1.48,4.92,3.26,6.41s4.28,2.23,7.48,2.23,5.62-.66,7.19-1.97c1.56-1.31,2.34-2.86,2.34-4.63,0-1.59-.69-2.84-2.07-3.75-.96-.62-3.36-1.42-7.19-2.38-5.16-1.3-8.73-2.43-10.72-3.38-1.99-.95-3.5-2.27-4.53-3.95s-1.54-3.54-1.54-5.57c0-1.85,.42-3.56,1.27-5.14,.85-1.58,2-2.88,3.46-3.93,1.09-.81,2.58-1.49,4.47-2.05,1.89-.56,3.91-.84,6.07-.84,3.26,0,6.11,.47,8.57,1.41s4.28,2.21,5.45,3.81,1.98,3.74,2.42,6.43l-6.88,.94c-.31-2.13-1.22-3.8-2.71-5-1.5-1.2-3.61-1.8-6.35-1.8-3.23,0-5.53,.53-6.91,1.6-1.38,1.07-2.07,2.32-2.07,3.75,0,.91,.29,1.73,.86,2.46,.57,.76,1.47,1.38,2.7,1.88,.7,.26,2.77,.86,6.21,1.8,4.97,1.33,8.44,2.42,10.41,3.26,1.97,.85,3.51,2.08,4.63,3.69,1.12,1.62,1.68,3.62,1.68,6.02s-.68,4.55-2.05,6.62-3.34,3.67-5.92,4.8-5.49,1.7-8.75,1.7c-5.39,0-9.5-1.12-12.32-3.36-2.83-2.24-4.63-5.56-5.41-9.96Z"/><path d="M266.33,530.98l1.02,6.21c-1.98,.42-3.75,.62-5.31,.62-2.55,0-4.53-.4-5.94-1.21s-2.4-1.87-2.97-3.18c-.57-1.31-.86-4.08-.86-8.3v-23.87h-5.16v-5.47h5.16v-10.27l6.99-4.22v14.49h7.07v5.47h-7.07v24.26c0,2.01,.12,3.29,.37,3.87,.25,.57,.65,1.03,1.21,1.37,.56,.34,1.36,.51,2.4,.51,.78,0,1.81-.09,3.09-.27Z"/><path d="M301.6,523.91l7.27,.9c-1.15,4.25-3.27,7.54-6.37,9.88s-7.06,3.52-11.88,3.52c-6.07,0-10.88-1.87-14.43-5.61-3.55-3.74-5.33-8.98-5.33-15.72s1.8-12.4,5.39-16.25c3.59-3.85,8.26-5.78,13.98-5.78s10.08,1.89,13.59,5.66c3.52,3.78,5.27,9.09,5.27,15.94,0,.42-.01,1.04-.04,1.88h-30.94c.26,4.56,1.55,8.05,3.87,10.47s5.21,3.63,8.67,3.63c2.58,0,4.78-.68,6.6-2.03,1.82-1.35,3.27-3.52,4.34-6.48Zm-23.09-11.37h23.16c-.31-3.49-1.2-6.11-2.66-7.85-2.24-2.71-5.14-4.06-8.71-4.06-3.23,0-5.94,1.08-8.14,3.24-2.2,2.16-3.42,5.05-3.65,8.67Z"/><path d="M317.62,537.27v-41.48h6.33v6.29c1.62-2.94,3.11-4.88,4.47-5.82s2.87-1.41,4.51-1.41c2.37,0,4.78,.76,7.23,2.27l-2.42,6.52c-1.72-1.02-3.44-1.52-5.16-1.52-1.54,0-2.92,.46-4.14,1.39-1.22,.92-2.1,2.21-2.62,3.85-.78,2.5-1.17,5.23-1.17,8.2v21.72h-7.03Z"/><path d="M371.25,537.27v-5.23c-2.63,4.12-6.5,6.17-11.6,6.17-3.31,0-6.35-.91-9.12-2.73s-4.92-4.37-6.45-7.64c-1.52-3.27-2.29-7.02-2.29-11.27s.69-7.9,2.07-11.27c1.38-3.37,3.45-5.96,6.21-7.75s5.85-2.7,9.26-2.7c2.5,0,4.73,.53,6.68,1.58s3.54,2.43,4.77,4.12v-20.55h6.99v57.27h-6.52Zm-22.23-20.7c0,5.31,1.12,9.28,3.36,11.91,2.24,2.63,4.88,3.95,7.93,3.95s5.68-1.26,7.83-3.77c2.15-2.51,3.22-6.35,3.22-11.5,0-5.68-1.09-9.84-3.28-12.5s-4.88-3.98-8.09-3.98-5.74,1.28-7.83,3.83c-2.1,2.55-3.14,6.58-3.14,12.07Z"/><path d="M415.9,532.15c-2.6,2.21-5.11,3.78-7.52,4.69s-4.99,1.37-7.75,1.37c-4.56,0-8.06-1.11-10.51-3.34s-3.67-5.07-3.67-8.54c0-2.03,.46-3.89,1.39-5.57s2.13-3.03,3.63-4.04,3.18-1.78,5.06-2.3c1.38-.36,3.46-.72,6.25-1.05,5.68-.68,9.86-1.48,12.54-2.42,.03-.96,.04-1.58,.04-1.84,0-2.86-.66-4.88-1.99-6.05-1.8-1.59-4.47-2.38-8.01-2.38-3.31,0-5.75,.58-7.32,1.74-1.58,1.16-2.74,3.21-3.5,6.15l-6.88-.94c.62-2.94,1.65-5.32,3.09-7.13,1.43-1.81,3.5-3.2,6.21-4.18s5.85-1.46,9.41-1.46,6.42,.42,8.63,1.25c2.21,.83,3.84,1.88,4.88,3.14,1.04,1.26,1.77,2.86,2.19,4.79,.23,1.2,.35,3.36,.35,6.48v9.38c0,6.54,.15,10.67,.45,12.4,.3,1.73,.89,3.39,1.78,4.98h-7.34c-.73-1.46-1.2-3.16-1.41-5.12Zm-.59-15.7c-2.55,1.04-6.38,1.93-11.48,2.66-2.89,.42-4.94,.89-6.13,1.41-1.2,.52-2.12,1.28-2.77,2.29-.65,1-.98,2.12-.98,3.34,0,1.88,.71,3.44,2.13,4.69s3.5,1.88,6.23,1.88,5.12-.59,7.23-1.78c2.11-1.18,3.66-2.81,4.65-4.86,.76-1.59,1.13-3.93,1.13-7.03v-2.58Z"/><path d="M433.32,537.27v-41.48h6.29v5.82c1.3-2.03,3.03-3.67,5.2-4.9,2.16-1.24,4.62-1.86,7.38-1.86,3.07,0,5.59,.64,7.56,1.91,1.97,1.28,3.35,3.06,4.16,5.35,3.28-4.84,7.55-7.27,12.81-7.27,4.12,0,7.28,1.14,9.49,3.42,2.21,2.28,3.32,5.79,3.32,10.53v28.48h-6.99v-26.13c0-2.81-.23-4.84-.68-6.07-.46-1.24-1.28-2.23-2.48-2.99-1.2-.75-2.6-1.13-4.22-1.13-2.92,0-5.34,.97-7.27,2.91-1.93,1.94-2.89,5.05-2.89,9.32v24.1h-7.03v-26.95c0-3.12-.57-5.47-1.72-7.03s-3.02-2.34-5.62-2.34c-1.98,0-3.81,.52-5.49,1.56-1.68,1.04-2.9,2.57-3.65,4.57-.76,2.01-1.13,4.9-1.13,8.67v21.52h-7.03Z"/></g></g></svg>