<?xml version="1.0" encoding="utf-8"?>
<!-- Generator: Adobe Illustrator 26.3.1, SVG Export Plug-In . SVG Version: 6.00 Build 0)  -->
<svg version="1.1" id="Layer_1" xmlns="http://www.w3.org/2000/svg" xmlns:xlink="http://www.w3.org/1999/xlink" x="0px" y="0px"
	 viewBox="0 0 1319.1 439.7" style="enable-background:new 0 0 1319.1 439.7;" xml:space="preserve">
<style type="text/css">
	.st0{fill:#0309FE;}
	.st1{font-family:'ArialMT';}
	.st2{font-size:80px;}
</style>
<g>
	<path class="st0" d="M-2517.6-565.4v-5.5h50.7v5.5H-2517.6z"/>
	<path class="st0" d="M-2469.2-565.4v-5.5h50.7v5.5H-2469.2z"/>
	<path class="st0" d="M-2420.7-565.4v-5.5h50.7v5.5H-2420.7z"/>
	<path class="st0" d="M-2372.3-565.4v-5.5h50.7v5.5H-2372.3z"/>
	<path class="st0" d="M-2298-582.7l-24.2-62.4h8.9l16.2,45.3c1.3,3.6,2.4,7,3.3,10.2c1-3.4,2.1-6.8,3.4-10.2l16.9-45.3h8.4
		l-24.4,62.4H-2298z"/>
	<path class="st0" d="M-2260.2-636.3v-8.8h7.7v8.8H-2260.2z M-2260.2-582.7v-45.2h7.7v45.2H-2260.2z"/>
	<path class="st0" d="M-2244-596.2l7.6-1.2c0.4,3,1.6,5.4,3.6,7c1.9,1.6,4.7,2.4,8.1,2.4c3.5,0,6.1-0.7,7.8-2.1
		c1.7-1.4,2.6-3.1,2.6-5c0-1.7-0.8-3.1-2.3-4.1c-1-0.7-3.7-1.5-7.8-2.6c-5.6-1.4-9.5-2.6-11.7-3.7c-2.2-1-3.8-2.5-4.9-4.3
		s-1.7-3.8-1.7-6.1c0-2,0.5-3.9,1.4-5.6c0.9-1.7,2.2-3.1,3.8-4.3c1.2-0.9,2.8-1.6,4.9-2.2c2.1-0.6,4.3-0.9,6.6-0.9
		c3.5,0,6.7,0.5,9.3,1.5c2.7,1,4.7,2.4,5.9,4.1c1.3,1.7,2.2,4.1,2.6,7l-7.5,1c-0.3-2.3-1.3-4.1-3-5.4c-1.6-1.3-3.9-2-6.9-2
		c-3.5,0-6,0.6-7.5,1.7c-1.5,1.2-2.3,2.5-2.3,4.1c0,1,0.3,1.9,0.9,2.7c0.6,0.8,1.6,1.5,2.9,2c0.8,0.3,3,0.9,6.8,2
		c5.4,1.4,9.2,2.6,11.3,3.6s3.8,2.3,5,4c1.2,1.8,1.8,3.9,1.8,6.5s-0.7,5-2.2,7.2c-1.5,2.3-3.6,4-6.4,5.2c-2.8,1.2-6,1.9-9.5,1.9
		c-5.9,0-10.3-1.2-13.4-3.7C-2241.2-587.8-2243.1-591.4-2244-596.2z"/>
	<path class="st0" d="M-2167.8-582.7v-6.6c-3.5,5.1-8.3,7.7-14.3,7.7c-2.7,0-5.2-0.5-7.5-1.5s-4-2.3-5.1-3.8s-1.9-3.4-2.4-5.7
		c-0.3-1.5-0.5-3.9-0.5-7.1v-28h7.7v25.1c0,4,0.2,6.7,0.5,8.1c0.5,2,1.5,3.6,3.1,4.7c1.6,1.1,3.5,1.7,5.8,1.7s4.5-0.6,6.5-1.8
		s3.4-2.8,4.3-4.8c0.8-2,1.3-5,1.3-8.8v-24.4h7.7v45.2L-2167.8-582.7L-2167.8-582.7z"/>
	<path class="st0" d="M-2119.5-588.3c-2.8,2.4-5.6,4.1-8.2,5.1c-2.6,1-5.4,1.5-8.4,1.5c-5,0-8.8-1.2-11.4-3.6c-2.7-2.4-4-5.5-4-9.3
		c0-2.2,0.5-4.2,1.5-6.1c1-1.8,2.3-3.3,4-4.4c1.7-1.1,3.5-1.9,5.5-2.5c1.5-0.4,3.8-0.8,6.8-1.1c6.2-0.7,10.7-1.6,13.7-2.6
		c0-1,0-1.7,0-2c0-3.1-0.7-5.3-2.2-6.6c-2-1.7-4.9-2.6-8.7-2.6c-3.6,0-6.3,0.6-8,1.9c-1.7,1.3-3,3.5-3.8,6.7l-7.5-1
		c0.7-3.2,1.8-5.8,3.4-7.8s3.8-3.5,6.8-4.6c2.9-1.1,6.4-1.6,10.3-1.6c3.9,0,7,0.5,9.4,1.4s4.2,2,5.3,3.4s1.9,3.1,2.4,5.2
		c0.3,1.3,0.4,3.7,0.4,7.1v10.2c0,7.1,0.2,11.6,0.5,13.5s1,3.7,1.9,5.4h-8C-2118.7-584.3-2119.2-586.2-2119.5-588.3z M-2120.1-605.4
		c-2.8,1.1-6.9,2.1-12.5,2.9c-3.1,0.5-5.4,1-6.7,1.5c-1.3,0.6-2.3,1.4-3,2.5s-1.1,2.3-1.1,3.6c0,2,0.8,3.7,2.3,5.1
		c1.5,1.4,3.8,2,6.8,2c2.9,0,5.6-0.6,7.9-1.9c2.3-1.3,4-3.1,5.1-5.3c0.8-1.7,1.2-4.3,1.2-7.7V-605.4z"/>
	<path class="st0" d="M-2100.7-582.7v-62.4h7.7v62.4H-2100.7z"/>
	<path class="st0" d="M-2552.4-436h8.3v36c0,6.3-0.7,11.2-2.1,14.9c-1.4,3.7-4,6.7-7.7,9s-8.6,3.5-14.6,3.5c-5.8,0-10.6-1-14.3-3
		s-6.4-4.9-8-8.7c-1.6-3.8-2.4-9-2.4-15.6v-36h8.3v36c0,5.4,0.5,9.4,1.5,12s2.7,4.5,5.2,5.9s5.5,2.1,9,2.1c6.1,0,10.4-1.4,13-4.1
		c2.6-2.8,3.9-8,3.9-15.9L-2552.4-436L-2552.4-436z"/>
	<path class="st0" d="M-2536.8-373.7l24.1-32.5l-21.3-29.9h9.8l11.3,16c2.4,3.3,4,5.9,5,7.7c1.4-2.3,3-4.6,4.9-7.1l12.5-16.5h9
		l-21.9,29.4l23.6,33h-10.2l-15.5-22.3c-0.9-1.3-1.8-2.7-2.7-4.2c-1.4,2.3-2.4,3.8-3,4.7l-15.7,21.7L-2536.8-373.7L-2536.8-373.7z"
		/>
	<path class="st0" d="M-2479.1-372.6l18.1-64.5h6.1l-18,64.5H-2479.1z"/>
	<path class="st0" d="M-2407.2-436h8.3v36c0,6.3-0.7,11.2-2.1,14.9c-1.4,3.7-4,6.7-7.7,9s-8.6,3.5-14.6,3.5c-5.8,0-10.6-1-14.3-3
		s-6.4-4.9-8-8.7c-1.6-3.8-2.4-9-2.4-15.6v-36h8.3v36c0,5.4,0.5,9.4,1.5,12s2.7,4.5,5.2,5.9s5.5,2.1,9,2.1c6.1,0,10.4-1.4,13-4.1
		c2.6-2.8,3.9-8,3.9-15.9L-2407.2-436L-2407.2-436z"/>
	<path class="st0" d="M-2383.8-373.7v-62.4h8.3v62.4H-2383.8z"/>
	<path class="st0" d="M-2308.5-373.7v-5.7c-2.9,4.5-7.1,6.7-12.6,6.7c-3.6,0-6.9-1-9.9-3s-5.4-4.8-7-8.3c-1.7-3.6-2.5-7.6-2.5-12.3
		c0-4.5,0.8-8.6,2.3-12.3c1.5-3.7,3.8-6.5,6.8-8.4c3-2,6.4-2.9,10.1-2.9c2.7,0,5.1,0.6,7.3,1.7s3.9,2.6,5.2,4.5v-22.4h7.6v62.4
		L-2308.5-373.7L-2308.5-373.7z M-2332.7-396.2c0,5.8,1.2,10.1,3.7,13c2.4,2.9,5.3,4.3,8.6,4.3s6.2-1.4,8.5-4.1s3.5-6.9,3.5-12.5
		c0-6.2-1.2-10.7-3.6-13.6c-2.4-2.9-5.3-4.3-8.8-4.3c-3.4,0-6.2,1.4-8.5,4.2C-2331.6-406.6-2332.7-402.2-2332.7-396.2z"/>
	<path class="st0" d="M-2258.4-388.2l7.9,1c-1.2,4.6-3.6,8.2-6.9,10.8c-3.4,2.6-7.7,3.8-12.9,3.8c-6.6,0-11.8-2-15.7-6.1
		s-5.8-9.8-5.8-17.1c0-7.6,2-13.5,5.9-17.7s9-6.3,15.2-6.3c6,0,11,2.1,14.8,6.2s5.7,9.9,5.7,17.4c0,0.5,0,1.1,0,2h-33.7
		c0.3,5,1.7,8.8,4.2,11.4s5.7,4,9.4,4c2.8,0,5.2-0.7,7.2-2.2C-2261.2-382.7-2259.6-385-2258.4-388.2z M-2283.6-400.6h25.2
		c-0.3-3.8-1.3-6.6-2.9-8.5c-2.4-2.9-5.6-4.4-9.5-4.4c-3.5,0-6.5,1.2-8.9,3.5C-2282-407.7-2283.3-404.6-2283.6-400.6z"/>
	<path class="st0" d="M-2244-387.2l7.6-1.2c0.4,3,1.6,5.4,3.6,7c1.9,1.6,4.7,2.4,8.1,2.4c3.5,0,6.1-0.7,7.8-2.1s2.6-3.1,2.6-5
		c0-1.7-0.8-3.1-2.3-4.1c-1-0.7-3.7-1.5-7.8-2.6c-5.6-1.4-9.5-2.6-11.7-3.7c-2.2-1-3.8-2.5-4.9-4.3s-1.7-3.8-1.7-6.1
		c0-2,0.5-3.9,1.4-5.6s2.2-3.1,3.8-4.3c1.2-0.9,2.8-1.6,4.9-2.2c2.1-0.6,4.3-0.9,6.6-0.9c3.5,0,6.7,0.5,9.3,1.5
		c2.7,1,4.7,2.4,5.9,4.1c1.3,1.7,2.2,4.1,2.6,7l-7.5,1c-0.3-2.3-1.3-4.1-3-5.4c-1.6-1.3-3.9-2-6.9-2c-3.5,0-6,0.6-7.5,1.7
		c-1.5,1.2-2.3,2.5-2.3,4.1c0,1,0.3,1.9,0.9,2.7c0.6,0.8,1.6,1.5,2.9,2c0.8,0.3,3,0.9,6.8,2c5.4,1.4,9.2,2.6,11.3,3.6s3.8,2.3,5,4
		c1.2,1.8,1.8,3.9,1.8,6.5s-0.7,5-2.2,7.2c-1.5,2.3-3.6,4-6.4,5.2s-6,1.9-9.5,1.9c-5.9,0-10.3-1.2-13.4-3.7
		C-2241.2-378.8-2243.1-382.4-2244-387.2z"/>
	<path class="st0" d="M-2197.3-427.2v-8.8h7.7v8.8H-2197.3z M-2197.3-373.7v-45.2h7.7v45.2H-2197.3z"/>
	<path class="st0" d="M-2179.4-370l7.4,1.1c0.3,2.3,1.2,4,2.6,5c1.9,1.4,4.5,2.1,7.8,2.1c3.5,0,6.3-0.7,8.2-2.1s3.2-3.4,3.9-6
		c0.4-1.6,0.6-4.8,0.6-9.8c-3.3,3.9-7.5,5.9-12.5,5.9c-6.2,0-11-2.2-14.4-6.7s-5.1-9.9-5.1-16.1c0-4.3,0.8-8.3,2.3-11.9
		c1.6-3.6,3.8-6.5,6.8-8.4c3-2,6.4-3,10.4-3c5.3,0,9.7,2.2,13.2,6.5v-5.4h7.1v39c0,7-0.7,12-2.1,14.9c-1.4,2.9-3.7,5.3-6.8,7
		s-6.9,2.6-11.5,2.6c-5.4,0-9.7-1.2-13.1-3.6C-2178-361.3-2179.5-365.1-2179.4-370z M-2173.1-397.1c0,5.9,1.2,10.3,3.5,13
		c2.4,2.7,5.3,4.1,8.8,4.1s6.5-1.4,8.8-4.1c2.4-2.7,3.6-7,3.6-12.7c0-5.5-1.2-9.7-3.7-12.5s-5.4-4.2-8.9-4.2c-3.4,0-6.3,1.4-8.7,4.1
		C-2171.9-406.6-2173.1-402.5-2173.1-397.1z"/>
	<path class="st0" d="M-2129.6-373.7v-45.2h6.9v6.4c3.3-5,8.1-7.4,14.4-7.4c2.7,0,5.2,0.5,7.5,1.5s4,2.3,5.1,3.8
		c1.1,1.6,1.9,3.5,2.4,5.7c0.3,1.4,0.4,3.9,0.4,7.4v27.8h-7.6v-27.5c0-3.1-0.3-5.5-0.9-7c-0.6-1.5-1.7-2.8-3.2-3.7s-3.3-1.4-5.3-1.4
		c-3.3,0-6.1,1-8.4,3.1c-2.4,2.1-3.6,6-3.6,11.8v24.7L-2129.6-373.7L-2129.6-373.7z"/>
	<path class="st0" d="M-2369.9-282.7l7.6-1.2c0.4,3,1.6,5.4,3.6,7c1.9,1.6,4.7,2.4,8.1,2.4c3.5,0,6.1-0.7,7.8-2.1s2.6-3.1,2.6-5
		c0-1.7-0.8-3.1-2.3-4.1c-1-0.7-3.7-1.5-7.8-2.6c-5.6-1.4-9.5-2.6-11.7-3.7c-2.2-1-3.8-2.5-4.9-4.3c-1.1-1.8-1.7-3.8-1.7-6.1
		c0-2,0.5-3.9,1.4-5.6s2.2-3.1,3.8-4.3c1.2-0.9,2.8-1.6,4.9-2.2s4.3-0.9,6.6-0.9c3.5,0,6.7,0.5,9.3,1.5c2.7,1,4.7,2.4,5.9,4.1
		c1.3,1.7,2.2,4.1,2.6,7l-7.5,1c-0.3-2.3-1.3-4.1-3-5.4c-1.6-1.3-3.9-2-6.9-2c-3.5,0-6,0.6-7.5,1.7c-1.5,1.2-2.3,2.5-2.3,4.1
		c0,1,0.3,1.9,0.9,2.7c0.6,0.8,1.6,1.5,2.9,2c0.8,0.3,3,0.9,6.8,2c5.4,1.4,9.2,2.6,11.3,3.6c2.1,0.9,3.8,2.3,5,4
		c1.2,1.8,1.8,3.9,1.8,6.5s-0.7,5-2.2,7.2s-3.6,4-6.4,5.2c-2.8,1.2-6,1.8-9.5,1.8c-5.9,0-10.3-1.2-13.4-3.7
		C-2367.1-274.2-2369.1-277.9-2369.9-282.7z"/>
	<path class="st0" d="M-2306.6-276l1.1,6.8c-2.2,0.5-4.1,0.7-5.8,0.7c-2.8,0-4.9-0.4-6.5-1.3c-1.5-0.9-2.6-2-3.2-3.5
		c-0.6-1.4-0.9-4.4-0.9-9v-26h-5.6v-6h5.6v-11.2l7.6-4.6v15.8h7.7v6h-7.7v26.4c0,2.2,0.1,3.6,0.4,4.2c0.3,0.6,0.7,1.1,1.3,1.5
		s1.5,0.6,2.6,0.6C-2309.1-275.7-2308-275.8-2306.6-276z"/>
	<path class="st0" d="M-2269.5-269.2v-6.6c-3.5,5.1-8.3,7.7-14.3,7.7c-2.7,0-5.2-0.5-7.5-1.5s-4-2.3-5.1-3.8s-1.9-3.4-2.4-5.7
		c-0.3-1.5-0.5-3.9-0.5-7.1v-28h7.7v25.1c0,4,0.2,6.7,0.5,8.1c0.5,2,1.5,3.6,3.1,4.7s3.5,1.7,5.8,1.7s4.5-0.6,6.5-1.8
		c2-1.2,3.4-2.8,4.3-4.8c0.8-2,1.3-5,1.3-8.8v-24.2h7.7v45.2h-7.1V-269.2z"/>
	<path class="st0" d="M-2221.4-269.2v-5.7c-2.9,4.5-7.1,6.7-12.6,6.7c-3.6,0-6.9-1-9.9-3s-5.4-4.8-7-8.3c-1.7-3.6-2.5-7.6-2.5-12.3
		c0-4.5,0.8-8.6,2.3-12.3c1.5-3.7,3.8-6.5,6.8-8.4c3-2,6.4-2.9,10.1-2.9c2.7,0,5.1,0.6,7.3,1.7c2.1,1.1,3.9,2.6,5.2,4.5v-22.3h7.6
		v62.4h-7.3L-2221.4-269.2L-2221.4-269.2z M-2245.6-291.7c0,5.8,1.2,10.1,3.7,13s5.3,4.3,8.6,4.3s6.2-1.4,8.5-4.1s3.5-6.9,3.5-12.5
		c0-6.2-1.2-10.7-3.6-13.6c-2.4-2.9-5.3-4.3-8.8-4.3c-3.4,0-6.2,1.4-8.5,4.2C-2244.4-302.1-2245.6-297.7-2245.6-291.7z"/>
	<path class="st0" d="M-2171.3-283.7l7.9,1c-1.2,4.6-3.6,8.2-6.9,10.8c-3.4,2.6-7.7,3.8-12.9,3.8c-6.6,0-11.8-2-15.7-6.1
		s-5.8-9.8-5.8-17.1c0-7.6,2-13.5,5.9-17.7s9-6.3,15.2-6.3c6,0,11,2.1,14.8,6.2s5.7,9.9,5.7,17.4c0,0.5,0,1.1,0,2h-33.7
		c0.3,5,1.7,8.8,4.2,11.4s5.7,4,9.4,4c2.8,0,5.2-0.7,7.2-2.2C-2174-278.1-2172.5-280.5-2171.3-283.7z M-2196.4-296.1h25.2
		c-0.3-3.8-1.3-6.6-2.9-8.5c-2.4-2.9-5.6-4.4-9.5-4.4c-3.5,0-6.5,1.2-8.9,3.5S-2196.2-300-2196.4-296.1z"/>
	<path class="st0" d="M-2153.8-269.2v-45.2h6.9v6.4c3.3-5,8.1-7.4,14.4-7.4c2.7,0,5.2,0.5,7.5,1.5s4,2.3,5.1,3.8
		c1.1,1.6,1.9,3.5,2.4,5.7c0.3,1.4,0.4,3.9,0.4,7.4v27.8h-7.7v-27.5c0-3.1-0.3-5.5-0.9-7c-0.6-1.5-1.7-2.8-3.2-3.7
		c-1.5-0.9-3.3-1.4-5.3-1.4c-3.3,0-6.1,1-8.4,3.1c-2.4,2.1-3.6,6-3.6,11.8v24.7L-2153.8-269.2L-2153.8-269.2z"/>
	<path class="st0" d="M-2088.6-276l1.1,6.8c-2.2,0.5-4.1,0.7-5.8,0.7c-2.8,0-4.9-0.4-6.5-1.3c-1.5-0.9-2.6-2-3.2-3.5
		c-0.6-1.4-0.9-4.4-0.9-9v-26h-5.6v-6h5.6v-11.2l7.6-4.6v15.8h7.7v6h-7.7v26.4c0,2.2,0.1,3.6,0.4,4.2s0.7,1.1,1.3,1.5
		s1.5,0.6,2.6,0.6C-2091.1-275.7-2090-275.8-2088.6-276z"/>
	<path class="st0" d="M-2553.1-147.3v-5.5h50.7v5.5H-2553.1z"/>
	<path class="st0" d="M-2504.6-147.3v-5.5h50.7v5.5H-2504.6z"/>
	<path class="st0" d="M-2456.2-147.3v-5.5h50.7v5.5H-2456.2z"/>
	<path class="st0" d="M-2407.7-147.3v-5.5h50.7v5.5H-2407.7z"/>
	<path class="st0" d="M-2359.3-147.3v-5.5h50.8v5.5H-2359.3z"/>
	<path class="st0" d="M-2310.8-147.3v-5.5h50.7v5.5H-2310.8z"/>
	<path class="st0" d="M-2253.5-164.6v-39.2h-6.8v-6h6.8v-4.8c0-3,0.3-5.3,0.8-6.8c0.7-2,2-3.6,3.9-4.8s4.5-1.9,7.8-1.9
		c2.2,0,4.5,0.3,7.1,0.8l-1.1,6.7c-1.6-0.3-3.1-0.4-4.5-0.4c-2.3,0-4,0.5-4.9,1.5c-1,1-1.4,2.8-1.4,5.6v4.2h8.8v6h-8.8v39.2h-7.7
		L-2253.5-164.6L-2253.5-164.6z"/>
	<path class="st0" d="M-2231.2-164.6v-45.2h6.9v6.8c1.8-3.2,3.4-5.3,4.9-6.3s3.1-1.5,4.9-1.5c2.6,0,5.2,0.8,7.9,2.5l-2.6,7.1
		c-1.9-1.1-3.7-1.7-5.6-1.7c-1.7,0-3.2,0.5-4.5,1.5s-2.3,2.4-2.8,4.2c-0.9,2.7-1.3,5.7-1.3,8.9v23.6L-2231.2-164.6L-2231.2-164.6
		L-2231.2-164.6z"/>
	<path class="st0" d="M-2205-187.2c0-8.4,2.3-14.6,7-18.6c3.9-3.3,8.6-5,14.2-5c6.2,0,11.3,2,15.2,6.1s5.9,9.7,5.9,16.9
		c0,5.8-0.9,10.4-2.6,13.7c-1.7,3.3-4.3,5.9-7.6,7.8c-3.3,1.8-7,2.8-10.9,2.8c-6.3,0-11.4-2-15.3-6.1
		C-2203-173.8-2205-179.6-2205-187.2z M-2197.1-187.2c0,5.8,1.3,10.1,3.8,13s5.7,4.3,9.5,4.3s7-1.4,9.5-4.3s3.8-7.3,3.8-13.2
		c0-5.6-1.3-9.8-3.8-12.7s-5.7-4.3-9.5-4.3s-7,1.4-9.5,4.3C-2195.9-197.3-2197.1-193-2197.1-187.2z"/>
	<path class="st0" d="M-2153.7-164.6v-45.2h6.8v6.3c1.4-2.2,3.3-4,5.7-5.3s5-2,8-2c3.3,0,6.1,0.7,8.2,2.1c2.1,1.4,3.7,3.3,4.5,5.8
		c3.6-5.3,8.2-7.9,14-7.9c4.5,0,7.9,1.2,10.3,3.7c2.4,2.5,3.6,6.3,3.6,11.5v31h-7.6v-28.5c0-3.1-0.2-5.3-0.7-6.6s-1.4-2.4-2.7-3.3
		c-1.3-0.8-2.8-1.2-4.6-1.2c-3.2,0-5.8,1.1-7.9,3.2s-3.1,5.5-3.1,10.1v26.2h-7.7V-194c0-3.4-0.6-6-1.9-7.7c-1.2-1.7-3.3-2.6-6.1-2.6
		c-2.2,0-4.1,0.6-6,1.7c-1.8,1.1-3.2,2.8-4,5s-1.2,5.3-1.2,9.4v23.4h-7.6V-164.6z"/>
	<path class="st0" d="M-2532.3-60.1l23.9-62.4h8.9l25.5,62.4h-9.4l-7.3-18.9h-26.1l-6.8,18.9H-2532.3z M-2514.3-85.7h21.1l-6.5-17.3
		c-2-5.2-3.5-9.6-4.4-12.9c-0.8,4-1.9,8-3.4,11.9L-2514.3-85.7z"/>
	<path class="st0" d="M-2468.3-60.1v-45.2h6.8v6.3c1.4-2.2,3.3-4,5.7-5.3s5-2,8-2c3.3,0,6.1,0.7,8.2,2.1c2.1,1.4,3.7,3.3,4.5,5.8
		c3.6-5.3,8.2-7.9,14-7.9c4.5,0,7.9,1.2,10.3,3.7s3.6,6.3,3.6,11.5v31h-7.6v-28.5c0-3.1-0.2-5.3-0.7-6.6s-1.4-2.4-2.7-3.3
		c-1.3-0.8-2.8-1.2-4.6-1.2c-3.2,0-5.8,1.1-7.9,3.2c-2.1,2.1-3.1,5.5-3.1,10.1v26.2h-7.7v-29.3c0-3.4-0.6-6-1.9-7.7
		c-1.2-1.7-3.3-2.6-6.1-2.6c-2.2,0-4.1,0.6-6,1.7c-1.8,1.1-3.2,2.8-4,5s-1.2,5.3-1.2,9.4v23.4h-7.6V-60.1z"/>
	<path class="st0" d="M-2398.8-73.6l7.6-1.2c0.4,3,1.6,5.4,3.6,7c1.9,1.6,4.7,2.4,8.1,2.4c3.5,0,6.1-0.7,7.8-2.1s2.6-3.1,2.6-5
		c0-1.7-0.8-3.1-2.3-4.1c-1-0.7-3.7-1.5-7.8-2.6c-5.6-1.4-9.5-2.6-11.7-3.7c-2.2-1-3.8-2.5-4.9-4.3c-1.1-1.8-1.7-3.8-1.7-6.1
		c0-2,0.5-3.9,1.4-5.6s2.2-3.1,3.8-4.3c1.2-0.9,2.8-1.6,4.9-2.2c2.1-0.6,4.3-0.9,6.6-0.9c3.5,0,6.7,0.5,9.3,1.5
		c2.7,1,4.7,2.4,5.9,4.1c1.3,1.7,2.2,4.1,2.6,7l-7.5,1c-0.3-2.3-1.3-4.1-3-5.4c-1.6-1.3-3.9-2-6.9-2c-3.5,0-6,0.6-7.5,1.7
		c-1.5,1.2-2.3,2.5-2.3,4.1c0,1,0.3,1.9,0.9,2.7c0.6,0.8,1.6,1.5,2.9,2c0.8,0.3,3,0.9,6.8,2c5.4,1.4,9.2,2.6,11.3,3.6
		c2.1,0.9,3.8,2.3,5,4c1.2,1.8,1.8,3.9,1.8,6.5s-0.7,5-2.2,7.2s-3.6,4-6.4,5.2s-6,1.8-9.5,1.8c-5.9,0-10.3-1.2-13.4-3.7
		C-2396-65.2-2398-68.8-2398.8-73.6z"/>
	<path class="st0" d="M-2335.5-67l1.1,6.8c-2.2,0.5-4.1,0.7-5.8,0.7c-2.8,0-4.9-0.4-6.5-1.3c-1.5-0.9-2.6-2-3.2-3.5
		c-0.6-1.4-0.9-4.4-0.9-9v-26h-5.6v-6h5.6v-11.2l7.6-4.6v15.8h7.7v6h-7.7v26.4c0,2.2,0.1,3.6,0.4,4.2c0.3,0.6,0.7,1.1,1.3,1.5
		s1.5,0.6,2.6,0.6C-2338-66.7-2336.9-66.8-2335.5-67z"/>
	<path class="st0" d="M-2297.1-74.7l7.9,1c-1.2,4.6-3.6,8.2-6.9,10.8c-3.4,2.6-7.7,3.8-12.9,3.8c-6.6,0-11.8-2-15.7-6.1
		s-5.8-9.8-5.8-17.1c0-7.6,2-13.5,5.9-17.7c3.9-4.2,9-6.3,15.2-6.3c6,0,11,2.1,14.8,6.2s5.7,9.9,5.7,17.4c0,0.5,0,1.1,0,2h-33.7
		c0.3,5,1.7,8.8,4.2,11.4s5.7,4,9.4,4c2.8,0,5.2-0.7,7.2-2.2C-2299.8-69.1-2298.3-71.4-2297.1-74.7z M-2322.2-87h25.2
		c-0.3-3.8-1.3-6.6-2.9-8.5c-2.4-2.9-5.6-4.4-9.5-4.4c-3.5,0-6.5,1.2-8.9,3.5C-2320.7-94.1-2322-91-2322.2-87z"/>
	<path class="st0" d="M-2279.7-60.1v-45.2h6.9v6.8c1.8-3.2,3.4-5.3,4.9-6.3s3.1-1.5,4.9-1.5c2.6,0,5.2,0.8,7.9,2.5l-2.6,7.1
		c-1.9-1.1-3.7-1.7-5.6-1.7c-1.7,0-3.2,0.5-4.5,1.5s-2.3,2.4-2.8,4.2c-0.9,2.7-1.3,5.7-1.3,8.9v23.6h-7.8L-2279.7-60.1L-2279.7-60.1
		z"/>
	<path class="st0" d="M-2221.3-60.1v-5.7c-2.9,4.5-7.1,6.7-12.6,6.7c-3.6,0-6.9-1-9.9-3c-3-2-5.4-4.8-7-8.3
		c-1.7-3.6-2.5-7.6-2.5-12.3c0-4.5,0.8-8.6,2.3-12.3s3.8-6.5,6.8-8.4c3-2,6.4-2.9,10.1-2.9c2.7,0,5.1,0.6,7.3,1.7
		c2.1,1.1,3.9,2.6,5.2,4.5v-22.4h7.6v62.4C-2214-60.1-2221.3-60.1-2221.3-60.1z M-2245.5-82.7c0,5.8,1.2,10.1,3.7,13
		s5.3,4.3,8.6,4.3s6.2-1.4,8.5-4.1s3.5-6.9,3.5-12.5c0-6.2-1.2-10.7-3.6-13.6c-2.4-2.9-5.3-4.3-8.8-4.3c-3.4,0-6.2,1.4-8.5,4.2
		C-2244.3-93-2245.5-88.6-2245.5-82.7z"/>
	<path class="st0" d="M-2172.7-65.7c-2.8,2.4-5.6,4.1-8.2,5.1c-2.6,1-5.4,1.5-8.4,1.5c-5,0-8.8-1.2-11.4-3.6c-2.7-2.4-4-5.5-4-9.3
		c0-2.2,0.5-4.2,1.5-6.1c1-1.8,2.3-3.3,4-4.4c1.6-1.1,3.5-1.9,5.5-2.5c1.5-0.4,3.8-0.8,6.8-1.1c6.2-0.7,10.7-1.6,13.7-2.6
		c0-1,0-1.7,0-2c0-3.1-0.7-5.3-2.2-6.6c-2-1.7-4.9-2.6-8.7-2.6c-3.6,0-6.3,0.6-8,1.9s-3,3.5-3.8,6.7l-7.5-1c0.7-3.2,1.8-5.8,3.4-7.8
		c1.6-2,3.8-3.5,6.8-4.6s6.4-1.6,10.3-1.6c3.9,0,7,0.5,9.4,1.4s4.2,2,5.3,3.4s1.9,3.1,2.4,5.2c0.3,1.3,0.4,3.7,0.4,7.1V-79
		c0,7.1,0.2,11.6,0.5,13.5s1,3.7,1.9,5.4h-8C-2171.9-61.7-2172.4-63.6-2172.7-65.7z M-2173.3-82.8c-2.8,1.1-6.9,2.1-12.5,2.9
		c-3.1,0.5-5.4,1-6.7,1.5c-1.3,0.6-2.3,1.4-3,2.5s-1.1,2.3-1.1,3.6c0,2,0.8,3.7,2.3,5.1s3.8,2,6.8,2c2.9,0,5.6-0.6,7.9-1.9
		c2.3-1.3,4-3.1,5.1-5.3c0.8-1.7,1.2-4.3,1.2-7.7V-82.8L-2173.3-82.8z"/>
	<path class="st0" d="M-2153.7-60.1v-45.2h6.8v6.3c1.4-2.2,3.3-4,5.7-5.3s5-2,8-2c3.3,0,6.1,0.7,8.2,2.1c2.1,1.4,3.7,3.3,4.5,5.8
		c3.6-5.3,8.2-7.9,14-7.9c4.5,0,7.9,1.2,10.3,3.7c2.4,2.5,3.6,6.3,3.6,11.5v31h-7.6v-28.5c0-3.1-0.2-5.3-0.7-6.6s-1.4-2.4-2.7-3.3
		c-1.3-0.8-2.8-1.2-4.6-1.2c-3.2,0-5.8,1.1-7.9,3.2s-3.1,5.5-3.1,10.1v26.2h-7.7v-29.3c0-3.4-0.6-6-1.9-7.7
		c-1.2-1.7-3.3-2.6-6.1-2.6c-2.2,0-4.1,0.6-6,1.7c-1.8,1.1-3.2,2.8-4,5s-1.2,5.3-1.2,9.4v23.4h-7.6V-60.1z"/>
	<path class="st0" d="M-2138.8-485c-2.8-2.5-4.9-5.3-6.3-8.3c-1.4-3-2.1-6.2-2.1-9.7c0-6.4,2.2-11.4,6.5-15.2
		c3.5-3,7.4-4.6,11.8-4.6c3.9,0,7.3,1.2,10.4,3.7s5.8,6.2,8.2,11.1c3.2-2.8,5.9-4.7,7.9-5.6s4-1.4,5.8-1.4c3.7,0,7,1.5,9.8,4.4
		s4.1,6.6,4.1,11.1c0,4.3-1.3,7.7-3.9,10.4c-2.6,2.7-5.7,4.1-9.4,4.1c-5.9,0-11-3.9-15.2-11.8l-14.3,11.4c2.5,1.3,5.4,2.3,8.7,3
		l-1.7,8c-5.4-1.4-9.9-3.2-13.4-5.5c-3.8,2.9-7,6.1-9.6,9.7l-6.1-5.1C-2145.6-478.5-2142.7-481.7-2138.8-485z M-2132.8-489.8
		l17.4-14c-2.5-4.1-4.8-6.9-6.9-8.4c-2.1-1.5-4.2-2.2-6.3-2.2c-2.5,0-5.1,1-7.9,3c-2.7,2-4.1,4.9-4.1,8.5c0,2.3,0.7,4.7,2.1,7.1
		C-2136.9-493.3-2135-491.3-2132.8-489.8z M-2106.3-500.6c2,3.3,3.7,5.5,5.1,6.4c1.5,1,3.1,1.5,4.9,1.5c2.1,0,3.9-0.7,5.2-2s2-3,2-5
		c0-2.1-0.7-3.8-2-5.2c-1.3-1.4-3-2.1-4.9-2.1c-1,0-2,0.2-3,0.7c-1.1,0.5-2.2,1.2-3.4,2.2L-2106.3-500.6z"/>
</g>
<text transform="matrix(1 0 0 1 -1662.6761 -565.6799)" class="st2" style="font-family:'IvyPrestoHeadline-Regular';">V</text>
<text transform="matrix(1 0 0 1 -1614.0762 -565.6799)" class="st2" style="font-family:'HelveticaNeue';">isual </text>
<text transform="matrix(1 0 0 1 -1479.2761 -469.6799)" class="st2" style="font-family:'HelveticaNeue';">&amp;</text>
<text transform="matrix(1 0 0 1 -1901.376 -373.68)" class="st2" style="font-family:'HelveticaNeue';">UX/UI design</text>
<text transform="matrix(1 0 0 1 -1698.5762 -277.68)" class="st2" style="font-family:'HelveticaNeue';">student</text>
<text transform="matrix(1 0 0 1 -1615.5762 -181.68)" class="st2" style="font-family:'HelveticaNeue';">from </text>
<text transform="matrix(1 0 0 1 -1842.376 -85.68)" class="st2" style="font-family:'HelveticaNeue';">Amsterdam</text>
<text transform="matrix(1 0 0 1 -1004.9574 -565.6799)" class="st1 st2">Visual </text>
<text transform="matrix(1 0 0 1 -818.1575 -469.6799)" class="st1 st2">&amp;</text>
<text transform="matrix(1 0 0 1 -1236.1573 -373.68)" class="st1 st2">UX/UI design</text>
<text transform="matrix(1 0 0 1 -1027.2574 -277.68)" class="st1 st2">student</text>
<text transform="matrix(1 0 0 1 -947.0574 -181.68)" class="st1 st2">from </text>
<text transform="matrix(1 0 0 1 -1173.8574 -85.68)" class="st1 st2">Amsterdam</text>
<path d="M-285.2-623.9v1c-3,0.6-4.8,5.4-8.2,15l-15.5,43.3h-1.8l-17.6-49c-2.3-6.6-3.9-9-7.3-9.3v-1h20.5v1c-4.5,0.3-6,2.5-4.4,7.1
	l12.9,37l10.5-29.6c3.4-9.4,2.6-13.8-2.5-14.5v-1H-285.2z"/>
<path d="M-280.5-614.5v-8.3h6.8v8.3H-280.5z M-273.7-607v41.4h-6.8V-607H-273.7z"/>
<path d="M-258-574.9c0.6,1,1.5,1.9,2.5,2.5s2.2,1.1,3.5,1.3c1.3,0.3,2.7,0.4,4,0.4c1.1,0,2.2-0.1,3.4-0.2c1.2-0.2,2.3-0.5,3.2-0.9
	c1-0.4,1.8-1.1,2.4-1.9c0.6-0.8,1-1.9,1-3.2c0-1.8-0.7-3.1-2-4s-3-1.6-5-2.2s-4.2-1.1-6.5-1.5c-2.3-0.5-4.5-1.1-6.5-1.9
	c-2-0.8-3.7-2-5-3.5s-2-3.6-2-6.2c0-2.1,0.5-3.9,1.4-5.4s2.1-2.7,3.6-3.6c1.5-0.9,3.1-1.6,5-2.1c1.8-0.5,3.7-0.7,5.5-0.7
	c2.3,0,4.5,0.2,6.5,0.6c2,0.4,3.7,1.1,5.2,2.1s2.7,2.3,3.6,4c0.9,1.7,1.4,3.8,1.6,6.3h-6.8c-0.1-1.3-0.5-2.4-1-3.3
	c-0.6-0.9-1.3-1.6-2.2-2.1s-1.9-0.9-3-1.2c-1.1-0.2-2.2-0.4-3.3-0.4c-1,0-2,0.1-3.1,0.2s-2,0.4-2.8,0.8c-0.9,0.4-1.5,0.9-2.1,1.6
	c-0.5,0.7-0.8,1.5-0.8,2.6c0,1.2,0.4,2.1,1.2,2.9c0.8,0.8,1.9,1.4,3.2,1.9s2.7,0.9,4.3,1.3c1.6,0.3,3.2,0.7,4.8,1.1
	c1.7,0.4,3.4,0.8,5,1.4c1.6,0.5,3.1,1.2,4.3,2.1c1.3,0.9,2.3,2,3,3.3c0.8,1.3,1.2,3,1.2,5c0,2.5-0.5,4.6-1.6,6.2c-1,1.7-2.4,3-4.1,4
	c-1.7,1-3.6,1.7-5.7,2.1c-2.1,0.4-4.2,0.6-6.3,0.6c-2.3,0-4.5-0.2-6.6-0.7c-2.1-0.5-3.9-1.3-5.5-2.4c-1.6-1.1-2.9-2.5-3.8-4.3
	c-1-1.8-1.5-4-1.6-6.5h6.8C-258.9-577.2-258.6-576-258-574.9z"/>
<path d="M-195.3-565.7v-6.6h-0.2c-1.4,2.6-3.3,4.4-5.5,5.6c-2.2,1.2-4.9,1.8-7.9,1.8c-2.7,0-5-0.4-6.8-1.1c-1.8-0.7-3.3-1.7-4.4-3.1
	c-1.1-1.3-1.9-2.9-2.4-4.8s-0.7-3.9-0.7-6.1v-27h6.8v28c0,2.6,0.7,4.6,2.2,6.1s3.5,2.2,6.2,2.2c2.1,0,3.9-0.3,5.4-1
	c1.5-0.6,2.8-1.5,3.8-2.7s1.8-2.5,2.3-4.1s0.8-3.3,0.8-5.2V-607h6.8v41.4h-6.4V-565.7z"/>
<path d="M-142-565.8c-1.2,0.7-2.8,1-4.9,1c-1.8,0-3.2-0.5-4.2-1.5s-1.6-2.6-1.6-4.8c-1.9,2.2-4,3.9-6.5,4.8c-2.5,1-5.2,1.5-8,1.5
	c-1.9,0-3.6-0.2-5.3-0.6c-1.7-0.4-3.1-1.1-4.4-2c-1.2-0.9-2.2-2.1-2.9-3.6s-1.1-3.2-1.1-5.3c0-2.3,0.4-4.3,1.2-5.8s1.9-2.7,3.2-3.6
	c1.3-0.9,2.8-1.6,4.5-2.1s3.4-0.9,5.2-1.2c1.9-0.4,3.6-0.7,5.3-0.8c1.7-0.2,3.2-0.5,4.4-0.8c1.3-0.3,2.3-0.9,3-1.5
	c0.7-0.7,1.1-1.6,1.1-2.9c0-1.5-0.3-2.7-0.8-3.6c-0.6-0.9-1.3-1.6-2.2-2.1s-1.9-0.8-3-1s-2.2-0.2-3.2-0.2c-2.9,0-5.3,0.5-7.2,1.6
	s-3,3.2-3.1,6.2h-6.8c0.1-2.6,0.6-4.7,1.6-6.5s2.2-3.2,3.8-4.3s3.4-1.9,5.5-2.4s4.3-0.7,6.6-0.7c1.9,0,3.7,0.1,5.6,0.4
	c1.8,0.3,3.5,0.8,5,1.6s2.7,2,3.6,3.5c0.9,1.5,1.4,3.4,1.4,5.8v21.2c0,1.6,0.1,2.8,0.3,3.5s0.8,1.1,1.9,1.1c0.6,0,1.3-0.1,2.1-0.3
	v5.4H-142z M-153.1-587c-0.9,0.6-2,1.1-3.4,1.4c-1.4,0.3-2.8,0.5-4.4,0.7c-1.5,0.2-3.1,0.4-4.6,0.6c-1.5,0.2-2.9,0.6-4.2,1.2
	c-1.2,0.5-2.2,1.3-3,2.3s-1.2,2.3-1.2,4c0,1.1,0.2,2.1,0.7,2.8s1,1.4,1.8,1.9c0.7,0.5,1.6,0.8,2.5,1s2,0.3,3,0.3
	c2.2,0,4.2-0.3,5.8-0.9c1.6-0.6,2.9-1.4,3.9-2.3c1-0.9,1.8-1.9,2.2-3s0.7-2.1,0.7-3.1v-6.9H-153.1z"/>
<path d="M-128.5-622.8v57.1h-6.8v-57.1H-128.5z"/>
<path d="M-121.6-470.8c-3,1.3-6,2-9.2,2c-3.8,0-6.9-0.6-9.3-1.8c-2.3-1.2-4.2-2.6-5.4-4.2c-1.3-1.7-2.1-3.4-2.5-5.1
	c-0.4-1.8-0.6-3.2-0.6-4.4c0-2.2,0.4-4.2,1.1-5.9c0.7-1.7,1.7-3.2,2.9-4.6s2.6-2.6,4.2-3.7c1.6-1.1,3.3-2.1,5.2-3.1
	c-0.8-1.1-1.6-2.2-2.3-3.2s-1.4-2-2-3.1s-1.1-2.1-1.4-3.3c-0.3-1.1-0.5-2.4-0.5-3.9s0.3-3,0.8-4.4c0.6-1.4,1.4-2.7,2.5-3.8
	s2.4-2,4-2.6s3.4-1,5.5-1c1.8,0,3.5,0.2,5.2,0.7s3.2,1.2,4.4,2.2c1.3,1,2.3,2.2,3.1,3.7c0.8,1.5,1.2,3.2,1.2,5.1
	c0,1.7-0.3,3.3-0.9,4.8s-1.4,2.8-2.4,4s-2.2,2.3-3.4,3.3c-1.3,1-2.6,1.9-4,2.7l10.3,12.6c1.1-3,1.7-5.9,1.8-8.9h6.5
	c-0.2,1.7-0.3,3.2-0.5,4.4c-0.2,1.2-0.4,2.3-0.7,3.3c-0.3,1-0.7,2-1.1,3s-0.9,2.1-1.5,3.4l11.1,12.9h-8.9l-6.1-7.1
	C-116.3-474.1-118.6-472.1-121.6-470.8z M-135.3-495c-1.2,0.8-2.3,1.7-3.2,2.7s-1.6,2.1-2.2,3.4c-0.5,1.3-0.8,2.7-0.8,4.4
	c0,1.4,0.3,2.8,0.9,4c0.6,1.2,1.4,2.2,2.4,3s2.2,1.5,3.5,2s2.7,0.7,4,0.7c2.6,0,4.9-0.6,7-1.8c2.1-1.2,3.8-2.9,5.2-5l-13.1-15.8
	C-132.8-496.5-134.1-495.8-135.3-495z M-126.7-506.6c0.9-0.6,1.7-1.4,2.5-2.2c0.7-0.8,1.4-1.7,1.8-2.7c0.5-1,0.7-2.1,0.7-3.3
	c0-1.7-0.6-3.1-1.8-4.3c-1.2-1.2-2.8-1.8-4.8-1.8c-1.6,0-3.1,0.5-4.5,1.5s-2.1,2.5-2.1,4.6c0,0.9,0.2,1.7,0.5,2.6
	c0.3,0.9,0.8,1.7,1.3,2.5s1.1,1.6,1.8,2.4s1.3,1.6,1.9,2.4C-128.4-505.3-127.6-505.9-126.7-506.6z"/>
<path d="M-527.4-377.9c-3.9,3.7-9.4,5.5-16.6,5.5c-7.4,0-13.1-1.7-17.2-5.2c-4.1-3.5-6.2-9.1-6.2-16.7v-36.5h7.6v36.5
	c0,5.1,1.4,9,4.1,11.6c2.7,2.6,6.6,4,11.8,4c4.9,0,8.5-1.3,11.1-4s3.8-6.5,3.8-11.6v-36.5h7.6v36.5
	C-521.6-387-523.5-381.5-527.4-377.9z"/>
<path d="M-514.6-430.8h9.1l14.2,22.3l14.9-22.3h8.5l-18.9,27.8l20.1,29.4h-9.3l-15.4-23.6l-15.8,23.6h-8.5l19.8-29.4L-514.6-430.8z"
	/>
<path d="M-438.7-432.2l-23.7,59.8h-5.8l23.6-59.8H-438.7z"/>
<path d="M-394.1-377.9c-3.9,3.7-9.4,5.5-16.6,5.5c-7.4,0-13.1-1.7-17.2-5.2s-6.2-9.1-6.2-16.7v-36.5h7.6v36.5c0,5.1,1.4,9,4.1,11.6
	s6.6,4,11.8,4c4.9,0,8.5-1.3,11.1-4c2.5-2.6,3.8-6.5,3.8-11.6v-36.5h7.6v36.5C-388.3-387-390.2-381.5-394.1-377.9z"/>
<path d="M-368.2-430.8v57.1h-7.6v-57.1H-368.2z"/>
<path d="M-304.1-373.7v-5.6h-0.2c-1.1,2.3-2.9,3.9-5.3,5c-2.4,1-5,1.5-7.9,1.5c-3.2,0-6-0.6-8.4-1.8c-2.4-1.2-4.3-2.7-5.9-4.7
	s-2.8-4.3-3.6-6.9c-0.8-2.6-1.2-5.4-1.2-8.3s0.4-5.7,1.2-8.3c0.8-2.6,1.9-4.9,3.5-6.8s3.5-3.5,5.9-4.6s5.1-1.7,8.3-1.7
	c1.1,0,2.2,0.1,3.4,0.3c1.2,0.2,2.5,0.6,3.7,1.1s2.4,1.2,3.5,2s2,1.9,2.8,3.1h0.2v-21.3h6.8v57.1h-6.8V-373.7z M-328.6-388.4
	c0.5,1.8,1.3,3.5,2.3,4.9s2.4,2.6,4,3.4c1.6,0.9,3.5,1.3,5.7,1.3c2.3,0,4.2-0.5,5.8-1.4c1.6-0.9,2.9-2.1,3.9-3.6s1.7-3.1,2.2-5
	s0.7-3.8,0.7-5.7c0-2-0.2-4-0.7-5.9s-1.2-3.6-2.3-5c-1-1.4-2.4-2.6-4-3.5c-1.7-0.9-3.7-1.3-6-1.3s-4.2,0.5-5.8,1.4
	c-1.6,0.9-2.9,2.1-3.8,3.6c-1,1.5-1.7,3.2-2.1,5.1s-0.6,3.9-0.6,5.9C-329.3-392.1-329.1-390.2-328.6-388.4z"/>
<path d="M-257.6-376.3c-3.1,2.3-7,3.5-11.7,3.5c-3.3,0-6.2-0.5-8.6-1.6s-4.5-2.6-6.1-4.5c-1.7-1.9-2.9-4.2-3.7-6.9
	c-0.8-2.7-1.3-5.6-1.4-8.7c0-3.1,0.5-6,1.4-8.6c1-2.6,2.3-4.9,4-6.8s3.8-3.4,6.2-4.5c2.4-1.1,5-1.6,7.8-1.6c3.7,0,6.7,0.8,9.2,2.3
	c2.4,1.5,4.4,3.5,5.8,5.8c1.5,2.3,2.5,4.9,3,7.7c0.6,2.8,0.8,5.4,0.7,7.9h-31c-0.1,1.8,0.2,3.5,0.6,5.2c0.5,1.6,1.3,3.1,2.3,4.3
	c1.1,1.3,2.4,2.3,4.1,3s3.6,1.1,5.8,1.1c2.9,0,5.2-0.7,7.1-2c1.8-1.3,3.1-3.4,3.6-6.1h6.7C-252.5-382.2-254.5-378.7-257.6-376.3z
	 M-259.2-402.9c-0.6-1.4-1.4-2.7-2.5-3.7s-2.3-1.9-3.7-2.5c-1.4-0.6-3-0.9-4.7-0.9c-1.8,0-3.3,0.3-4.8,0.9c-1.4,0.6-2.6,1.5-3.6,2.5
	c-1,1.1-1.8,2.3-2.4,3.7c-0.6,1.4-0.9,2.9-1,4.5h23.8C-258.2-399.9-258.6-401.4-259.2-402.9z"/>
<path d="M-238.7-382.9c0.6,1,1.5,1.9,2.5,2.5s2.2,1.1,3.5,1.3c1.3,0.3,2.7,0.4,4,0.4c1.1,0,2.2-0.1,3.4-0.2c1.2-0.2,2.3-0.5,3.2-0.9
	c1-0.4,1.8-1.1,2.4-1.9c0.6-0.8,1-1.9,1-3.2c0-1.8-0.7-3.1-2-4s-3-1.6-5-2.2s-4.2-1.1-6.5-1.5c-2.3-0.5-4.5-1.1-6.5-1.9
	s-3.7-2-5-3.5s-2-3.6-2-6.2c0-2.1,0.5-3.9,1.4-5.4s2.1-2.7,3.6-3.6s3.1-1.6,5-2.1c1.8-0.5,3.7-0.7,5.5-0.7c2.3,0,4.5,0.2,6.5,0.6
	s3.7,1.1,5.2,2.1s2.7,2.3,3.6,4c0.9,1.7,1.4,3.8,1.6,6.3h-6.8c-0.1-1.3-0.5-2.4-1-3.3c-0.6-0.9-1.3-1.6-2.2-2.1s-1.9-0.9-3-1.2
	c-1.1-0.2-2.2-0.4-3.3-0.4c-1,0-2,0.1-3.1,0.2s-2,0.4-2.8,0.8c-0.9,0.4-1.5,0.9-2.1,1.6c-0.5,0.7-0.8,1.5-0.8,2.6
	c0,1.2,0.4,2.1,1.2,2.9s1.9,1.4,3.2,1.9s2.7,0.9,4.3,1.3c1.6,0.3,3.2,0.7,4.8,1.1c1.7,0.4,3.4,0.8,5,1.4c1.6,0.5,3.1,1.2,4.3,2.1
	c1.3,0.9,2.3,2,3,3.3c0.8,1.3,1.2,3,1.2,5c0,2.5-0.5,4.6-1.6,6.2c-1,1.7-2.4,3-4.1,4c-1.7,1-3.6,1.7-5.7,2.1
	c-2.1,0.4-4.2,0.6-6.3,0.6c-2.3,0-4.5-0.2-6.6-0.7s-3.9-1.3-5.5-2.4s-2.9-2.5-3.8-4.3c-1-1.8-1.5-4-1.6-6.5h6.8
	C-239.7-385.2-239.3-384-238.7-382.9z"/>
<path d="M-203.5-422.5v-8.3h6.8v8.3H-203.5z M-196.7-415v41.4h-6.8V-415H-196.7z"/>
<path d="M-155.1-362c-3.1,3.4-7.9,5-14.6,5c-1.9,0-3.9-0.2-5.9-0.6s-3.8-1.1-5.4-2.1c-1.6-1-3-2.2-4-3.8c-1.1-1.5-1.7-3.4-1.8-5.7
	h6.8c0.1,1.2,0.4,2.3,1.2,3.1c0.7,0.9,1.6,1.5,2.6,2.1c1,0.5,2.2,0.9,3.4,1.2c1.2,0.2,2.4,0.4,3.5,0.4c2.2,0,4.1-0.4,5.7-1.2
	c1.5-0.8,2.8-1.8,3.8-3.2c1-1.4,1.7-3,2.2-4.9s0.7-4,0.7-6.3v-2.7h-0.2c-1.2,2.6-2.9,4.4-5.3,5.6c-2.4,1.2-4.9,1.8-7.6,1.8
	c-3.1,0-5.8-0.6-8.1-1.7s-4.2-2.6-5.8-4.5c-1.5-1.9-2.7-4.1-3.5-6.6s-1.2-5.2-1.2-8c0-2.5,0.3-5,1-7.6c0.6-2.6,1.7-4.9,3.2-7
	s3.5-3.8,5.9-5.2c2.5-1.4,5.5-2,9-2c2.6,0,5,0.6,7.2,1.7s3.9,2.9,5.1,5.2h0.1v-5.9h6.4v37.8C-150.4-370.4-152-365.4-155.1-362z
	 M-163.8-380.6c1.6-0.9,2.8-2.2,3.8-3.7s1.7-3.2,2.1-5.2c0.5-1.9,0.7-3.8,0.7-5.8c0-1.8-0.2-3.6-0.6-5.4c-0.4-1.8-1.1-3.3-2-4.8
	c-0.9-1.4-2.1-2.5-3.6-3.4s-3.3-1.3-5.4-1.3c-2.2,0-4.1,0.4-5.6,1.2c-1.5,0.8-2.8,1.9-3.8,3.3s-1.7,3-2.2,4.8s-0.7,3.7-0.7,5.7
	c0,1.9,0.2,3.7,0.6,5.6c0.4,1.9,1,3.6,1.9,5.1s2.1,2.7,3.6,3.7c1.5,0.9,3.4,1.4,5.6,1.4S-165.3-379.7-163.8-380.6z"/>
<path d="M-133.8-415v6.6h0.2c2.8-5,7.3-7.5,13.4-7.5c2.7,0,5,0.4,6.8,1.1s3.3,1.8,4.4,3.1c1.1,1.3,1.9,2.9,2.4,4.8
	c0.5,1.8,0.7,3.9,0.7,6.1v27.2h-6.8v-28c0-2.6-0.7-4.6-2.2-6.1s-3.5-2.2-6.2-2.2c-2.1,0-3.9,0.3-5.4,1c-1.5,0.6-2.8,1.5-3.8,2.7
	s-1.8,2.5-2.3,4.1s-0.8,3.3-0.8,5.2v23.4h-6.8V-415H-133.8z"/>
<path d="M-357.3-286.9c0.6,1,1.5,1.9,2.5,2.5s2.2,1.1,3.5,1.3c1.3,0.3,2.7,0.4,4,0.4c1.1,0,2.2-0.1,3.4-0.2c1.2-0.2,2.3-0.5,3.2-0.9
	c1-0.4,1.8-1.1,2.4-1.9s1-1.9,1-3.2c0-1.8-0.7-3.1-2-4s-3-1.6-5-2.2s-4.2-1.1-6.5-1.5c-2.3-0.5-4.5-1.1-6.5-1.9s-3.7-2-5-3.5
	s-2-3.6-2-6.2c0-2.1,0.5-3.9,1.4-5.4s2.1-2.7,3.6-3.6s3.1-1.6,5-2.1s3.7-0.7,5.5-0.7c2.3,0,4.5,0.2,6.5,0.6s3.7,1.1,5.2,2.1
	s2.7,2.3,3.6,4s1.4,3.8,1.6,6.3h-6.8c-0.1-1.3-0.5-2.4-1-3.3c-0.6-0.9-1.3-1.6-2.2-2.1c-0.9-0.5-1.9-0.9-3-1.2
	c-1.1-0.2-2.2-0.4-3.3-0.4c-1,0-2,0.1-3.1,0.2s-2,0.4-2.8,0.8c-0.9,0.4-1.5,0.9-2.1,1.6c-0.5,0.7-0.8,1.5-0.8,2.6
	c0,1.2,0.4,2.1,1.2,2.9c0.8,0.8,1.9,1.4,3.2,1.9c1.3,0.5,2.7,0.9,4.3,1.3c1.6,0.3,3.2,0.7,4.8,1.1c1.7,0.4,3.4,0.8,5,1.4
	c1.6,0.5,3.1,1.2,4.3,2.1c1.3,0.9,2.3,2,3,3.3c0.8,1.3,1.2,3,1.2,5c0,2.5-0.5,4.6-1.6,6.2c-1,1.7-2.4,3-4.1,4s-3.6,1.7-5.7,2.1
	s-4.2,0.6-6.3,0.6c-2.3,0-4.5-0.2-6.6-0.7s-3.9-1.3-5.5-2.4s-2.9-2.5-3.8-4.3s-1.5-4-1.6-6.5h6.8
	C-358.3-289.2-357.9-288-357.3-286.9z"/>
<path d="M-304.8-319v6h-8.2v25.7c0,0.8,0.1,1.4,0.2,1.9s0.4,0.9,0.8,1.1c0.4,0.3,0.9,0.4,1.6,0.5s1.5,0.1,2.6,0.1h3.1v6h-5.2
	c-1.8,0-3.3-0.1-4.5-0.4c-1.3-0.2-2.3-0.7-3-1.3c-0.8-0.6-1.3-1.5-1.7-2.7c-0.4-1.2-0.6-2.7-0.6-4.6V-313h-7v-6h7v-12.4h6.8v12.4
	H-304.8z"/>
<path d="M-269.4-277.7v-6.6h-0.2c-1.4,2.6-3.3,4.4-5.5,5.6s-4.9,1.8-7.9,1.8c-2.7,0-5-0.4-6.8-1.1s-3.3-1.7-4.4-3.1
	c-1.1-1.3-1.9-2.9-2.4-4.8s-0.7-3.9-0.7-6.1v-27h6.8v28c0,2.6,0.7,4.6,2.2,6.1s3.5,2.2,6.2,2.2c2.1,0,3.9-0.3,5.4-1
	c1.5-0.6,2.8-1.5,3.8-2.7s1.8-2.5,2.3-4.1s0.8-3.3,0.8-5.2V-319h6.8v41.4h-6.4V-277.7z"/>
<path d="M-222.6-277.7v-5.6h-0.2c-1.1,2.3-2.9,3.9-5.3,5c-2.4,1-5,1.5-7.9,1.5c-3.2,0-6-0.6-8.4-1.8s-4.3-2.7-5.9-4.7
	c-1.6-2-2.8-4.3-3.6-6.9s-1.2-5.4-1.2-8.3s0.4-5.7,1.2-8.3c0.8-2.6,1.9-4.9,3.5-6.8s3.5-3.5,5.9-4.6s5.1-1.7,8.3-1.7
	c1.1,0,2.2,0.1,3.4,0.3c1.2,0.2,2.5,0.6,3.7,1.1s2.4,1.2,3.5,2s2,1.9,2.8,3.1h0.2v-21.3h6.8v57.1h-6.8V-277.7z M-247.1-292.4
	c0.5,1.8,1.3,3.5,2.3,4.9s2.4,2.6,4,3.4c1.6,0.9,3.5,1.3,5.7,1.3c2.3,0,4.2-0.5,5.8-1.4s2.9-2.1,3.9-3.6s1.7-3.1,2.2-5
	s0.7-3.8,0.7-5.7c0-2-0.2-4-0.7-5.9s-1.2-3.6-2.3-5c-1-1.4-2.4-2.6-4-3.5c-1.7-0.9-3.7-1.3-6-1.3s-4.2,0.5-5.8,1.4s-2.9,2.1-3.8,3.6
	c-1,1.5-1.7,3.2-2.1,5.1s-0.6,3.9-0.6,5.9C-247.8-296.1-247.6-294.2-247.1-292.4z"/>
<path d="M-176.1-280.3c-3.1,2.3-7,3.5-11.7,3.5c-3.3,0-6.2-0.5-8.6-1.6c-2.4-1.1-4.5-2.6-6.1-4.5c-1.7-1.9-2.9-4.2-3.7-6.9
	c-0.8-2.7-1.3-5.6-1.4-8.7c0-3.1,0.5-6,1.4-8.6c1-2.6,2.3-4.9,4-6.8s3.8-3.4,6.2-4.5s5-1.6,7.8-1.6c3.7,0,6.7,0.8,9.2,2.3
	c2.4,1.5,4.4,3.5,5.8,5.8c1.5,2.3,2.5,4.9,3,7.7c0.6,2.8,0.8,5.4,0.7,7.9h-31c-0.1,1.8,0.2,3.5,0.6,5.2c0.5,1.6,1.3,3.1,2.3,4.3
	c1.1,1.3,2.4,2.3,4.1,3c1.7,0.7,3.6,1.1,5.8,1.1c2.9,0,5.2-0.7,7.1-2c1.8-1.3,3.1-3.4,3.6-6.1h6.7C-171-286.2-173-282.7-176.1-280.3
	z M-177.7-306.9c-0.6-1.4-1.4-2.7-2.5-3.7s-2.3-1.9-3.7-2.5s-3-0.9-4.7-0.9c-1.8,0-3.3,0.3-4.8,0.9c-1.4,0.6-2.6,1.5-3.6,2.5
	c-1,1.1-1.8,2.3-2.4,3.7c-0.6,1.4-0.9,2.9-1,4.5h23.8C-176.7-303.9-177.1-305.4-177.7-306.9z"/>
<path d="M-156-319v6.6h0.2c2.8-5,7.3-7.5,13.4-7.5c2.7,0,5,0.4,6.8,1.1s3.3,1.8,4.4,3.1c1.1,1.3,1.9,2.9,2.4,4.8s0.7,3.9,0.7,6.1
	v27.2h-6.8v-28c0-2.6-0.7-4.6-2.2-6.1s-3.5-2.2-6.2-2.2c-2.1,0-3.9,0.3-5.4,1c-1.5,0.6-2.8,1.5-3.8,2.7s-1.8,2.5-2.3,4.1
	s-0.8,3.3-0.8,5.2v23.4h-6.8V-319H-156z"/>
<path d="M-100.2-319v6h-8.2v25.7c0,0.8,0.1,1.4,0.2,1.9s0.4,0.9,0.8,1.1c0.4,0.3,0.9,0.4,1.6,0.5s1.5,0.1,2.6,0.1h3.1v6h-5.2
	c-1.8,0-3.3-0.1-4.5-0.4c-1.3-0.2-2.3-0.7-3-1.3c-0.8-0.6-1.3-1.5-1.7-2.7c-0.4-1.2-0.6-2.7-0.6-4.6V-313h-7v-6h7v-12.4h6.8v12.4
	H-100.2z"/>
<path d="M-252.2-217v-6h7v-6.2c0-3.4,1-5.9,2.9-7.6c1.9-1.7,4.8-2.6,8.5-2.6c0.6,0,1.4,0.1,2.2,0.2c0.8,0.1,1.6,0.3,2.2,0.5v5.9
	c-0.6-0.2-1.2-0.4-1.9-0.4c-0.7-0.1-1.3-0.1-1.9-0.1c-1.7,0-2.9,0.3-3.8,1c-0.9,0.6-1.4,1.9-1.4,3.7v5.8h8v6h-8v35.4h-6.8V-217
	H-252.2z"/>
<path d="M-218.2-223v8.7h0.2c1.7-3.4,3.7-5.8,6.1-7.4c2.4-1.6,5.4-2.3,9.1-2.2v7.2c-2.7,0-5,0.4-7,1.1c-1.9,0.7-3.5,1.8-4.6,3.3
	c-1.2,1.4-2,3.2-2.6,5.2c-0.5,2.1-0.8,4.4-0.8,7.1v18.4h-6.8V-223H-218.2z"/>
<path d="M-200.1-210.8c0.9-2.6,2.1-4.9,3.8-6.9c1.7-1.9,3.8-3.5,6.3-4.6s5.4-1.7,8.6-1.7c3.3,0,6.2,0.6,8.7,1.7
	c2.5,1.1,4.6,2.7,6.3,4.6c1.7,1.9,3,4.2,3.8,6.9c0.9,2.6,1.3,5.5,1.3,8.5s-0.4,5.9-1.3,8.5c-0.9,2.6-2.1,4.9-3.8,6.8
	c-1.7,1.9-3.8,3.5-6.3,4.6s-5.4,1.6-8.7,1.6s-6.1-0.5-8.6-1.6s-4.6-2.6-6.3-4.6c-1.7-1.9-3-4.2-3.8-6.8c-0.9-2.6-1.3-5.4-1.3-8.5
	S-200.9-208.2-200.1-210.8z M-193.2-195.6c0.7,1.9,1.6,3.6,2.8,4.9c1.2,1.3,2.5,2.3,4.1,3s3.2,1,5,1s3.4-0.3,5-1s2.9-1.7,4.1-3
	c1.2-1.3,2.1-2.9,2.8-4.9c0.7-1.9,1-4.2,1-6.7s-0.3-4.7-1-6.7c-0.7-1.9-1.6-3.6-2.8-4.9c-1.2-1.3-2.5-2.3-4.1-3s-3.2-1-5-1
	s-3.4,0.3-5,1s-2.9,1.7-4.1,3c-1.2,1.3-2.1,3-2.8,4.9s-1,4.2-1,6.7S-193.8-197.6-193.2-195.6z"/>
<path d="M-146.8-223v6.1h0.2c3.1-4.7,7.5-7,13.4-7c2.6,0,4.9,0.5,7,1.6c2.1,1.1,3.5,2.9,4.4,5.4c1.4-2.2,3.2-4,5.5-5.2
	s4.8-1.8,7.5-1.8c2.1,0,4,0.2,5.6,0.7s3.1,1.2,4.3,2.1c1.2,1,2.1,2.2,2.8,3.7c0.7,1.5,1,3.3,1,5.5v30.3h-6.8v-27.1
	c0-1.3-0.1-2.5-0.3-3.6c-0.2-1.1-0.6-2.1-1.2-2.9c-0.6-0.8-1.4-1.5-2.4-2s-2.4-0.7-4-0.7c-3.4,0-6,1-7.9,2.9s-2.9,4.5-2.9,7.7v25.8
	h-6.8v-27.1c0-1.3-0.1-2.6-0.4-3.7c-0.2-1.1-0.7-2.1-1.2-2.9c-0.6-0.8-1.4-1.5-2.4-1.9c-1-0.5-2.3-0.7-3.8-0.7c-2,0-3.7,0.4-5.1,1.2
	c-1.4,0.8-2.6,1.8-3.4,2.9c-0.9,1.1-1.5,2.3-1.9,3.5s-0.6,2.2-0.6,3v25.8h-6.8V-223H-146.8z"/>
<path d="M-439.8-142.8l22.3,57.1h-8.4l-6.2-17.2h-24.2l-6.4,17.2h-7.8l22.2-57.1L-439.8-142.8L-439.8-142.8z M-434.5-109.3
	l-9.5-26.6h-0.2l-9.7,26.6C-453.9-109.3-434.5-109.3-434.5-109.3z"/>
<path d="M-406.6-127v6.1h0.2c3.1-4.7,7.5-7,13.4-7c2.6,0,4.9,0.5,7,1.6s3.5,2.9,4.4,5.4c1.4-2.2,3.2-4,5.5-5.2s4.8-1.8,7.5-1.8
	c2.1,0,4,0.2,5.6,0.7s3.1,1.2,4.3,2.1c1.2,1,2.1,2.2,2.8,3.7c0.7,1.5,1,3.3,1,5.5v30.3h-6.8v-27.1c0-1.3-0.1-2.5-0.3-3.6
	c-0.2-1.1-0.6-2.1-1.2-2.9s-1.4-1.5-2.4-2s-2.4-0.7-4-0.7c-3.4,0-6,1-7.9,2.9s-2.9,4.5-2.9,7.7v25.8h-6.8v-27.1
	c0-1.3-0.1-2.6-0.4-3.7c-0.2-1.1-0.7-2.1-1.2-2.9c-0.6-0.8-1.4-1.5-2.4-1.9c-1-0.5-2.3-0.7-3.8-0.7c-2,0-3.7,0.4-5.1,1.2
	c-1.4,0.8-2.6,1.8-3.4,2.9c-0.9,1.1-1.5,2.3-1.9,3.5s-0.6,2.2-0.6,3v25.8h-6.8V-127H-406.6z"/>
<path d="M-339.5-94.9c0.6,1,1.5,1.9,2.5,2.5s2.2,1.1,3.5,1.3c1.3,0.3,2.7,0.4,4,0.4c1.1,0,2.2-0.1,3.4-0.2c1.2-0.2,2.3-0.5,3.2-0.9
	c1-0.4,1.8-1.1,2.4-1.9s1-1.9,1-3.2c0-1.8-0.7-3.1-2-4s-3-1.6-5-2.2s-4.2-1.1-6.5-1.5c-2.3-0.5-4.5-1.1-6.5-1.9s-3.7-2-5-3.5
	s-2-3.6-2-6.2c0-2.1,0.5-3.9,1.4-5.4s2.1-2.7,3.6-3.6s3.1-1.6,5-2.1s3.7-0.7,5.5-0.7c2.3,0,4.5,0.2,6.5,0.6s3.7,1.1,5.2,2.1
	s2.7,2.3,3.6,4s1.4,3.8,1.6,6.3h-6.8c-0.1-1.3-0.5-2.4-1-3.3c-0.6-0.9-1.3-1.6-2.2-2.1c-0.9-0.5-1.9-0.9-3-1.2
	c-1.1-0.2-2.2-0.4-3.3-0.4c-1,0-2,0.1-3.1,0.2s-2,0.4-2.8,0.8c-0.9,0.4-1.5,0.9-2.1,1.6c-0.5,0.7-0.8,1.5-0.8,2.6
	c0,1.2,0.4,2.1,1.2,2.9c0.8,0.8,1.9,1.4,3.2,1.9c1.3,0.5,2.7,0.9,4.3,1.3c1.6,0.3,3.2,0.7,4.8,1.1c1.7,0.4,3.4,0.8,5,1.4
	c1.6,0.5,3.1,1.2,4.3,2.1c1.3,0.9,2.3,2,3,3.3c0.8,1.3,1.2,3,1.2,5c0,2.5-0.5,4.6-1.6,6.2c-1,1.7-2.4,3-4.1,4s-3.6,1.7-5.7,2.1
	s-4.2,0.6-6.3,0.6c-2.3,0-4.5-0.2-6.6-0.7s-3.9-1.3-5.5-2.4s-2.9-2.5-3.8-4.3s-1.5-4-1.6-6.5h6.8C-340.5-97.2-340.2-96-339.5-94.9z"
	/>
<path d="M-287-127v6h-8.2v25.7c0,0.8,0.1,1.4,0.2,1.9s0.4,0.9,0.8,1.1c0.4,0.3,0.9,0.4,1.6,0.5s1.5,0.1,2.6,0.1h3.1v6h-5.2
	c-1.8,0-3.3-0.1-4.5-0.4c-1.3-0.2-2.3-0.7-3-1.3c-0.8-0.6-1.3-1.5-1.7-2.7c-0.4-1.2-0.6-2.7-0.6-4.6V-121h-7v-6h7v-12.4h6.8v12.4
	C-295.1-127-287-127-287-127z"/>
<path d="M-250.2-88.3c-3.1,2.3-7,3.5-11.7,3.5c-3.3,0-6.2-0.5-8.6-1.6s-4.5-2.6-6.1-4.5c-1.7-1.9-2.9-4.2-3.7-6.9
	c-0.8-2.7-1.3-5.6-1.4-8.7c0-3.1,0.5-6,1.4-8.6c1-2.6,2.3-4.9,4-6.8s3.8-3.4,6.2-4.5c2.4-1.1,5-1.6,7.8-1.6c3.7,0,6.7,0.8,9.2,2.3
	c2.4,1.5,4.4,3.5,5.8,5.8c1.5,2.3,2.5,4.9,3,7.7c0.6,2.8,0.8,5.4,0.7,7.9h-31c-0.1,1.8,0.2,3.5,0.6,5.2c0.5,1.6,1.3,3.1,2.3,4.3
	c1.1,1.3,2.4,2.3,4.1,3s3.6,1.1,5.8,1.1c2.9,0,5.2-0.7,7.1-2c1.8-1.3,3.1-3.4,3.6-6.1h6.7C-245.1-94.2-247.1-90.7-250.2-88.3z
	 M-251.9-114.9c-0.6-1.4-1.4-2.7-2.5-3.7s-2.3-1.9-3.7-2.5c-1.4-0.6-3-0.9-4.7-0.9c-1.8,0-3.3,0.3-4.8,0.9c-1.4,0.6-2.6,1.5-3.6,2.5
	c-1,1.1-1.8,2.3-2.4,3.7c-0.6,1.4-0.9,2.9-1,4.5h23.8C-250.9-111.9-251.3-113.4-251.9-114.9z"/>
<path d="M-230.4-127v8.7h0.2c1.7-3.4,3.7-5.8,6.1-7.4c2.4-1.6,5.4-2.3,9.1-2.2v7.2c-2.7,0-5,0.4-7,1.1c-1.9,0.7-3.5,1.8-4.6,3.3
	c-1.2,1.4-2,3.2-2.6,5.2c-0.5,2.1-0.8,4.4-0.8,7.1v18.4h-6.8V-127H-230.4z"/>
<path d="M-181.2-85.7v-5.6h-0.2c-1.1,2.3-2.9,3.9-5.3,5c-2.4,1-5,1.5-7.9,1.5c-3.2,0-6-0.6-8.4-1.8s-4.3-2.7-5.9-4.7
	c-1.6-2-2.8-4.3-3.6-6.9s-1.2-5.4-1.2-8.3s0.4-5.7,1.2-8.3c0.8-2.6,1.9-4.9,3.5-6.8s3.5-3.5,5.9-4.6s5.1-1.7,8.3-1.7
	c1.1,0,2.2,0.1,3.4,0.3c1.2,0.2,2.5,0.6,3.7,1.1s2.4,1.2,3.5,2s2,1.9,2.8,3.1h0.2v-21.3h6.8v57.1L-181.2-85.7L-181.2-85.7z
	 M-205.6-100.4c0.5,1.8,1.3,3.5,2.3,4.9s2.4,2.6,4,3.4c1.6,0.9,3.5,1.3,5.7,1.3c2.3,0,4.2-0.5,5.8-1.4s2.9-2.1,3.9-3.6
	s1.7-3.1,2.2-5s0.7-3.8,0.7-5.7c0-2-0.2-4-0.7-5.9s-1.2-3.6-2.3-5c-1-1.4-2.4-2.6-4-3.5c-1.7-0.9-3.7-1.3-6-1.3s-4.2,0.5-5.8,1.4
	s-2.9,2.1-3.8,3.6c-1,1.5-1.7,3.2-2.1,5.1s-0.6,3.9-0.6,5.9C-206.4-104.1-206.1-102.2-205.6-100.4z"/>
<path d="M-127.3-85.8c-1.2,0.7-2.8,1-4.9,1c-1.8,0-3.2-0.5-4.2-1.5s-1.6-2.6-1.6-4.8c-1.9,2.2-4,3.9-6.5,4.8c-2.5,1-5.2,1.5-8,1.5
	c-1.9,0-3.6-0.2-5.3-0.6s-3.1-1.1-4.4-2c-1.2-0.9-2.2-2.1-2.9-3.6s-1.1-3.2-1.1-5.3c0-2.3,0.4-4.3,1.2-5.8s1.9-2.7,3.2-3.6
	s2.8-1.6,4.5-2.1s3.4-0.9,5.2-1.2c1.9-0.4,3.6-0.7,5.3-0.8c1.7-0.2,3.2-0.5,4.4-0.8c1.3-0.3,2.3-0.9,3-1.5c0.7-0.7,1.1-1.6,1.1-2.9
	c0-1.5-0.3-2.7-0.8-3.6c-0.6-0.9-1.3-1.6-2.2-2.1s-1.9-0.8-3-1s-2.2-0.2-3.2-0.2c-2.9,0-5.3,0.5-7.2,1.6s-3,3.2-3.1,6.2h-6.8
	c0.1-2.6,0.6-4.7,1.6-6.5s2.2-3.2,3.8-4.3c1.6-1.1,3.4-1.9,5.5-2.4s4.3-0.7,6.6-0.7c1.9,0,3.7,0.1,5.6,0.4c1.8,0.3,3.5,0.8,5,1.6
	c1.5,0.8,2.7,2,3.6,3.5c0.9,1.5,1.4,3.4,1.4,5.8v21.2c0,1.6,0.1,2.8,0.3,3.5s0.8,1.1,1.9,1.1c0.6,0,1.3-0.1,2.1-0.3v5.4H-127.3z
	 M-138.3-107c-0.9,0.6-2,1.1-3.4,1.4s-2.8,0.5-4.4,0.7c-1.5,0.2-3.1,0.4-4.6,0.6s-2.9,0.6-4.2,1.2c-1.2,0.5-2.2,1.3-3,2.3
	s-1.2,2.3-1.2,4c0,1.1,0.2,2.1,0.7,2.8s1,1.4,1.8,1.9c0.7,0.5,1.6,0.8,2.5,1s2,0.3,3,0.3c2.2,0,4.2-0.3,5.8-0.9s2.9-1.4,3.9-2.3
	s1.8-1.9,2.2-3c0.5-1.1,0.7-2.1,0.7-3.1v-6.9H-138.3z"/>
<path d="M-114.6-127v6.1h0.2c3.1-4.7,7.5-7,13.4-7c2.6,0,4.9,0.5,7,1.6s3.5,2.9,4.4,5.4c1.4-2.2,3.2-4,5.5-5.2s4.8-1.8,7.5-1.8
	c2.1,0,4,0.2,5.6,0.7s3.1,1.2,4.3,2.1c1.2,1,2.1,2.2,2.8,3.7s1,3.3,1,5.5v30.3h-6.8v-27.1c0-1.3-0.1-2.5-0.3-3.6
	c-0.2-1.1-0.6-2.1-1.2-2.9s-1.4-1.5-2.4-2s-2.4-0.7-4-0.7c-3.4,0-6,1-7.9,2.9s-2.9,4.5-2.9,7.7v25.8h-6.8v-27.1
	c0-1.3-0.1-2.6-0.4-3.7c-0.2-1.1-0.7-2.1-1.2-2.9c-0.6-0.8-1.4-1.5-2.4-1.9c-1-0.5-2.3-0.7-3.8-0.7c-2,0-3.7,0.4-5.1,1.2
	c-1.4,0.8-2.6,1.8-3.4,2.9c-0.9,1.1-1.5,2.3-1.9,3.5s-0.6,2.2-0.6,3v25.8h-6.8V-127H-114.6z"/>
<image style="display:none;overflow:visible;opacity:9.000000e-02;enable-background:new    ;" width="1512" height="1136" xlink:href="../../../Pictures/Screenshots/Screenshot 2022-05-25 at 14.07.37.png"  transform="matrix(0.5107 0 0 0.5107 55.7574 -654.2518)">
</image>
<g>
	<path d="M346.2-554.1L324-611.3h8.2l14.9,41.6c1.2,3.3,2.2,6.5,3,9.4c0.9-3.1,1.9-6.2,3.1-9.4l15.5-41.6h7.7L354-554.1H346.2z"/>
	<path d="M380.9-603.2v-8.1h7v8.1H380.9z M380.9-554.1v-41.5h7v41.5H380.9z"/>
	<path d="M395.8-566.4l7-1.1c0.4,2.8,1.5,4.9,3.3,6.4s4.3,2.2,7.5,2.2s5.6-0.7,7.2-2s2.3-2.9,2.3-4.6c0-1.6-0.7-2.8-2.1-3.8
		c-1-0.6-3.4-1.4-7.2-2.4c-5.2-1.3-8.7-2.4-10.7-3.4s-3.5-2.3-4.5-3.9s-1.5-3.5-1.5-5.6c0-1.8,0.4-3.6,1.3-5.1
		c0.8-1.6,2-2.9,3.5-3.9c1.1-0.8,2.6-1.5,4.5-2.1s3.9-0.8,6.1-0.8c3.3,0,6.1,0.5,8.6,1.4s4.3,2.2,5.4,3.8s2,3.7,2.4,6.4L422-584
		c-0.3-2.1-1.2-3.8-2.7-5s-3.6-1.8-6.3-1.8c-3.2,0-5.5,0.5-6.9,1.6s-2.1,2.3-2.1,3.8c0,0.9,0.3,1.7,0.9,2.5s1.5,1.4,2.7,1.9
		c0.7,0.3,2.8,0.9,6.2,1.8c5,1.3,8.4,2.4,10.4,3.3c2,0.8,3.5,2.1,4.6,3.7c1.1,1.6,1.7,3.6,1.7,6c0,2.3-0.7,4.6-2.1,6.6
		s-3.3,3.7-5.9,4.8s-5.5,1.7-8.8,1.7c-5.4,0-9.5-1.1-12.3-3.4C398.4-558.7,396.6-562,395.8-566.4z"/>
	<path d="M465.8-554.1v-6.1c-3.2,4.7-7.6,7-13.2,7c-2.4,0-4.7-0.5-6.9-1.4s-3.7-2.1-4.7-3.5s-1.8-3.2-2.2-5.2
		c-0.3-1.4-0.4-3.6-0.4-6.6v-25.7h7v23c0,3.7,0.1,6.1,0.4,7.4c0.4,1.8,1.4,3.3,2.8,4.4s3.2,1.6,5.3,1.6s4.1-0.5,5.9-1.6
		s3.2-2.6,3.9-4.4c0.8-1.9,1.2-4.6,1.2-8.1v-22.2h7v41.5h-6.1V-554.1z"/>
	<path d="M510.2-559.2c-2.6,2.2-5.1,3.8-7.5,4.7s-5,1.4-7.8,1.4c-4.6,0-8.1-1.1-10.5-3.3s-3.7-5.1-3.7-8.5c0-2,0.5-3.9,1.4-5.6
		s2.1-3,3.6-4s3.2-1.8,5.1-2.3c1.4-0.4,3.5-0.7,6.2-1.1c5.7-0.7,9.9-1.5,12.5-2.4c0-1,0-1.6,0-1.8c0-2.9-0.7-4.9-2-6.1
		c-1.8-1.6-4.5-2.4-8-2.4c-3.3,0-5.7,0.6-7.3,1.7c-1.6,1.2-2.7,3.2-3.5,6.2l-6.9-0.9c0.6-2.9,1.7-5.3,3.1-7.1s3.5-3.2,6.2-4.2
		s5.8-1.5,9.4-1.5c3.5,0,6.4,0.4,8.6,1.2s3.8,1.9,4.9,3.1c1,1.3,1.8,2.9,2.2,4.8c0.2,1.2,0.4,3.4,0.4,6.5v9.4
		c0,6.5,0.2,10.7,0.4,12.4c0.3,1.7,0.9,3.4,1.8,5h-7.3C510.9-555.5,510.4-557.2,510.2-559.2z M509.6-574.9c-2.6,1-6.4,1.9-11.5,2.7
		c-2.9,0.4-4.9,0.9-6.1,1.4s-2.1,1.3-2.8,2.3c-0.7,1-1,2.1-1,3.3c0,1.9,0.7,3.4,2.1,4.7s3.5,1.9,6.2,1.9s5.1-0.6,7.2-1.8
		s3.7-2.8,4.6-4.9c0.8-1.6,1.1-3.9,1.1-7v-2.6H509.6z"/>
	<path d="M527.5-554.1v-57.3h7v57.3H527.5z"/>
</g>
<path d="M498.8-475.6c-2.6-2.3-4.5-4.8-5.8-7.6s-1.9-5.7-1.9-8.9c0-5.9,2-10.5,5.9-13.9c3.2-2.8,6.8-4.2,10.8-4.2
	c3.5,0,6.7,1.1,9.6,3.4s5.4,5.7,7.5,10.2c3-2.6,5.4-4.3,7.2-5.2c1.8-0.9,3.6-1.3,5.4-1.3c3.4,0,6.4,1.3,9,4s3.8,6.1,3.8,10.2
	c0,3.9-1.2,7.1-3.6,9.6c-2.4,2.5-5.3,3.7-8.6,3.7c-5.4,0-10.1-3.6-13.9-10.8L511-476c2.3,1.2,4.9,2.1,8,2.7l-1.6,7.3
	c-5-1.2-9.1-2.9-12.3-5.1c-3.5,2.6-6.4,5.6-8.8,8.9l-5.6-4.7C492.5-469.6,495.2-472.6,498.8-475.6z M504.3-480l16-12.9
	c-2.3-3.8-4.4-6.4-6.3-7.7c-1.9-1.3-3.9-2-5.8-2c-2.3,0-4.7,0.9-7.2,2.8s-3.8,4.5-3.8,7.9c0,2.1,0.7,4.3,2,6.5
	S502.2-481.3,504.3-480z M528.6-489.9c1.8,3,3.4,5,4.7,5.9c1.4,0.9,2.9,1.3,4.5,1.3c2,0,3.5-0.6,4.8-1.9c1.2-1.2,1.9-2.8,1.9-4.6
	c0-1.9-0.6-3.5-1.8-4.7c-1.2-1.3-2.7-1.9-4.5-1.9c-0.9,0-1.8,0.2-2.8,0.7s-2,1.1-3.1,2.1L528.6-489.9z"/>
<g>
	<path d="M132.4-426.7h7.6v33.1c0,5.8-0.7,10.3-2,13.7c-1.3,3.4-3.7,6.1-7.1,8.3c-3.4,2.1-7.9,3.2-13.4,3.2c-5.4,0-9.8-0.9-13.2-2.8
		s-5.8-4.5-7.3-8s-2.2-8.3-2.2-14.4v-33.1h7.6v33c0,5,0.5,8.6,1.4,11s2.5,4.2,4.8,5.4c2.3,1.3,5,1.9,8.3,1.9c5.6,0,9.5-1.3,11.9-3.8
		c2.4-2.5,3.6-7.4,3.6-14.6L132.4-426.7L132.4-426.7z"/>
	<path d="M146.8-369.5l22.1-29.8l-19.5-27.4h9l10.4,14.7c2.2,3,3.7,5.4,4.6,7c1.3-2.1,2.8-4.3,4.5-6.5l11.5-15.2h8.2l-20.1,27
		l21.7,30.3h-9.4l-14.4-20.4c-0.8-1.2-1.6-2.4-2.5-3.8c-1.3,2.1-2.2,3.5-2.7,4.3l-14.4,20h-9V-369.5z"/>
	<path d="M199.8-368.5l16.6-59.2h5.6l-16.6,59.2H199.8z"/>
	<path d="M265.8-426.7h7.6v33.1c0,5.8-0.7,10.3-2,13.7c-1.3,3.4-3.7,6.1-7.1,8.3c-3.4,2.1-7.9,3.2-13.4,3.2c-5.4,0-9.8-0.9-13.2-2.8
		s-5.8-4.5-7.3-8s-2.2-8.3-2.2-14.4v-33.1h7.6v33c0,5,0.5,8.6,1.4,11s2.5,4.2,4.8,5.4c2.3,1.3,5,1.9,8.3,1.9c5.6,0,9.5-1.3,11.9-3.8
		c2.4-2.5,3.6-7.4,3.6-14.6L265.8-426.7L265.8-426.7z"/>
	<path d="M287.3-369.5v-57.3h7.6v57.3H287.3z"/>
	<path d="M356.5-369.5v-5.2c-2.6,4.1-6.5,6.2-11.6,6.2c-3.3,0-6.3-0.9-9.1-2.7s-4.9-4.4-6.4-7.6c-1.5-3.3-2.3-7-2.3-11.3
		c0-4.1,0.7-7.9,2.1-11.3s3.5-6,6.2-7.8s5.8-2.7,9.3-2.7c2.5,0,4.7,0.5,6.7,1.6s3.5,2.4,4.8,4.1v-20.5h7v57.3h-6.7V-369.5z
		 M334.2-390.2c0,5.3,1.1,9.3,3.4,11.9c2.2,2.6,4.9,3.9,7.9,3.9c3.1,0,5.7-1.3,7.8-3.8c2.1-2.5,3.2-6.3,3.2-11.5
		c0-5.7-1.1-9.8-3.3-12.5s-4.9-4-8.1-4c-3.1,0-5.7,1.3-7.8,3.8C335.3-399.7,334.2-395.6,334.2-390.2z"/>
	<path d="M402.4-382.8l7.3,0.9c-1.1,4.2-3.3,7.5-6.4,9.9s-7.1,3.5-11.9,3.5c-6.1,0-10.9-1.9-14.4-5.6c-3.6-3.7-5.3-9-5.3-15.7
		c0-7,1.8-12.4,5.4-16.2c3.6-3.9,8.3-5.8,14-5.8c5.5,0,10.1,1.9,13.6,5.7c3.5,3.8,5.3,9.1,5.3,15.9c0,0.4,0,1,0,1.9h-31
		c0.3,4.6,1.5,8,3.9,10.5s5.2,3.6,8.7,3.6c2.6,0,4.8-0.7,6.6-2C399.9-377.7,401.4-379.8,402.4-382.8z M379.4-394.2h23.2
		c-0.3-3.5-1.2-6.1-2.7-7.9c-2.2-2.7-5.1-4.1-8.7-4.1c-3.2,0-5.9,1.1-8.1,3.2C380.8-400.7,379.6-397.8,379.4-394.2z"/>
	<path d="M415.7-381.8l7-1.1c0.4,2.8,1.5,4.9,3.3,6.4s4.3,2.2,7.5,2.2s5.6-0.7,7.2-2s2.3-2.9,2.3-4.6c0-1.6-0.7-2.8-2.1-3.8
		c-1-0.6-3.4-1.4-7.2-2.4c-5.2-1.3-8.7-2.4-10.7-3.4s-3.5-2.3-4.5-3.9s-1.5-3.5-1.5-5.6c0-1.8,0.4-3.6,1.3-5.1
		c0.8-1.6,2-2.9,3.5-3.9c1.1-0.8,2.6-1.5,4.5-2.1s3.9-0.8,6.1-0.8c3.3,0,6.1,0.5,8.6,1.4s4.3,2.2,5.4,3.8s2,3.7,2.4,6.4l-6.9,0.9
		c-0.3-2.1-1.2-3.8-2.7-5s-3.6-1.8-6.3-1.8c-3.2,0-5.5,0.5-6.9,1.6s-2.1,2.3-2.1,3.8c0,0.9,0.3,1.7,0.9,2.5s1.5,1.4,2.7,1.9
		c0.7,0.3,2.8,0.9,6.2,1.8c5,1.3,8.4,2.4,10.4,3.3c2,0.8,3.5,2.1,4.6,3.7s1.7,3.6,1.7,6c0,2.3-0.7,4.6-2.1,6.6s-3.3,3.7-5.9,4.8
		s-5.5,1.7-8.8,1.7c-5.4,0-9.5-1.1-12.3-3.4C418.3-374.1,416.5-377.4,415.7-381.8z"/>
	<path d="M458.6-418.6v-8.1h7v8.1H458.6z M458.6-369.5V-411h7v41.5H458.6z"/>
	<path d="M475-366l6.8,1c0.3,2.1,1.1,3.6,2.4,4.6c1.7,1.3,4.1,2,7.1,2c3.3,0,5.8-0.7,7.5-2c1.8-1.3,3-3.1,3.6-5.5
		c0.4-1.4,0.5-4.4,0.5-9c-3.1,3.6-6.9,5.4-11.5,5.4c-5.7,0-10.1-2.1-13.2-6.2s-4.7-9-4.7-14.8c0-4,0.7-7.6,2.1-11
		c1.4-3.3,3.5-5.9,6.2-7.8c2.7-1.8,5.9-2.7,9.6-2.7c4.9,0,8.9,2,12.1,5.9v-5h6.5v35.9c0,6.5-0.7,11-2,13.7s-3.4,4.8-6.2,6.4
		s-6.4,2.3-10.5,2.3c-4.9,0-8.9-1.1-12-3.3C476.4-358.2,474.9-361.5,475-366z M480.8-390.9c0,5.4,1.1,9.4,3.2,11.9s4.9,3.8,8.1,3.8
		s5.9-1.2,8.1-3.7s3.3-6.4,3.3-11.7c0-5.1-1.1-8.9-3.4-11.5s-5-3.9-8.1-3.9s-5.8,1.3-8,3.8S480.8-395.9,480.8-390.9z"/>
	<path d="M520.8-369.5V-411h6.3v5.9c3-4.6,7.4-6.8,13.2-6.8c2.5,0,4.8,0.4,6.9,1.3s3.7,2.1,4.7,3.5c1,1.5,1.8,3.2,2.2,5.2
		c0.3,1.3,0.4,3.6,0.4,6.8v25.5h-7v-25.2c0-2.9-0.3-5-0.8-6.4s-1.5-2.6-2.9-3.4s-3-1.3-4.9-1.3c-3,0-5.6,1-7.8,2.9
		s-3.3,5.5-3.3,10.8v22.7H520.8z"/>
</g>
<g>
	<path d="M305.1-278.4l7-1.1c0.4,2.8,1.5,4.9,3.3,6.4s4.3,2.2,7.5,2.2s5.6-0.7,7.2-2s2.3-2.9,2.3-4.6c0-1.6-0.7-2.8-2.1-3.8
		c-1-0.6-3.4-1.4-7.2-2.4c-5.2-1.3-8.7-2.4-10.7-3.4s-3.5-2.3-4.5-3.9s-1.5-3.5-1.5-5.6c0-1.8,0.4-3.6,1.3-5.1
		c0.8-1.6,2-2.9,3.5-3.9c1.1-0.8,2.6-1.5,4.5-2.1s3.9-0.8,6.1-0.8c3.3,0,6.1,0.5,8.6,1.4s4.3,2.2,5.4,3.8s2,3.7,2.4,6.4l-6.9,0.9
		c-0.3-2.1-1.2-3.8-2.7-5s-3.6-1.8-6.3-1.8c-3.2,0-5.5,0.5-6.9,1.6s-2.1,2.3-2.1,3.8c0,0.9,0.3,1.7,0.9,2.5s1.5,1.4,2.7,1.9
		c0.7,0.3,2.8,0.9,6.2,1.8c5,1.3,8.4,2.4,10.4,3.3c2,0.8,3.5,2.1,4.6,3.7s1.7,3.6,1.7,6c0,2.3-0.7,4.6-2.1,6.6s-3.3,3.7-5.9,4.8
		s-5.5,1.7-8.8,1.7c-5.4,0-9.5-1.1-12.3-3.4C307.7-270.8,305.9-274,305.1-278.4z"/>
	<path d="M363.3-272.3l1,6.2c-2,0.4-3.8,0.6-5.3,0.6c-2.6,0-4.5-0.4-5.9-1.2s-2.4-1.9-3-3.2c-0.6-1.3-0.9-4.1-0.9-8.3v-23.9H344
		v-5.5h5.2v-10.3l7-4.2v14.5h7.1v5.5h-7.1v24.3c0,2,0.1,3.3,0.4,3.9c0.2,0.6,0.7,1,1.2,1.4c0.6,0.3,1.4,0.5,2.4,0.5
		C361-272.1,362-272.2,363.3-272.3z"/>
	<path d="M397.4-266.1v-6.1c-3.2,4.7-7.6,7-13.2,7c-2.4,0-4.7-0.5-6.9-1.4s-3.7-2.1-4.7-3.5s-1.8-3.2-2.2-5.2
		c-0.3-1.4-0.4-3.6-0.4-6.6v-25.7h7v23c0,3.7,0.1,6.1,0.4,7.4c0.4,1.8,1.4,3.3,2.8,4.4s3.2,1.6,5.3,1.6s4.1-0.5,5.9-1.6
		s3.2-2.6,3.9-4.4c0.8-1.9,1.2-4.6,1.2-8.1v-22.2h7v41.5L397.4-266.1L397.4-266.1z"/>
	<path d="M441.6-266.1v-5.2c-2.6,4.1-6.5,6.2-11.6,6.2c-3.3,0-6.3-0.9-9.1-2.7s-4.9-4.4-6.4-7.6c-1.5-3.3-2.3-7-2.3-11.3
		c0-4.1,0.7-7.9,2.1-11.3s3.5-6,6.2-7.8s5.8-2.7,9.3-2.7c2.5,0,4.7,0.5,6.7,1.6s3.5,2.4,4.8,4.1v-20.5h7v57.3h-6.7V-266.1z
		 M419.4-286.8c0,5.3,1.1,9.3,3.4,11.9c2.2,2.6,4.9,3.9,7.9,3.9c3.1,0,5.7-1.3,7.8-3.8c2.1-2.5,3.2-6.3,3.2-11.5
		c0-5.7-1.1-9.8-3.3-12.5s-4.9-4-8.1-4c-3.1,0-5.7,1.3-7.8,3.8C420.4-296.3,419.4-292.2,419.4-286.8z"/>
	<path d="M487.6-279.4l7.3,0.9c-1.1,4.2-3.3,7.5-6.4,9.9s-7.1,3.5-11.9,3.5c-6.1,0-10.9-1.9-14.4-5.6c-3.6-3.7-5.3-9-5.3-15.7
		c0-7,1.8-12.4,5.4-16.2c3.6-3.9,8.3-5.8,14-5.8c5.5,0,10.1,1.9,13.6,5.7c3.5,3.8,5.3,9.1,5.3,15.9c0,0.4,0,1,0,1.9h-30.9
		c0.3,4.6,1.5,8,3.9,10.5s5.2,3.6,8.7,3.6c2.6,0,4.8-0.7,6.6-2C485-274.3,486.5-276.4,487.6-279.4z M464.5-290.8h23.2
		c-0.3-3.5-1.2-6.1-2.7-7.9c-2.2-2.7-5.1-4.1-8.7-4.1c-3.2,0-5.9,1.1-8.1,3.2C465.9-297.3,464.7-294.4,464.5-290.8z"/>
	<path d="M503.7-266.1v-41.5h6.3v5.9c3-4.6,7.4-6.8,13.2-6.8c2.5,0,4.8,0.4,6.9,1.3s3.7,2.1,4.7,3.5c1,1.5,1.8,3.2,2.2,5.2
		c0.3,1.3,0.4,3.6,0.4,6.8v25.5h-7v-25.2c0-2.9-0.3-5-0.8-6.4s-1.5-2.6-2.9-3.4s-3-1.3-4.9-1.3c-3,0-5.6,1-7.8,2.9
		s-3.3,5.5-3.3,10.8v22.7H503.7z"/>
	<path d="M563.5-272.3l1,6.2c-2,0.4-3.8,0.6-5.3,0.6c-2.6,0-4.5-0.4-5.9-1.2s-2.4-1.9-3-3.2c-0.6-1.3-0.9-4.1-0.9-8.3v-23.9h-5.2
		v-5.5h5.2v-10.3l7-4.2v14.5h7.1v5.5h-7.1v24.3c0,2,0.1,3.3,0.4,3.9c0.2,0.6,0.7,1,1.2,1.4c0.6,0.3,1.4,0.5,2.4,0.5
		C561.2-272.1,562.2-272.2,563.5-272.3z"/>
</g>
<g>
	<path d="M426.6-169.6v-36h-6.2v-5.5h6.2v-4.4c0-2.8,0.2-4.9,0.7-6.2c0.7-1.8,1.9-3.3,3.6-4.4c1.7-1.1,4.1-1.7,7.2-1.7
		c2,0,4.2,0.2,6.6,0.7l-1.1,6.1c-1.5-0.3-2.8-0.4-4.1-0.4c-2.1,0-3.6,0.5-4.5,1.4s-1.3,2.6-1.3,5.1v3.8h8.1v5.5h-8.1v36L426.6-169.6
		L426.6-169.6z"/>
	<path d="M447.1-169.6v-41.5h6.3v6.3c1.6-2.9,3.1-4.9,4.5-5.8c1.4-0.9,2.9-1.4,4.5-1.4c2.4,0,4.8,0.8,7.2,2.3l-2.4,6.5
		c-1.7-1-3.4-1.5-5.2-1.5c-1.5,0-2.9,0.5-4.1,1.4s-2.1,2.2-2.6,3.8c-0.8,2.5-1.2,5.2-1.2,8.2v21.7H447.1z"/>
	<path d="M471.2-190.3c0-7.7,2.1-13.4,6.4-17.1c3.6-3.1,7.9-4.6,13-4.6c5.7,0,10.4,1.9,14,5.6c3.6,3.7,5.4,8.9,5.4,15.5
		c0,5.3-0.8,9.5-2.4,12.6s-3.9,5.4-7,7.1s-6.4,2.5-10,2.5c-5.8,0-10.5-1.9-14.1-5.6C473-177.9,471.2-183.3,471.2-190.3z
		 M478.4-190.3c0,5.3,1.2,9.3,3.5,11.9s5.2,4,8.8,4c3.5,0,6.4-1.3,8.7-4c2.3-2.7,3.5-6.7,3.5-12.1c0-5.1-1.2-9-3.5-11.7
		c-2.3-2.6-5.2-4-8.7-4s-6.4,1.3-8.8,3.9C479.6-199.6,478.4-195.6,478.4-190.3z"/>
	<path d="M518.3-169.6v-41.5h6.3v5.8c1.3-2,3-3.7,5.2-4.9c2.2-1.2,4.6-1.9,7.4-1.9c3.1,0,5.6,0.6,7.6,1.9s3.4,3.1,4.2,5.4
		c3.3-4.8,7.6-7.3,12.8-7.3c4.1,0,7.3,1.1,9.5,3.4c2.2,2.3,3.3,5.8,3.3,10.5v28.5h-7v-26.1c0-2.8-0.2-4.8-0.7-6.1
		c-0.5-1.2-1.3-2.2-2.5-3c-1.2-0.8-2.6-1.1-4.2-1.1c-2.9,0-5.3,1-7.3,2.9c-1.9,1.9-2.9,5-2.9,9.3v24.1h-7v-27c0-3.1-0.6-5.5-1.7-7
		s-3-2.3-5.6-2.3c-2,0-3.8,0.5-5.5,1.6c-1.7,1-2.9,2.6-3.7,4.6s-1.1,4.9-1.1,8.7v21.5H518.3L518.3-169.6z"/>
</g>
<g>
	<path d="M180.6-74.1l22-57.3h8.2l23.4,57.3h-8.6l-6.7-17.3H195l-6.3,17.3C188.7-74.1,180.6-74.1,180.6-74.1z M197.1-97.6h19.4
		l-6-15.9c-1.8-4.8-3.2-8.8-4.1-11.9c-0.7,3.7-1.8,7.3-3.1,10.9L197.1-97.6z"/>
	<path d="M239.3-74.1v-41.5h6.3v5.8c1.3-2,3-3.7,5.2-4.9c2.2-1.2,4.6-1.9,7.4-1.9c3.1,0,5.6,0.6,7.6,1.9s3.4,3.1,4.2,5.4
		c3.3-4.8,7.6-7.3,12.8-7.3c4.1,0,7.3,1.1,9.5,3.4s3.3,5.8,3.3,10.5v28.5h-7v-26.1c0-2.8-0.2-4.8-0.7-6.1c-0.5-1.2-1.3-2.2-2.5-3
		s-2.6-1.1-4.2-1.1c-2.9,0-5.3,1-7.3,2.9c-1.9,1.9-2.9,5-2.9,9.3v24.1h-7v-27c0-3.1-0.6-5.5-1.7-7s-3-2.3-5.6-2.3
		c-2,0-3.8,0.5-5.5,1.6c-1.7,1-2.9,2.6-3.7,4.6s-1.1,4.9-1.1,8.7v21.5H239.3z"/>
	<path d="M303.1-86.4l7-1.1c0.4,2.8,1.5,4.9,3.3,6.4s4.3,2.2,7.5,2.2s5.6-0.7,7.2-2s2.3-2.9,2.3-4.6c0-1.6-0.7-2.8-2.1-3.8
		c-1-0.6-3.4-1.4-7.2-2.4c-5.2-1.3-8.7-2.4-10.7-3.4s-3.5-2.3-4.5-3.9s-1.5-3.5-1.5-5.6c0-1.8,0.4-3.6,1.3-5.1
		c0.8-1.6,2-2.9,3.5-3.9c1.1-0.8,2.6-1.5,4.5-2.1s3.9-0.8,6.1-0.8c3.3,0,6.1,0.5,8.6,1.4s4.3,2.2,5.4,3.8s2,3.7,2.4,6.4l-6.9,0.9
		c-0.3-2.1-1.2-3.8-2.7-5s-3.6-1.8-6.3-1.8c-3.2,0-5.5,0.5-6.9,1.6s-2.1,2.3-2.1,3.8c0,0.9,0.3,1.7,0.9,2.5s1.5,1.4,2.7,1.9
		c0.7,0.3,2.8,0.9,6.2,1.8c5,1.3,8.4,2.4,10.4,3.3c2,0.8,3.5,2.1,4.6,3.7s1.7,3.6,1.7,6c0,2.3-0.7,4.6-2.1,6.6s-3.3,3.7-5.9,4.8
		s-5.5,1.7-8.8,1.7c-5.4,0-9.5-1.1-12.3-3.4C305.7-78.7,303.9-82,303.1-86.4z"/>
	<path d="M361.3-80.3l1,6.2c-2,0.4-3.8,0.6-5.3,0.6c-2.6,0-4.5-0.4-5.9-1.2s-2.4-1.9-3-3.2c-0.6-1.3-0.9-4.1-0.9-8.3v-23.9H342v-5.5
		h5.2v-10.3l7-4.2v14.5h7.1v5.5h-7.1v24.3c0,2,0.1,3.3,0.4,3.9c0.2,0.6,0.7,1,1.2,1.4c0.6,0.3,1.4,0.5,2.4,0.5
		C359-80.1,360-80.2,361.3-80.3z"/>
	<path d="M396.6-87.4l7.3,0.9c-1.1,4.2-3.3,7.5-6.4,9.9s-7.1,3.5-11.9,3.5c-6.1,0-10.9-1.9-14.4-5.6c-3.6-3.7-5.3-9-5.3-15.7
		c0-7,1.8-12.4,5.4-16.2c3.6-3.9,8.3-5.8,14-5.8c5.5,0,10.1,1.9,13.6,5.7c3.5,3.8,5.3,9.1,5.3,15.9c0,0.4,0,1,0,1.9h-30.9
		c0.3,4.6,1.5,8,3.9,10.5s5.2,3.6,8.7,3.6c2.6,0,4.8-0.7,6.6-2C394.1-82.3,395.5-84.4,396.6-87.4z M373.5-98.8h23.2
		c-0.3-3.5-1.2-6.1-2.7-7.9c-2.2-2.7-5.1-4.1-8.7-4.1c-3.2,0-5.9,1.1-8.1,3.2C374.9-105.3,373.7-102.4,373.5-98.8z"/>
	<path d="M412.6-74.1v-41.5h6.3v6.3c1.6-2.9,3.1-4.9,4.5-5.8s2.9-1.4,4.5-1.4c2.4,0,4.8,0.8,7.2,2.3l-2.4,6.5
		c-1.7-1-3.4-1.5-5.2-1.5c-1.5,0-2.9,0.5-4.1,1.4s-2.1,2.2-2.6,3.8c-0.8,2.5-1.2,5.2-1.2,8.2v21.7C419.6-74.1,412.6-74.1,412.6-74.1
		z"/>
	<path d="M466.2-74.1v-5.2c-2.6,4.1-6.5,6.2-11.6,6.2c-3.3,0-6.3-0.9-9.1-2.7s-4.9-4.4-6.4-7.6c-1.5-3.3-2.3-7-2.3-11.3
		c0-4.1,0.7-7.9,2.1-11.3s3.5-6,6.2-7.8s5.8-2.7,9.3-2.7c2.5,0,4.7,0.5,6.7,1.6s3.5,2.4,4.8,4.1v-20.5h7V-74L466.2-74.1L466.2-74.1z
		 M444-94.8c0,5.3,1.1,9.3,3.4,11.9c2.2,2.6,4.9,3.9,7.9,3.9c3.1,0,5.7-1.3,7.8-3.8c2.1-2.5,3.2-6.3,3.2-11.5
		c0-5.7-1.1-9.8-3.3-12.5s-4.9-4-8.1-4c-3.1,0-5.7,1.3-7.8,3.8C445.1-104.3,444-100.2,444-94.8z"/>
	<path d="M510.9-79.2c-2.6,2.2-5.1,3.8-7.5,4.7s-5,1.4-7.8,1.4c-4.6,0-8.1-1.1-10.5-3.3s-3.7-5.1-3.7-8.5c0-2,0.5-3.9,1.4-5.6
		s2.1-3,3.6-4s3.2-1.8,5.1-2.3c1.4-0.4,3.5-0.7,6.2-1.1c5.7-0.7,9.9-1.5,12.5-2.4c0-1,0-1.6,0-1.8c0-2.9-0.7-4.9-2-6.1
		c-1.8-1.6-4.5-2.4-8-2.4c-3.3,0-5.7,0.6-7.3,1.7c-1.6,1.2-2.7,3.2-3.5,6.2l-6.9-0.9c0.6-2.9,1.7-5.3,3.1-7.1
		c1.4-1.8,3.5-3.2,6.2-4.2s5.8-1.5,9.4-1.5c3.5,0,6.4,0.4,8.6,1.2c2.2,0.8,3.8,1.9,4.9,3.1c1,1.3,1.8,2.9,2.2,4.8
		c0.2,1.2,0.4,3.4,0.4,6.5v9.4c0,6.5,0.2,10.7,0.4,12.4c0.3,1.7,0.9,3.4,1.8,5h-7.3C511.6-75.5,511.1-77.2,510.9-79.2z M510.3-94.9
		c-2.6,1-6.4,1.9-11.5,2.7c-2.9,0.4-4.9,0.9-6.1,1.4s-2.1,1.3-2.8,2.3c-0.7,1-1,2.1-1,3.3c0,1.9,0.7,3.4,2.1,4.7s3.5,1.9,6.2,1.9
		s5.1-0.6,7.2-1.8c2.1-1.2,3.7-2.8,4.6-4.9c0.8-1.6,1.1-3.9,1.1-7v-2.6H510.3z"/>
	<path d="M528.3-74.1v-41.5h6.3v5.8c1.3-2,3-3.7,5.2-4.9c2.2-1.2,4.6-1.9,7.4-1.9c3.1,0,5.6,0.6,7.6,1.9s3.4,3.1,4.2,5.4
		c3.3-4.8,7.6-7.3,12.8-7.3c4.1,0,7.3,1.1,9.5,3.4s3.3,5.8,3.3,10.5v28.5h-7v-26.1c0-2.8-0.2-4.8-0.7-6.1c-0.5-1.2-1.3-2.2-2.5-3
		s-2.6-1.1-4.2-1.1c-2.9,0-5.3,1-7.3,2.9c-1.9,1.9-2.9,5-2.9,9.3v24.1h-7v-27c0-3.1-0.6-5.5-1.7-7s-3-2.3-5.6-2.3
		c-2,0-3.8,0.5-5.5,1.6c-1.7,1-2.9,2.6-3.7,4.6s-1.1,4.9-1.1,8.7v21.5H528.3z"/>
</g>
<text transform="matrix(1 0 0 1 987.0427 -565.6799)" class="st1 st2">Visual </text>
<text transform="matrix(1 0 0 1 1173.8428 -469.6799)" class="st1 st2">&amp;</text>
<text transform="matrix(1 0 0 1 755.8427 -373.68)" class="st1 st2">UX/UI design</text>
<text transform="matrix(1 0 0 1 964.7427 -277.68)" class="st1 st2">student</text>
<text transform="matrix(1 0 0 1 1044.9427 -181.68)" class="st1 st2">from </text>
<text transform="matrix(1 0 0 1 818.1427 -85.68)" class="st1 st2">Amsterdam</text>
<text transform="matrix(1 0 0 1 51.5443 197.1305)" class="st1 st2">Jim Jansen,</text>
<text transform="matrix(1 0 0 1 51.5443 293.1305)" class="st1 st2">visual &amp; UX/UI design </text>
<text transform="matrix(1 0 0 1 51.5443 389.1305)" class="st1 st2">student from Amsterdam</text>
</svg>
