<?xml version="1.0" encoding="UTF-8"?><svg id="Layer_1" xmlns="http://www.w3.org/2000/svg" viewBox="0 0 505.7 586"><defs><style>.cls-1{fill:#0309fe;}</style></defs><path class="cls-1" d="M75.58,79.66v-5.53h50.74v5.53h-50.74Z"/><path class="cls-1" d="M124.02,79.66v-5.53h50.74v5.53h-50.74Z"/><path class="cls-1" d="M172.47,79.66v-5.53h50.74v5.53h-50.74Z"/><path class="cls-1" d="M220.91,79.66v-5.53h50.74v5.53h-50.74Z"/><path class="cls-1" d="M295.21,62.35L271.05,0h8.93l16.2,45.3c1.3,3.63,2.4,7.03,3.28,10.21,.96-3.4,2.08-6.81,3.36-10.21L319.67,0h8.42l-24.41,62.35h-8.46Z"/><path class="cls-1" d="M332.98,8.8V0h7.66V8.8h-7.66Zm0,53.55V17.18h7.66V62.35h-7.66Z"/><path class="cls-1" d="M349.23,48.87l7.57-1.19c.43,3.03,1.61,5.36,3.55,6.98,1.94,1.62,4.66,2.42,8.14,2.42s6.12-.72,7.83-2.15c1.7-1.43,2.55-3.11,2.55-5.04,0-1.73-.75-3.09-2.25-4.08-1.05-.68-3.66-1.54-7.83-2.59-5.61-1.42-9.51-2.64-11.67-3.68-2.17-1.03-3.81-2.47-4.93-4.3-1.12-1.83-1.68-3.85-1.68-6.06,0-2.01,.46-3.88,1.38-5.59,.92-1.72,2.18-3.14,3.76-4.27,1.19-.88,2.81-1.62,4.87-2.23,2.06-.61,4.26-.91,6.61-.91,3.54,0,6.66,.51,9.34,1.53,2.68,1.02,4.66,2.4,5.93,4.15,1.28,1.74,2.15,4.08,2.64,7l-7.49,1.02c-.34-2.32-1.33-4.14-2.96-5.44-1.63-1.3-3.93-1.96-6.91-1.96-3.52,0-6.03,.58-7.53,1.74-1.5,1.16-2.25,2.52-2.25,4.08,0,.99,.31,1.89,.94,2.68,.62,.82,1.6,1.5,2.93,2.04,.77,.28,3.02,.94,6.76,1.96,5.42,1.45,9.19,2.63,11.33,3.55s3.82,2.26,5.04,4.02c1.22,1.76,1.83,3.94,1.83,6.55s-.74,4.96-2.23,7.21c-1.49,2.25-3.64,4-6.44,5.23-2.81,1.23-5.98,1.85-9.53,1.85-5.87,0-10.34-1.22-13.42-3.66-3.08-2.44-5.04-6.05-5.89-10.85Z"/><path class="cls-1" d="M425.44,62.35v-6.63c-3.52,5.1-8.29,7.66-14.33,7.66-2.67,0-5.15-.51-7.46-1.53-2.31-1.02-4.03-2.3-5.15-3.85-1.12-1.55-1.91-3.44-2.36-5.68-.31-1.5-.47-3.88-.47-7.15V17.18h7.66v25.05c0,4,.16,6.69,.47,8.08,.48,2.01,1.5,3.59,3.06,4.74,1.56,1.15,3.49,1.72,5.78,1.72s4.45-.59,6.46-1.77c2.01-1.18,3.44-2.78,4.27-4.81,.84-2.03,1.25-4.97,1.25-8.83V17.18h7.66V62.35h-6.85Z"/><path class="cls-1" d="M473.76,56.78c-2.83,2.41-5.56,4.11-8.19,5.1-2.62,.99-5.44,1.49-8.44,1.49-4.96,0-8.78-1.21-11.44-3.64-2.67-2.42-4-5.52-4-9.29,0-2.21,.5-4.23,1.51-6.06,1.01-1.83,2.32-3.3,3.96-4.4s3.47-1.94,5.51-2.51c1.5-.4,3.77-.78,6.81-1.15,6.18-.74,10.73-1.62,13.65-2.64,.03-1.05,.04-1.71,.04-2,0-3.12-.72-5.32-2.17-6.59-1.96-1.73-4.86-2.59-8.72-2.59-3.6,0-6.26,.63-7.97,1.89-1.72,1.26-2.98,3.5-3.81,6.7l-7.49-1.02c.68-3.2,1.8-5.79,3.36-7.76,1.56-1.97,3.81-3.49,6.76-4.55,2.95-1.06,6.37-1.6,10.25-1.6s6.99,.45,9.4,1.36c2.41,.91,4.18,2.05,5.32,3.42,1.13,1.38,1.93,3.11,2.38,5.21,.25,1.3,.38,3.66,.38,7.06v10.21c0,7.12,.16,11.62,.49,13.5,.33,1.89,.97,3.69,1.93,5.42h-8c-.79-1.59-1.3-3.44-1.53-5.57Zm-.64-17.1c-2.78,1.13-6.95,2.1-12.5,2.89-3.15,.45-5.37,.96-6.68,1.53-1.3,.57-2.31,1.4-3.02,2.49-.71,1.09-1.06,2.3-1.06,3.64,0,2.04,.77,3.74,2.32,5.1,1.54,1.36,3.81,2.04,6.78,2.04s5.57-.64,7.87-1.94c2.3-1.29,3.98-3.05,5.06-5.29,.82-1.73,1.23-4.28,1.23-7.66v-2.81Z"/><path class="cls-1" d="M492.56,62.35V0h7.66V62.35h-7.66Z"/><path class="cls-1" d="M40.79,209.05h8.25v36.02c0,6.27-.71,11.24-2.13,14.93-1.42,3.69-3.98,6.68-7.68,9s-8.56,3.47-14.57,3.47-10.62-1.01-14.33-3.02c-3.71-2.01-6.37-4.93-7.95-8.74-1.59-3.81-2.38-9.02-2.38-15.63v-36.02H8.25v35.98c0,5.42,.5,9.41,1.51,11.97,1.01,2.57,2.74,4.54,5.19,5.93,2.45,1.39,5.45,2.08,9,2.08,6.07,0,10.39-1.38,12.97-4.13,2.58-2.75,3.87-8.04,3.87-15.86v-35.98Z"/><path class="cls-1" d="M56.44,271.4l24.12-32.49-21.27-29.86h9.82l11.31,15.99c2.35,3.32,4.03,5.87,5.02,7.66,1.39-2.27,3.03-4.64,4.93-7.1l12.55-16.54h8.97l-21.9,29.39,23.6,32.96h-10.21l-15.69-22.24c-.88-1.28-1.79-2.66-2.72-4.17-1.39,2.27-2.38,3.83-2.98,4.68l-15.65,21.73h-9.91Z"/><path class="cls-1" d="M114.15,272.47l18.08-64.48h6.12l-18.03,64.48h-6.17Z"/><path class="cls-1" d="M185.99,209.05h8.25v36.02c0,6.27-.71,11.24-2.13,14.93-1.42,3.69-3.98,6.68-7.68,9s-8.56,3.47-14.57,3.47-10.62-1.01-14.33-3.02c-3.71-2.01-6.37-4.93-7.95-8.74-1.59-3.81-2.38-9.02-2.38-15.63v-36.02h8.25v35.98c0,5.42,.5,9.41,1.51,11.97,1.01,2.57,2.74,4.54,5.19,5.93,2.45,1.39,5.45,2.08,9,2.08,6.07,0,10.39-1.38,12.97-4.13,2.58-2.75,3.87-8.04,3.87-15.86v-35.98Z"/><path class="cls-1" d="M209.38,271.4v-62.35h8.25v62.35h-8.25Z"/><path class="cls-1" d="M284.71,271.4v-5.7c-2.86,4.48-7.08,6.72-12.63,6.72-3.6,0-6.91-.99-9.93-2.98-3.02-1.98-5.36-4.76-7.02-8.31-1.66-3.56-2.49-7.65-2.49-12.27s.75-8.6,2.25-12.27c1.5-3.67,3.76-6.49,6.76-8.44,3-1.96,6.36-2.93,10.08-2.93,2.72,0,5.15,.57,7.27,1.72s3.86,2.64,5.19,4.49v-22.37h7.61v62.35h-7.1Zm-24.2-22.54c0,5.78,1.22,10.11,3.66,12.97,2.44,2.86,5.32,4.3,8.63,4.3s6.19-1.37,8.53-4.1c2.34-2.74,3.51-6.91,3.51-12.53,0-6.18-1.19-10.72-3.57-13.61-2.38-2.89-5.32-4.34-8.8-4.34s-6.25,1.39-8.53,4.17c-2.28,2.78-3.42,7.16-3.42,13.14Z"/><path class="cls-1" d="M334.77,256.86l7.91,.98c-1.25,4.62-3.56,8.21-6.93,10.76-3.38,2.55-7.68,3.83-12.93,3.83-6.61,0-11.84-2.03-15.72-6.1-3.87-4.07-5.81-9.77-5.81-17.12s1.96-13.5,5.87-17.69c3.91-4.2,8.99-6.29,15.23-6.29s10.97,2.06,14.8,6.17c3.83,4.11,5.74,9.9,5.74,17.35,0,.45-.01,1.13-.04,2.04h-33.69c.28,4.96,1.69,8.76,4.21,11.4,2.52,2.64,5.67,3.96,9.44,3.96,2.81,0,5.2-.74,7.19-2.21,1.98-1.47,3.56-3.83,4.72-7.06Zm-25.14-12.38h25.22c-.34-3.8-1.3-6.65-2.89-8.55-2.44-2.95-5.6-4.42-9.48-4.42-3.52,0-6.47,1.18-8.87,3.53-2.4,2.35-3.72,5.5-3.98,9.44Z"/><path class="cls-1" d="M349.23,257.92l7.57-1.19c.43,3.03,1.61,5.36,3.55,6.98,1.94,1.62,4.66,2.42,8.14,2.42s6.12-.72,7.83-2.15c1.7-1.43,2.55-3.11,2.55-5.04,0-1.73-.75-3.09-2.25-4.08-1.05-.68-3.66-1.54-7.83-2.59-5.61-1.42-9.51-2.64-11.67-3.68-2.17-1.03-3.81-2.47-4.93-4.3-1.12-1.83-1.68-3.85-1.68-6.06,0-2.01,.46-3.88,1.38-5.59,.92-1.72,2.18-3.14,3.76-4.27,1.19-.88,2.81-1.62,4.87-2.23,2.06-.61,4.26-.91,6.61-.91,3.54,0,6.66,.51,9.34,1.53,2.68,1.02,4.66,2.4,5.93,4.15,1.28,1.74,2.15,4.08,2.64,7l-7.49,1.02c-.34-2.32-1.33-4.14-2.96-5.44-1.63-1.3-3.93-1.96-6.91-1.96-3.52,0-6.03,.58-7.53,1.74-1.5,1.16-2.25,2.52-2.25,4.08,0,.99,.31,1.89,.94,2.68,.62,.82,1.6,1.5,2.93,2.04,.77,.28,3.02,.94,6.76,1.96,5.42,1.45,9.19,2.63,11.33,3.55s3.82,2.26,5.04,4.02c1.22,1.76,1.83,3.94,1.83,6.55s-.74,4.96-2.23,7.21c-1.49,2.25-3.64,4-6.44,5.23-2.81,1.23-5.98,1.85-9.53,1.85-5.87,0-10.34-1.22-13.42-3.66-3.08-2.44-5.04-6.05-5.89-10.85Z"/><path class="cls-1" d="M395.88,217.86v-8.8h7.66v8.8h-7.66Zm0,53.55v-45.17h7.66v45.17h-7.66Z"/><path class="cls-1" d="M413.79,275.15l7.44,1.11c.31,2.3,1.18,3.97,2.59,5.02,1.9,1.42,4.49,2.13,7.78,2.13,3.54,0,6.28-.71,8.21-2.13,1.93-1.42,3.23-3.4,3.91-5.95,.4-1.56,.58-4.83,.55-9.83-3.35,3.94-7.51,5.91-12.5,5.91-6.21,0-11.02-2.24-14.42-6.72-3.4-4.48-5.1-9.85-5.1-16.12,0-4.31,.78-8.29,2.34-11.93,1.56-3.64,3.82-6.46,6.78-8.44,2.96-1.98,6.44-2.98,10.44-2.98,5.33,0,9.72,2.16,13.18,6.46v-5.44h7.06v39.04c0,7.03-.72,12.02-2.15,14.95s-3.7,5.25-6.8,6.95c-3.11,1.7-6.93,2.55-11.46,2.55-5.39,0-9.74-1.21-13.06-3.64s-4.92-6.08-4.81-10.95Zm6.34-27.14c0,5.93,1.18,10.25,3.53,12.97,2.35,2.72,5.3,4.08,8.85,4.08s6.46-1.35,8.85-4.06c2.38-2.71,3.57-6.95,3.57-12.74s-1.23-9.7-3.68-12.5-5.41-4.21-8.87-4.21-6.29,1.38-8.68,4.15c-2.38,2.76-3.57,6.87-3.57,12.31Z"/><path class="cls-1" d="M463.64,271.4v-45.17h6.89v6.42c3.32-4.96,8.11-7.44,14.38-7.44,2.72,0,5.22,.49,7.51,1.47,2.28,.98,3.99,2.26,5.12,3.85,1.13,1.59,1.93,3.47,2.38,5.66,.28,1.42,.42,3.9,.42,7.44v27.77h-7.66v-27.48c0-3.12-.3-5.45-.89-7-.59-1.55-1.65-2.78-3.17-3.7-1.52-.92-3.3-1.38-5.34-1.38-3.26,0-6.08,1.04-8.44,3.1-2.37,2.07-3.55,6-3.55,11.78v24.67h-7.66Z"/><path class="cls-1" d="M223.29,362.45l7.57-1.19c.43,3.04,1.61,5.36,3.55,6.98,1.94,1.62,4.66,2.42,8.14,2.42s6.12-.72,7.83-2.15c1.7-1.43,2.55-3.11,2.55-5.04,0-1.73-.75-3.09-2.25-4.08-1.05-.68-3.66-1.54-7.83-2.59-5.61-1.42-9.51-2.64-11.67-3.68-2.17-1.03-3.81-2.47-4.93-4.3-1.12-1.83-1.68-3.85-1.68-6.06,0-2.01,.46-3.88,1.38-5.59,.92-1.71,2.18-3.14,3.76-4.27,1.19-.88,2.81-1.62,4.87-2.23,2.06-.61,4.26-.91,6.61-.91,3.54,0,6.66,.51,9.34,1.53,2.68,1.02,4.66,2.4,5.93,4.15,1.28,1.74,2.15,4.08,2.64,7l-7.49,1.02c-.34-2.32-1.33-4.14-2.96-5.44-1.63-1.3-3.93-1.96-6.91-1.96-3.52,0-6.03,.58-7.53,1.74-1.5,1.16-2.25,2.52-2.25,4.08,0,.99,.31,1.89,.94,2.68,.62,.82,1.6,1.5,2.94,2.04,.77,.28,3.02,.94,6.76,1.96,5.42,1.45,9.19,2.63,11.33,3.55,2.14,.92,3.82,2.26,5.04,4.02,1.22,1.76,1.83,3.94,1.83,6.55s-.74,4.96-2.23,7.21-3.64,4-6.44,5.23-5.98,1.85-9.53,1.85c-5.87,0-10.34-1.22-13.42-3.66-3.08-2.44-5.04-6.05-5.89-10.85Z"/><path class="cls-1" d="M286.62,369.08l1.11,6.76c-2.16,.45-4.08,.68-5.78,.68-2.78,0-4.93-.44-6.46-1.32-1.53-.88-2.61-2.03-3.23-3.47-.62-1.43-.94-4.44-.94-9.04v-25.99h-5.61v-5.96h5.61v-11.19l7.61-4.59v15.78h7.7v5.96h-7.7v26.41c0,2.18,.13,3.59,.4,4.21,.27,.62,.71,1.12,1.32,1.49,.61,.37,1.48,.55,2.62,.55,.85,0,1.97-.1,3.36-.3Z"/><path class="cls-1" d="M323.71,375.93v-6.63c-3.52,5.1-8.29,7.66-14.33,7.66-2.67,0-5.15-.51-7.46-1.53-2.31-1.02-4.03-2.3-5.15-3.85-1.12-1.54-1.91-3.44-2.36-5.68-.31-1.5-.47-3.88-.47-7.15v-27.99h7.66v25.05c0,4,.16,6.69,.47,8.08,.48,2.01,1.5,3.59,3.06,4.74,1.56,1.15,3.49,1.72,5.78,1.72s4.45-.59,6.46-1.77c2.01-1.18,3.44-2.78,4.27-4.81,.84-2.03,1.25-4.97,1.25-8.83v-24.2h7.66v45.17h-6.85Z"/><path class="cls-1" d="M371.85,375.93v-5.7c-2.86,4.48-7.07,6.72-12.63,6.72-3.6,0-6.91-.99-9.93-2.98-3.02-1.98-5.36-4.76-7.02-8.32-1.66-3.56-2.49-7.65-2.49-12.27s.75-8.6,2.25-12.27c1.5-3.67,3.76-6.49,6.76-8.44,3-1.96,6.37-2.93,10.08-2.93,2.72,0,5.15,.57,7.27,1.72,2.13,1.15,3.86,2.64,5.19,4.49v-22.37h7.61v62.35h-7.1Zm-24.2-22.54c0,5.78,1.22,10.11,3.66,12.97s5.32,4.3,8.63,4.3,6.19-1.37,8.53-4.1c2.34-2.74,3.51-6.91,3.51-12.53,0-6.18-1.19-10.72-3.57-13.61-2.38-2.89-5.32-4.34-8.8-4.34s-6.25,1.39-8.53,4.17c-2.28,2.78-3.42,7.16-3.42,13.14Z"/><path class="cls-1" d="M421.91,361.38l7.91,.98c-1.25,4.62-3.56,8.21-6.93,10.76-3.38,2.55-7.68,3.83-12.93,3.83-6.61,0-11.84-2.03-15.72-6.1-3.87-4.07-5.81-9.77-5.81-17.12s1.96-13.5,5.87-17.69c3.91-4.2,8.99-6.29,15.23-6.29s10.97,2.06,14.8,6.17c3.83,4.11,5.74,9.9,5.74,17.35,0,.45-.01,1.13-.04,2.04h-33.69c.28,4.96,1.69,8.76,4.21,11.4,2.52,2.64,5.67,3.96,9.44,3.96,2.81,0,5.2-.74,7.19-2.21,1.98-1.47,3.56-3.83,4.72-7.06Zm-25.14-12.38h25.22c-.34-3.8-1.3-6.65-2.89-8.55-2.44-2.95-5.6-4.42-9.48-4.42-3.52,0-6.47,1.18-8.87,3.53-2.4,2.35-3.72,5.5-3.98,9.44Z"/><path class="cls-1" d="M439.44,375.93v-45.17h6.89v6.42c3.32-4.96,8.11-7.44,14.38-7.44,2.72,0,5.22,.49,7.51,1.47,2.28,.98,3.99,2.26,5.12,3.85,1.13,1.59,1.93,3.47,2.38,5.66,.28,1.42,.42,3.9,.42,7.44v27.77h-7.66v-27.48c0-3.12-.3-5.45-.89-7-.59-1.54-1.65-2.78-3.17-3.7-1.52-.92-3.3-1.38-5.34-1.38-3.26,0-6.08,1.04-8.44,3.11-2.37,2.07-3.55,6-3.55,11.78v24.67h-7.66Z"/><path class="cls-1" d="M504.6,369.08l1.11,6.76c-2.16,.45-4.08,.68-5.78,.68-2.78,0-4.93-.44-6.46-1.32-1.53-.88-2.61-2.03-3.23-3.47-.62-1.43-.94-4.44-.94-9.04v-25.99h-5.61v-5.96h5.61v-11.19l7.61-4.59v15.78h7.7v5.96h-7.7v26.41c0,2.18,.13,3.59,.4,4.21,.27,.62,.71,1.12,1.32,1.49,.61,.37,1.48,.55,2.62,.55,.85,0,1.97-.1,3.36-.3Z"/><path class="cls-1" d="M40.15,497.77v-5.53h50.74v5.53H40.15Z"/><path class="cls-1" d="M88.59,497.77v-5.53h50.74v5.53h-50.74Z"/><path class="cls-1" d="M137.04,497.77v-5.53h50.74v5.53h-50.74Z"/><path class="cls-1" d="M185.48,497.77v-5.53h50.74v5.53h-50.74Z"/><path class="cls-1" d="M233.92,497.77v-5.53h50.74v5.53h-50.74Z"/><path class="cls-1" d="M282.37,497.77v-5.53h50.74v5.53h-50.74Z"/><path class="cls-1" d="M339.7,480.46v-39.21h-6.76v-5.96h6.76v-4.81c0-3.03,.27-5.29,.81-6.76,.74-1.98,2.03-3.59,3.89-4.83,1.86-1.23,4.46-1.85,7.8-1.85,2.15,0,4.54,.26,7.15,.77l-1.15,6.68c-1.59-.28-3.09-.42-4.51-.42-2.33,0-3.97,.5-4.93,1.49-.96,.99-1.45,2.85-1.45,5.57v4.17h8.8v5.96h-8.8v39.21h-7.61Z"/><path class="cls-1" d="M361.99,480.46v-45.17h6.89v6.85c1.76-3.2,3.38-5.32,4.87-6.34,1.49-1.02,3.13-1.53,4.91-1.53,2.58,0,5.2,.82,7.87,2.47l-2.64,7.1c-1.87-1.11-3.74-1.66-5.61-1.66-1.67,0-3.18,.5-4.51,1.51-1.33,1.01-2.28,2.4-2.85,4.19-.85,2.72-1.28,5.7-1.28,8.93v23.65h-7.66Z"/><path class="cls-1" d="M388.23,457.87c0-8.36,2.32-14.56,6.97-18.59,3.88-3.34,8.62-5.02,14.21-5.02,6.21,0,11.28,2.04,15.23,6.1,3.94,4.07,5.91,9.69,5.91,16.86,0,5.81-.87,10.39-2.62,13.72-1.74,3.33-4.28,5.92-7.61,7.76-3.33,1.84-6.97,2.76-10.91,2.76-6.32,0-11.43-2.03-15.33-6.08-3.9-4.05-5.85-9.89-5.85-17.52Zm7.87,0c0,5.78,1.26,10.12,3.79,12.99,2.52,2.88,5.7,4.32,9.53,4.32s6.96-1.45,9.48-4.34c2.52-2.89,3.79-7.3,3.79-13.23,0-5.58-1.27-9.82-3.81-12.7-2.54-2.88-5.69-4.32-9.46-4.32s-7,1.43-9.53,4.3c-2.52,2.86-3.79,7.19-3.79,12.97Z"/><path class="cls-1" d="M439.52,480.46v-45.17h6.85v6.34c1.42-2.21,3.3-3.99,5.66-5.34s5.03-2.02,8.04-2.02c3.35,0,6.09,.7,8.23,2.08,2.14,1.39,3.65,3.33,4.53,5.83,3.57-5.27,8.22-7.91,13.95-7.91,4.48,0,7.92,1.24,10.34,3.72,2.41,2.48,3.61,6.3,3.61,11.46v31.01h-7.61v-28.45c0-3.06-.25-5.27-.75-6.61s-1.4-2.43-2.7-3.25c-1.3-.82-2.84-1.23-4.59-1.23-3.18,0-5.81,1.06-7.91,3.17s-3.15,5.49-3.15,10.14v26.24h-7.66v-29.35c0-3.4-.62-5.95-1.87-7.66-1.25-1.7-3.29-2.55-6.12-2.55-2.16,0-4.15,.57-5.98,1.7-1.83,1.13-3.15,2.79-3.98,4.98-.82,2.18-1.23,5.33-1.23,9.44v23.43h-7.66Z"/><path class="cls-1" d="M60.91,584.98l23.95-62.35h8.89l25.52,62.35h-9.4l-7.27-18.88h-26.07l-6.85,18.88h-8.76Zm17.99-25.6h21.14l-6.51-17.27c-1.98-5.25-3.46-9.55-4.42-12.93-.79,4-1.91,7.97-3.36,11.91l-6.85,18.29Z"/><path class="cls-1" d="M124.87,584.98v-45.17h6.85v6.34c1.42-2.21,3.3-3.99,5.66-5.34,2.35-1.35,5.03-2.02,8.04-2.02,3.35,0,6.09,.7,8.23,2.08,2.14,1.39,3.65,3.33,4.53,5.83,3.57-5.27,8.22-7.91,13.95-7.91,4.48,0,7.92,1.24,10.33,3.72,2.41,2.48,3.62,6.3,3.62,11.46v31.01h-7.61v-28.45c0-3.06-.25-5.27-.74-6.61-.5-1.35-1.4-2.43-2.7-3.25-1.3-.82-2.84-1.23-4.59-1.23-3.18,0-5.81,1.06-7.91,3.17-2.1,2.11-3.15,5.49-3.15,10.14v26.24h-7.66v-29.35c0-3.4-.62-5.95-1.87-7.66-1.25-1.7-3.29-2.55-6.12-2.55-2.16,0-4.15,.57-5.98,1.7-1.83,1.13-3.15,2.79-3.98,4.98-.82,2.18-1.23,5.33-1.23,9.44v23.43h-7.66Z"/><path class="cls-1" d="M194.37,571.5l7.57-1.19c.43,3.04,1.61,5.36,3.55,6.98,1.94,1.62,4.66,2.42,8.14,2.42s6.12-.72,7.83-2.15c1.7-1.43,2.55-3.11,2.55-5.04,0-1.73-.75-3.09-2.25-4.08-1.05-.68-3.66-1.54-7.83-2.59-5.61-1.42-9.51-2.64-11.67-3.68-2.17-1.03-3.81-2.47-4.93-4.3-1.12-1.83-1.68-3.85-1.68-6.06,0-2.01,.46-3.88,1.38-5.59,.92-1.71,2.18-3.14,3.76-4.27,1.19-.88,2.81-1.62,4.87-2.23,2.06-.61,4.26-.91,6.61-.91,3.54,0,6.66,.51,9.34,1.53,2.68,1.02,4.66,2.4,5.93,4.15,1.28,1.74,2.15,4.08,2.64,7l-7.49,1.02c-.34-2.32-1.33-4.14-2.96-5.44-1.63-1.3-3.93-1.96-6.91-1.96-3.52,0-6.03,.58-7.53,1.74-1.5,1.16-2.25,2.52-2.25,4.08,0,.99,.31,1.89,.94,2.68,.62,.82,1.6,1.5,2.94,2.04,.77,.28,3.02,.94,6.76,1.96,5.42,1.45,9.19,2.63,11.33,3.55,2.14,.92,3.82,2.26,5.04,4.02,1.22,1.76,1.83,3.94,1.83,6.55s-.74,4.96-2.23,7.21-3.64,4-6.44,5.23-5.98,1.85-9.53,1.85c-5.87,0-10.34-1.22-13.42-3.66-3.08-2.44-5.04-6.05-5.89-10.85Z"/><path class="cls-1" d="M257.7,578.13l1.11,6.76c-2.16,.45-4.08,.68-5.78,.68-2.78,0-4.93-.44-6.46-1.32-1.53-.88-2.61-2.03-3.23-3.47-.62-1.43-.94-4.44-.94-9.04v-25.99h-5.61v-5.96h5.61v-11.19l7.61-4.59v15.78h7.7v5.96h-7.7v26.41c0,2.18,.13,3.59,.4,4.21,.27,.62,.71,1.12,1.32,1.49,.61,.37,1.48,.55,2.62,.55,.85,0,1.97-.1,3.36-.3Z"/><path class="cls-1" d="M296.1,570.43l7.91,.98c-1.25,4.62-3.56,8.21-6.93,10.76-3.38,2.55-7.68,3.83-12.93,3.83-6.61,0-11.85-2.03-15.72-6.1-3.87-4.07-5.81-9.77-5.81-17.12s1.96-13.5,5.87-17.69c3.91-4.2,8.99-6.29,15.23-6.29s10.97,2.06,14.8,6.17c3.83,4.11,5.74,9.9,5.74,17.35,0,.45-.01,1.13-.04,2.04h-33.69c.28,4.96,1.69,8.76,4.21,11.4,2.52,2.64,5.67,3.96,9.44,3.96,2.81,0,5.2-.74,7.19-2.21,1.98-1.47,3.56-3.83,4.72-7.06Zm-25.14-12.38h25.22c-.34-3.8-1.3-6.65-2.89-8.55-2.44-2.95-5.6-4.42-9.49-4.42-3.52,0-6.47,1.18-8.87,3.53-2.4,2.35-3.72,5.5-3.98,9.44Z"/><path class="cls-1" d="M313.54,584.98v-45.17h6.89v6.85c1.76-3.2,3.38-5.32,4.87-6.34,1.49-1.02,3.13-1.53,4.91-1.53,2.58,0,5.2,.82,7.87,2.47l-2.64,7.1c-1.87-1.11-3.74-1.66-5.61-1.66-1.67,0-3.18,.5-4.51,1.51-1.33,1.01-2.28,2.4-2.85,4.19-.85,2.72-1.28,5.7-1.28,8.93v23.65h-7.66Z"/><path class="cls-1" d="M371.94,584.98v-5.7c-2.86,4.48-7.07,6.72-12.63,6.72-3.6,0-6.91-.99-9.93-2.98-3.02-1.98-5.36-4.76-7.02-8.32-1.66-3.56-2.49-7.65-2.49-12.27s.75-8.6,2.25-12.27c1.5-3.67,3.76-6.49,6.76-8.44,3-1.96,6.37-2.93,10.08-2.93,2.72,0,5.15,.57,7.27,1.72,2.13,1.15,3.86,2.64,5.19,4.49v-22.37h7.61v62.35h-7.1Zm-24.2-22.54c0,5.78,1.22,10.11,3.66,12.97s5.32,4.3,8.63,4.3,6.19-1.37,8.53-4.1c2.34-2.74,3.51-6.91,3.51-12.53,0-6.18-1.19-10.72-3.57-13.61-2.38-2.89-5.32-4.34-8.8-4.34s-6.25,1.39-8.53,4.17c-2.28,2.78-3.42,7.16-3.42,13.14Z"/><path class="cls-1" d="M420.55,579.41c-2.83,2.41-5.56,4.11-8.19,5.1-2.62,.99-5.44,1.49-8.44,1.49-4.96,0-8.78-1.21-11.44-3.64-2.67-2.42-4-5.52-4-9.29,0-2.21,.5-4.23,1.51-6.06,1.01-1.83,2.32-3.3,3.96-4.4,1.63-1.11,3.47-1.94,5.51-2.51,1.5-.4,3.77-.78,6.81-1.15,6.18-.74,10.73-1.62,13.65-2.64,.03-1.05,.04-1.72,.04-2,0-3.12-.72-5.32-2.17-6.59-1.96-1.73-4.86-2.59-8.72-2.59-3.6,0-6.26,.63-7.97,1.89-1.72,1.26-2.98,3.5-3.81,6.7l-7.49-1.02c.68-3.2,1.8-5.79,3.36-7.76,1.56-1.97,3.81-3.49,6.76-4.55s6.37-1.59,10.25-1.59,6.99,.45,9.4,1.36c2.41,.91,4.18,2.05,5.32,3.42,1.13,1.38,1.93,3.11,2.38,5.21,.25,1.3,.38,3.66,.38,7.06v10.21c0,7.12,.16,11.62,.49,13.5,.33,1.89,.97,3.69,1.93,5.42h-8c-.79-1.59-1.3-3.45-1.53-5.57Zm-.64-17.1c-2.78,1.13-6.95,2.1-12.5,2.89-3.15,.45-5.37,.96-6.68,1.53-1.3,.57-2.31,1.4-3.02,2.49-.71,1.09-1.06,2.3-1.06,3.64,0,2.04,.77,3.74,2.32,5.1,1.54,1.36,3.81,2.04,6.78,2.04s5.57-.64,7.87-1.93c2.3-1.29,3.98-3.06,5.06-5.3,.82-1.73,1.23-4.28,1.23-7.66v-2.81Z"/><path class="cls-1" d="M439.52,584.98v-45.17h6.85v6.34c1.42-2.21,3.3-3.99,5.66-5.34s5.03-2.02,8.04-2.02c3.35,0,6.09,.7,8.23,2.08,2.14,1.39,3.65,3.33,4.53,5.83,3.57-5.27,8.22-7.91,13.95-7.91,4.48,0,7.92,1.24,10.34,3.72,2.41,2.48,3.61,6.3,3.61,11.46v31.01h-7.61v-28.45c0-3.06-.25-5.27-.75-6.61s-1.4-2.43-2.7-3.25c-1.3-.82-2.84-1.23-4.59-1.23-3.18,0-5.81,1.06-7.91,3.17s-3.15,5.49-3.15,10.14v26.24h-7.66v-29.35c0-3.4-.62-5.95-1.87-7.66-1.25-1.7-3.29-2.55-6.12-2.55-2.16,0-4.15,.57-5.98,1.7-1.83,1.13-3.15,2.79-3.98,4.98-.82,2.18-1.23,5.33-1.23,9.44v23.43h-7.66Z"/></svg>